<mxfile host="app.diagrams.net" modified="2023-06-14T19:36:11.542Z" agent="Mozilla/5.0 (Windows NT 10.0; Win64; x64) AppleWebKit/537.36 (KHTML, like Gecko) Chrome/112.0.0.0 Safari/537.36" etag="sNHe17FLGBzZn3kPsw-b" version="21.3.8" type="github">
  <diagram name="PÃ¡gina-1" id="Jm2L-r71B-lfZigxb4Et">
    <mxGraphModel dx="794" dy="438" grid="1" gridSize="10" guides="1" tooltips="1" connect="1" arrows="1" fold="1" page="1" pageScale="1" pageWidth="827" pageHeight="1169" math="0" shadow="0">
      <root>
        <mxCell id="0" />
        <mxCell id="1" parent="0" />
        <mxCell id="tZRy6jMqT5xdFO_vJThM-44" style="edgeStyle=orthogonalEdgeStyle;rounded=0;orthogonalLoop=1;jettySize=auto;html=1;entryX=0.5;entryY=0;entryDx=0;entryDy=0;" edge="1" parent="1" source="tZRy6jMqT5xdFO_vJThM-1" target="tZRy6jMqT5xdFO_vJThM-11">
          <mxGeometry relative="1" as="geometry">
            <Array as="points">
              <mxPoint x="150" y="80" />
            </Array>
          </mxGeometry>
        </mxCell>
        <mxCell id="tZRy6jMqT5xdFO_vJThM-45" style="edgeStyle=orthogonalEdgeStyle;rounded=0;orthogonalLoop=1;jettySize=auto;html=1;entryX=0.5;entryY=0;entryDx=0;entryDy=0;" edge="1" parent="1" source="tZRy6jMqT5xdFO_vJThM-1" target="tZRy6jMqT5xdFO_vJThM-12">
          <mxGeometry relative="1" as="geometry" />
        </mxCell>
        <mxCell id="tZRy6jMqT5xdFO_vJThM-46" style="edgeStyle=orthogonalEdgeStyle;rounded=0;orthogonalLoop=1;jettySize=auto;html=1;entryX=0.567;entryY=0.044;entryDx=0;entryDy=0;entryPerimeter=0;" edge="1" parent="1" source="tZRy6jMqT5xdFO_vJThM-1" target="tZRy6jMqT5xdFO_vJThM-13">
          <mxGeometry relative="1" as="geometry">
            <Array as="points">
              <mxPoint x="518" y="80" />
            </Array>
          </mxGeometry>
        </mxCell>
        <mxCell id="tZRy6jMqT5xdFO_vJThM-1" value="&lt;font style=&quot;font-size: 24px;&quot;&gt;Variaciones mensuales:&lt;br&gt;M&lt;/font&gt;&lt;font size=&quot;3&quot; style=&quot;&quot;&gt;t&lt;/font&gt;&lt;font style=&quot;font-size: 24px;&quot;&gt; - M&lt;/font&gt;&lt;font style=&quot;font-size: 14px;&quot;&gt;t-1&lt;br&gt;&lt;/font&gt;" style="rounded=1;whiteSpace=wrap;html=1;" vertex="1" parent="1">
          <mxGeometry x="210" y="30" width="270" height="80" as="geometry" />
        </mxCell>
        <mxCell id="tZRy6jMqT5xdFO_vJThM-2" value="" style="html=1;shadow=0;dashed=0;align=center;verticalAlign=middle;shape=mxgraph.arrows2.arrow;dy=0.67;dx=20;notch=0;" vertex="1" parent="1">
          <mxGeometry x="540" y="40" width="80" height="60" as="geometry" />
        </mxCell>
        <mxCell id="tZRy6jMqT5xdFO_vJThM-4" value="" style="shape=image;verticalLabelPosition=bottom;labelBackgroundColor=default;verticalAlign=top;aspect=fixed;imageAspect=0;image=data:image/png,iVBORw0KGgoAAAANSUhEUgAAAXIAAAFGCAYAAAB3zxSyAAAgAElEQVR4nOy9aaxl2XXf91t773Pu9KZ6VdU19Eyym2RTFEWRIinSUiBYkRQLkpNYjg0HyoDACOD4mz8kMRBE34MESGIkcYI4AxwjkezItiRY80yGo0hK3WTPXdXVXXO98Y7n7L1WPuxz73uvuqpZ3azpVZ0fcPvd1/Xuuefue87/rLNGMTPjLvNubykid3FPWlpaDhutfrwTd693oKWlpaXl+6MV8paWlpZDTivkLS0tLYeccCc3fg/c7y0tLQ8IrX7cOndUyN+NhzUo0dLS8v3T6sdBWtdKS0tLyyGnFfKWlpaWQ85tca20vqyWlpaWe0drkbe0tLQcct63Rd5a4S0tLbeDVku+f25b1kobRW5pabmTtBpzc1rXSkvLe8TMWiuy5b7inuWRt7TcrxiKYYjt3faLM1ADHJgDn1hIuTlMwOHv1S63POS0Qt7Sch1mm+jsbWJ8BdUNTGcIJU46iOsi4VFC8TTi10ECiNLe3LbcS1ohb3nI0fxfi0S9iE2fJ06/ThknFCokVYyIs7h4hUOJElB/DNf5MK77ISQ8TvLdLPbSWuYtdxd5v/3Ir39ZG4hoOYyYJQSI9Xeot/8Y6tdw1GAJ1DASoIhmv7gwP/YN5xyGoNKH4iTS/ShF7wegfAwnveYd9MD7Pcwi//3GFVqNuTnvW8hbWg4786ClVq+hG/8LWk8QKsxqMEWszn5xUSKCM7K4N4IuYogIKo1bRXpIWEXKp/BrP4XrPJPFRxoxN9cK+U1oRfr7oxXylocWtYqUzmHX/jE2eR3wkBSswrQiTSM6ioyvbDLdGcPMwBlSBDr9DuVyj2KpQDoe1wlYyBa6UGBhCTf4NMWRn0CKJxAJCL4V8pvQCvn3RyvkLQ8d2uSbxPQGuv07sP1NqMf5Hy1iaUK1MWTrzFWq81v4WmEhwNn6NkskB1I4yuUu5eqAYn1A79gSrgM4wXxBCicpVn6EYvnHG0H3ZHeLe+jEqxXyO0cr5C0PHUrC6ktY/bvEK98kTa8gGGYJL456nLj4tVdwG7tIVHDvFBkz2yc+igq44KHnGJxeZenpY0jXEPGoFGhxknLtr1KsfA7cEiL+gRWv9yMpD+pa3C1aIW95aJgf6skuQ/WbyHST6so3oKoAcM5Bpbz91ZfQKyOQBN6BBy/Na9Hs8lbJ29M9AXIGeJeN975n9ZnjdI8PCKEkCagLuOXPUhz7a7jy6YWb5UETsVbI7z5t+mHLA89cWMwSRgX1S1gaY0xIMVJIFmVNicnFTaqNLXr9DqFX4sscrHT7Ndsa90o0NBoxRrSOWJ0DoCC4qbH7wkXGRzssP3qMzrEVHBG2v0isLiLr/wZ+6bM4t4RIexq2fH+0FnnLA0/OTknNb2dIkz/CWUWcXSReehmnKVuESbnyZy/DzpSiG8CnvW04ySmIThDZe2Q0u1oiVFVFXScEj8djzqDjKNZ7rDx1itDNoq3uKKx9nuLoX0P8Gt4/OEHQ7yUprfV9+2lNgZaHB0nY+EU8M9QU4iznkYsQY4VWNTabUA4CZpF5Db45QQsIIUAdSZpwOJzNxdeyH730dDoFhSrVtCalvG2fBL06Y3t4luWnT1KuDnDhGrrxa0yqV+ic+DuIO4lQPtRZLS3vn7auuOWhQbkA6W1o8sedZOtRtUKsJtYTitKDpsaKb/zgZWD1qVP0Th6hWOkgoXHFqC5y0fc/nIfuoKC3VBJKD97l4qHaGJ+9yPjiBlrl14bhy6Rz/w318KsY1T43UNuYq+XWaS3ylgceEcmNsOLbeGosJRyKyQBRR3ZuJ0QV5xxJFXINJyaCcw7plvhQYi4X99Q7M6xOgCDegQiQEIR5aqH3Pgt4gpQSXhPUwuzCNarZlOXTR5FuiVVvUl/439ETY7qrP4lZe1q2vDfaI6blgSdbt5E4exNvhlrKVrg4TDymhjNwYgtLG0CaboZxZ8Lw9QsMnngEK0pk0Kfvu1TjEa7sEDol4oxY1UyHu3h1eAIgiIArhFA46jphprkwaGfCbrzM2ukTpGWHixvo+X/ENG5Srv0cIr3WzdJyy7RC3vJAcTN3hNoMp7sknZfgG+gMFwSXHGaG9wUqum8bTQtbc9TXpuzWF+kdW0GcI/lEWBlgAtHlv+t0C7xbphrNsLp5beO+QSAUReOOycE+mdYM375M99RR3HIfcxV6+VepTQlHfhYvawc+TxskbLkZrZC3PBSITiHWiFSQu42TpMbESCnhBKQIaFEg2mSrNBoqIphAtTND0ybdtT6ucIt/05gYjUaMYs4ld8kICA7JHhpgv7tlv/9bq5rJW1coTh6hWF8BnaHX/hU1Je7ov4lQ3NV1uh20F5y7TxvsbHk4MEXSDE0VlhJYhcPwZQnksn0TpRj0SCZoAku2eJAMUcFqwTWi7MxhldJxJQUFs1HFdHcKUUF5RxAUssg5l4OfIlnsnRrp4ia2MUQMJA6xq/830+3fRG3G9R0UW1qup7XIWw49t5rdoanG2xhciUnMYUnfIQpNm1qlv9pnKNcocAcySMQ7LOVgaC1G6Ryqyng8BoSlpSW8CTqeZkt8/jpuYp06g0WZv4HC6MoGfTOK9WUEJV36FaLrE5Y+j5MOtBOIWm5Ca5G3PBSIdNDkcqZJnGFJUY1IUWJliVhCLBF6js5yD1XJfvTmYSlXd1pMpFmFxoRzDu89050hOxtbdAY9wsogN8wSaFzhB1wNN/J5iwg4wSVjdnWLemM3B1zrEXb1X5Am383tAlrLvOUmtELe8lBgviClAksR04RojaQKTCiLPgCSDWOOnDxKVCVFI0VDE6A+x0drJc0S490J4OgvLyHBMdvdZePyVborS4SVAdFB8pJ7rGBZ2JsK03mV6f7qUC+O4ByCUl3bhOEYJKHVBaprv4bqcC+vvaXlOlohvw3cqCjkRv7RlnuH0EGKI2iqIUUkRUwVU6XorGD7U/36Qm+tjyJNholDNYIaEpU0jVRVZHdrB4D10yfwSz1mu7tcefUsvgj0VpfBOcQ7pAiI9ySnByz1/VjuxJUbb1lidOkasjPCaUTql5hd/WXQ/H7t8dRyPa2PvOWB40ZZE2IB6TyJbX+RJDWevTayisf3B8TdGQEB5+idGDDdnuCq60TTDDdTamA0HYEay4+ss376JJN+n+2tLa5uXuP4qVMs97qLTJXkIGpFGo/R0RS/r2vi/v1dTB0iZZ956ZHgCcOvEMOTuLWfaPzlLS17tELe8lAg4imWP8r4QknfRlAo5t3Cn110BsTxFlqn7G5Z7tJZ6xAvT/e2AWCCi0qZC+oZXd1lOp5w4gOPs3R8ndWTx3PfFRPMSbN9QZwQpKRY7iLjip1LG3jNI+PCTQKiqspsY4dupwCpsdGfkgYfQoqn246JLQdoXSst9zW3y21lZoRwBN87RYo5WElMaKyxFFEHvrtEMt8U8ChLj65AxwDFRDExaKo/Q4LCBKcw3Rxz7vlXGV/ZYjaZkaKSyO1tq+mMVEc2zlxg85VzzDYnWK/L0uMnckXoO+4eXH6YwyGkyYxqOAat0PoiNvzSoidL67ZrmdNe1lseCL5XEUr+94Jy9dPMtr9DYRENeQiEOUOd4soOzk+wusYsEUph7ckjbJ7bQFSawiBtfgrBgTQFPpPhhAsvn0O6nrKbi3hSHTETjj31GGJw7tsvE8qC488+wcnnPoicWqe6sIHN6nfs/yIQahA3h9hgCSk62OjPSYNPIuVzbQl/y4LWIm95uBh8kORXsTTD0gyNNZoiphUiQtHrkfZ1NSxXuwyO9bFCUWcHepGLCME5lvp9jq2vM+j1sFnNbHuMDStsXDM6f4U3v/EdessrPP2XfoTZrObcV1/k7NdeJHR7lKfWb7qri+IhNaaXNsBqfNombv42Kjt3cdFa7ndaIX8ftBkphxcfHqFcfo5Y16Q4gxhxMSJRsVhjwVEOBkD+nqNFOkeWKAcF+L3qzP2pgzmgKSytLnHy5ElOnTrF0UeO8sipR1g9fgSbzXj1D7+CJeXpz3yCbq/L1e+c48oLb2I+oGv9nKYooE32ilgCjXs7Pp2RdoYkIj6ewSbfztOOWlpohfyOcb3l1nJvWVjQYQm/8qMofSRFSDMs1miqSRoxU3yvg3VKLIGrwQssrS/jui6nFMrczcKi1H4+OSijC2v66CPHWT92BKY1Z//k20idePwLn4Su49prb6M7FZ3+AAtu8XqXXfGghpFywNQLaTTMaZAYNn6elHb3TT5qeZhphbzloSOsfphYfgDGkVRXaKqxVGEpQsoi3O0vQeFRjGSKBM/y8VXoKuYMc3bTC/SBi7h3rJ16hGOPnWA6nvD6l57HppFn//XPUaz1UYuINYOf9+Hm04nMEDHMJXQ2RiZjjJqkF7DqrTu9VC2HhFbIWx4qsjB26Dz+81Qu54QTazQmJClGIqZsBReDAckfzPfuryxh5Z47TUVJLi4KeuZ54PtfI86x/tgjPPHhxwldz5lvPI+b1Dz1iY/gQyCltKj8dNd56uZTiII4JCo6nhJSwscZVr2CkVr3XkubtdLysOEQMQZHnyOt/2Xixd/GYYgCwTAV8Ja7mnQKOssDqq1dLCmihi8c3eUus+EMMUEciDTuFuMdrrTZZMrm1g6PPvcM66eP0fvA6eziWekQJYFaduuk9I6WWM4Adbga8A4RiNMxHdPc/6V+E01jXCjv2uq13J+0FnnLw4coaI/+43+TVDxGrGqsVjQaxITFtLCE6RSEpdyLxSz7rF0QustdJEieImR7vcmvZ/PqJpuvX+bFL34DicrKyXWWj60SQkDUmIzHmOZ2ttoEPPfjDKLBvJ+5xRqdzfIdgG2BvdHGYFrwv/RLv/RL93on7le+n1vW9uS6PVwfNL7Z4z1tc277Fl1EI3Hrz5Cmz8l8WybNXAlxUARcglRNmuCiIU7wvsA0YZYtosV+OBCXh0p0Bz1Slaivjrj81iUG3R46rdi6cIXLL53h4vOv0qmF3vIgt7y1lAOdosw3Z2b4ssC5Zr+DEPpHkQAiPVz5EfLeGiKtbXa/cCv6cbt0onWtvE9aoT6c7P/evHTonP5Jpht/gVz5fVK3RA0cufAHJxg5EGkrPSDCTh7+ACBeKbuOWBkp5XFu16clFkXgkace4apzbF7e5I0v/QWdfo/+Spd+t6QOy1w7t4HWytLpNcQ3k4XmLWtFQcg+/I7HHOho0qQneixeRhnipL+4M2h5+GiFvOWhZJHqV66x9JG/zc7Wd/Gzi7giYCI0qoyIkEQxJ7ilHk4c1e4uLuXSfeeh6Aestiy273gfo+wGTn7oEY49cRTx4L3Hew/O6K8OuPLqFYbXJqDC0mOrqOTeMOKbIdBNOqIDVISUUp54JAIMUdvCsXQXV6/lfqO9hD9E3KxXiWrEqFGboLpD0i2SbpB0C9UdVIeozTDqRT/t/Dj8BVHijKL3KIMf/k9RWSdVNamqsSpmf7kqTg2fDBOH9Uv88hLqcmm+SjMirucpug511mSwZHIXXMEFT9kvKbsdfBEQny8mveWSU8+dwnc94+0pw7d2mY3rPFjCcs8Vs7zN1Fj8ToyYxs22Z7i0fc/Wr+X+oLXIeVj7OytmE4jXiPVlSJcwuwpphFiFkDAEZICTLuZXceEoEo6DewT8MvIg2AHmcE7prD6HPvMfsvvyP6SodjAL2WeukBrRFRXUgLKkWHbE8XBvULMIvlMiIaGzhMTsolH2qkH3/8z+7Py86DiOPXGEnfMjZuMa6Qqdbn9vFwXU5w6K0mxjfsw6BbNp3lGgHQf3cNIK+UOEanOrriO0eoF6/C2kfgNsjJlDNCBSNUG+ufAA4hA6qO/gpETDKtb5GEX3o5hfRRjcs890e3A4BvQf/2mqesL4u/8dpVaEFKDwoKBODhTtxMJhvS51SoRamf+TLwtC0SFOZmitTeDy3d9dRCj7JUceD4yujemt9XBhb+4n+ypIFy4h5xZDL8ziu2y95WHgoRLyh9Hyzp9ZcxaEjdDxN5iM/hRfXaS0GUn3BdYAc4KJYSaIFEiTFme+RtIEcw43G2LVearpn5GWfpRe8RFwqxiuCQTePB3vfmPRQdAZ4nqsPfvX8WmT8au/gsQpzgx8nnqvknKPcRo3VfaPkJzi3HwgBIh3+JU+aVbBtG7SFnlHsc/B/TBCV1g5vbT4Pf+U3DbA+4XPHhF8KDGxJl3RYSr5s9z/S95yB3iohPzdOAyi835JukM9/QbsfA03fomiseDqxsctB4b65nFkeSBwIM6XJZWY89kydAkkQH0Jt/1bVMXzUP4grvcM3q0j1kyGP0RkwQQhMHj23wffZ/r6r5DqDbxqblcrLHqq5CEThpqRMDQpwQmF9/mCJoLv9bFewqYVaVZD1APvd+P9OLhuKuCKAiv8YkllaRnzZVM1WoAUNKFQWtfK/cPd1JRWyB9gjClUl4gbv06afJMQhzjV3DVPFWkCaQcQXbhWzHlcY12bqxFfggsgEXMl4gNODew1pLpCPfoWsf8pOoNPNrnah1NUnO/S/8AvQLnG9rf/AV0dook8UcgL1iiqmYE1ZfQp5hmfzgg9j3cOBZwUsBQoekqazKhnVfa9885y/OvRZr6n73Vygy4EC4GwehQhgOWHk6MYyp4f5wGIXbS8J1ohf0A4KMiKyZTZ9CXS+f8DV18kaI2zSFJFVXOQLmULMTW352J5CHDuRyILv6xzDnMeTTXOBXABcQlLDnU1zjwiSkeGTDdfYzx+le76z+L9Mnuist8avV8FvnEJAd4PGDzxs5T9E2x8/b8mTN9EU56/uRe4zKXyooopKMYkVrhY0+v1KDolOMvuGB8ouiUuJdJoik0mJLO85tf1WFHZs+ZCt4N0iuzCEegsDZCyg4hHpUBcBwtHAAVrXSv3A/vPxbtllYs9RI7jd/uoh921cuCz6Q6z7T9Ar/4zTHeRmFPotBFx1FCrEDVc8tSTCq1qdJZzoc3yxBpfBKx0+E6g7HaQXh9CkSfDBw/iMV/ifMCkg/NdxDnidJtZ9QidR36OzsonQYrsjlmUst+vQn6QHGismVz7DqPn/zeqS18k+BxTEO+a3uE0KZyKpiagrDEPpeh16Qx6lP2y8bG7RcBUNaLTKqc51hWkvQuoCjjvCWUHFwIaHBQe3+vhV9ZJ3VWCH0DRg+6PErp/GTg86/ogc73GtEJ+B3jQhdwE0AmzK78Mm78DaQixhpibM8VkeANLuePfaHOb6eUZVhmaQMxQUbwn9wLxjuRyBWOnDNAt6a4t01lbRkuHeY9zASm6qAs43wHfBfHMphvopSnu9L9DefqnCd7jmoHBh0lw5sHiNLnE8NV/zuS7/xhvY0CJweeWtmb57kZl0aMlpdRkCSnFUsn68WO4omzubpoAs8uNtvJr9+X1Y02TLAHxSOkIZYF0BqRiFTp9gu+ROo9Q9P8mzp849Mfvg0Ir5HeBB1nIVSNiI6aX/x9s8zeIaYrEiK8dluqFkEttjDe22Tm3AzMjeMEVgWK5Q2+tQ+gFfOHyRaEhpYQmRz2a4KqEdRy9k0fxK0uI82jRwbsCFwrMFXhfoEWXdO1thucuwQf/I5af/LcpiqLxne/5cA/Lupvlu5jxm3/A7rf+AW70FuqbUn7N4utStsyjZCHPF8ws6JUmVo6vcuTEcYpOiQUWWS4AOL/ISJlb5XPmd0dSLqF+iVD00WIZ1/8JpPOj+WJ6SNbxMHMr+tEK+V3gQRVyM0PjJvHab1Bd/qdgFVZHNNX4GkgRqyOzzSnjixPqYY35RGd1QHetQ7FaZqEQyRksjQtE92WeuOxIJ6VEqmbUVhMGPfpHjuLKMg8yDh7nezhfkkIfxJi99Qa75y/SPfnXWf74f0DoHztgkR+2dVeNTLZeZPjCP6F++w+h3m0yXvYqXecWeUq5MtTmHRXrCMHTW19lcHSF7uoA1ysQH/amDrFPFPZNHQpFFy2WoeyCWyWs/CXofh7nlg7VHc5h5n7Wj1bIG+71F/H9YFTUV36T6vI/wSYXEQ1Qp8WwhDSq2Dp/jXo7IsnTWe6xfGqZsBxIBfh5rri9y9SbfTUnYomUamJVIz7QObaG65ZQlogvkdBBfR8rShgPmZx9nXR+B3v83+Lo5/4OvnOEw5Rrvp+5UMe4w/j87zH+9j+GjRepXMBZvde2IOV4REoJjTn2oDGSUiLWihOjLAPhSJ/Vk8cZHF9HemVTgp8LkGhy1sUHvOuhRZfxlhL9xzn2sb8NdHNPlkO2hoeV+1k/WiFvuNdfxPthHowbz15FX/kvcZMtUqrxtUKCVEeq8YztMxswUnCB1UeP0D+xhBaJ5LL1vf+zm9NFkyb2WXqmeuC9kyo+GfVkjHhH9/gR6BZI0c0WZuihoYujx/TK29TnXmF4YUzxyb/LI5/+j3G+yKJ1yFIU58eQSQ5spuoS177xP5Fe+VXQqvGRJ1DBVEmqxKg5iJwSKVq+ANbZYkeVOhlTEkvra6wdXaF76gj91WV8p8RMSFViOp5Rvb2DrD7H4z/3P+K7K4t9OozH7mHkftaPVsgb7vUX8X4wM9LsDOMz/xVh+CpWRbSOiBqxSkw3Rkze2ibGROh36D+xTH91kINtTb6bmFuU4wMkA6Y5a8V19ybP7C8a2mu2lXt4p9kUKQLF0RXEd6DwSNEB38O5Ps5mDF9/kcmbm4y2hSOf+7usfOoXCUX/0An5fhbHk9Xsnv8Go5d+men5P4XJRjP5J6EmxBixpGiMObOlqrE6kZLlbKEqUS96tjQ9VByUZUkoOnR6S4SyQ/n45zn203+P/tEfzGmgLXeV+1k/2qPhEJPSLuMrv4YbvorVFalWNNVQG7MrI0bndzFVukeXGJxeoeh3sEbAFwKauzAtthk3pgzf3KB7YpWlx8o9C1T3UpTnTZvmqXS+U1JXFWFY4fqhCdhFTCpUHBYKOkdPEDfGFKMhW1/7R8jKU6x95C+DO7xCPsecMHj0U/SOfYTJ5T9n8tI/Y/T6l3C6DTbGW74M6g1fnP3gvlldJefthxAoioJut4uEAcVjn+HYz/x9eusfWqz/vRaPlvuHh0rID/uBf33RT5z+BbL5B1hdoXXEasWikjYnDM/vYgmKlQ4rTx1FCt+I+F6/jjkHZkwOx9TDmuJEJMZICPkQMbev6F5t7/VmudildMx2hgxCIDWd+tQ5nHg0GcXKGp3lPtOtEXFnh50v/w8snfo4bu2xG+7HYWBvfz1Iwne69B/9DJ3HPkPnB19g+8v/kOrNP8DZFNT2XFaAicNZyr1ZXM4bB3AmSOkpfKDsdNDOEoOP/CzHf/6/oCur+bVmiNzYQjxsa3g/cZidEw+VkD8o5AyJEXr+1/HjLVLMvlcfga2a3bd2cSrIWoelD60hheQxYs05fv2U90VQzaAezXBBCMGhyuIWfp6VAYAXpMl7bhQF8w7X6zCdTilDdtc4VyNNdai5Ar+2SnltizSM1Fde5uqX/yHHf/I/J/jeO/brMJFn+jiMgHfgUcoTn2D55/5bxhsvM3rp95ic+zJx8w3i5oXclExivtAFjyk40Zya6QpcoYT+gHLtKQY/8DdY//TfopAjh3Z9HiTu1++gFfLDiCj1xh8h299AK0FTnXuBDCu2z28hs4g/0mPp6XWkEVUh9wh5x4zLpj1rboJouBiRXsBEDw4DFsHZwdaq8+fz7XnviTGisxrnBBFDXCPqUuD7fcp+h1lR4+rE6Plfo/f0p1h99q8gFHdv/e4Qe7nEze+UDNZ/gN7nPoJ+4t9lunWW2eWX2Dn/LWbnv8Xs2lniaAuJFXgj4fHdFbqPfpgjH/pJ1p78KYpTH8aHzj38VC2HgVbIDyGqu8wu/F+4NEXVUHXIJLJ7aRed1rheYPD4Gr6bO/HNVXf/sOJFh0Oum9wePEXhoIq4ScRSRSg8Vhy04m3/wATbe144T4oRFwX15ALG5DCn0OnBoEPojIgTQ9ImV//of2bwxKcpuo/ejaW7e5hrblYEJyWu/wiD/hEGp3+I1Y//AqIBJzPqyQY2GhF1RtnrUg5W0WIVXO5oKO0czpZboBXyQ4SJgiVmV/+YML6C1Q5LCWojbs+IuxHF0T+1SrHUzT3I5ymGTlhMP2jcKQZYFYnTmnpngk1mlD2P9yBE0mgHHQuVSBbyUGDO01taxvkAlkv/93sWzTtcUrQ2zBvOGUjCtCKUuV+L727jfCQlB7tn2XnhD1j/1N8AHgzL82CBzr4GSuQsoHnCiUiJL5dh9eDrD7768PptW+4e7eX+kBHjLrL9/2EVaDRQhSqye3WIqFCud+mdWM7xt33TZObMLXKXjLg9Ynppg9nla8hsii+EsutwHY8rHCE4XJEfQQKuEnYvbBJjbLbjc7+Q69015LxzSQoxt3g1rTAzfH8J6UrjO/dInFK9+rvU460DlaQPCvvvgq5/vJfXt7S8G62QHzYmZ7Dd1wEwEi4qwysb6EShENaePL4vo881vU14h4CMt3aIm7sQU54cH3JnPikDMQnD3ZrN7QmTcUIpMSkwhDiLlGV5YJv7xTwHNnMwVFURM5walirUpvhBF1d28gWiyaAZXfgWaessBxq8tLS03DKta+UQIQY6fAWdbSNWYzERxzNmV3N2Sf/EADrZN7tIMXRNI6YmoOkUqp0hTCoIHhKM6wothH6noHRCmiosLXHqqRPEGImTnN6Y6ilREhJkX6qWy/1EhDz/N+VMFhUWYo4qWEA1EooOVuRWuHkYpuBmY7Zf+g16pz+N5vEJrRXKvWvA9LBys8ZXh4HWIj8k5LmPkbT7LZxVxFqwBNPtCpcM3xGKI8U76mv2W8rOIE5nxGmFBE9ysDMZEXodHnnsJJ2VTk6HSwlfeiw4Qqeku7ZE79gqxbEV1p46ddN93P9eeWqOHuiBbmaIM1xZImFvn5zB+LXfw+KIQ3gOtbTcc1ohP0QkHVMPX8iphkxJVU01rBARwmqXsFQseqfsd6MsfhrUsyoPBy4CVVVhCGtPnwKzp7QAACAASURBVER6uQOfc46qqii6nb0cc5fbtXb6PdaOHT2Q8bJ/+9djjYCzsMwNU8F3ulzfsM/tXGVy6Yt3ZuFaWh5wWiG/z9nfGrXa+RI+DsESzgJpFiEmrDS6RwIez3zmZh5mL+DdIh9cm2RE73NeYKxqVk4cRbzLA4NdCa6kqiqkbHqwLHpk+0bQydkvbk/kgXdcOOZl5PNBC/PPoqq44Bdj5OaIJkZvfPFgm8WHkP3fd8u94fsNUN8LWiE/JJgldPM7mEmWYzV0kuduui6US91m9mbmRhY5AMEjRcguFDPKfhfHPLslgDhUtRH7d25vfw76jQ7s69/TWZ48JLon5uJ9nmW5vy7JYPr2d8AebiFvaXk/tEJ+SBCpkeFLByy2epLw3tNdGuDCdcMa3DtF1pzk4Q/BI0XJ0soydZ07HYoBPmeupJQWFvONrJHrn99I1EVy5sr+EWYLbrBviMLwEmm28f4XqaXlIaXNWjkkpLhFqs8upq6LGVpHikLorfVQ0ez+aERcF0kreyJrAhJ8Dig6of/IOiqOehZzrnmAaDPKpR6+DHvzKHGLZk9Z9D2YIuQUyLkbxZzkN0nNH6vl5orziv6kOchpLC4e2gi84iiJ1MOrFN0TcIjb294Kt+o6uZ9v51vuH1ohPySkegtnAbGIGdR1RExJQZFBM23nXV5vAobgOkUW2Hkmi/g8HUhAvCOsL/PY+kch+Nzcad/rF4L8PZgLO2TBco1bRdhnmd/QDzyF2bDJY3ywhbyl5XbSulYOCVZfzU3BG2JVYwF86RdDIt4NEUG8Q4oAwVOnmH+fu0acw4eQLebCNUU+Hu8LQggMx6MDLpQDDbWue5933Y/550k36M4tM6Ta+Z6fpaWl5SCtkB8WdMSB0QQxUYgjlMViWPL1vFNUHeBwoSCZ8Pa581w8c46tq9fy2DHvqLbH1KMZKATfQXyJhT793ioXv3smZ6EIiwyWGw5LIKcezkvus+Af3PfrJsdhojhzxDR7AAv13xt3Kktif3zlRo+Ww0vrWjkkmE6bZkwxBy2j4pzDeZ9/f4/X5N6gT7//BFpHJlUFoQTf57U//BLLp49w5JnHWDnRB1diztEZrLBzbZeVnRH91aXFdrLY2AF3CpCzaZpq0r2OATkfPVV5itH+v8/ufd9UfLb2xe3GzDBRokVm9YxokcJ7St8lmAdc648/xLRCfihQnE0xkQMphjgDL6iCf48u5XkaoeuW9FdWEReIVUFdwfLJdZZWBjm3PARwBRYjcZqoRxNsn5Bfz1yc92e+XJ8zbrMZpgfHlZnLU3Py762Q3wm2plu8cOXbXJhcZkaNmbHqV/n40Y/xxNpjiOXuk62gHz5aIT8kKA6PoCKYCOYD6upFT5WciCILt4Sz3OsEf+OTMokgLmBqmHl8WGN2dRNwFEt9aIqEkALEY95R74xy9orZIiPFzA4ELnOPlVyej3PNoOe98XIOQ8f1olBI9vdK9wFfDu70Ut4VbsVVcTcEc74f12ZX+OrFL3NldplxrKg1UWniLS7z0s4ZPn7kY3z20R9iJaziCa2YHzJa0+eQIK4DzWBeE1AvjTtCbimT5HqcgWncs4qdoxrNEBH6SwMMEF/ifJfgAttvXcRFpeh23tWHbWbEGPE3aBMgIlgdqccVMe45yefB1lgWWLnGzT3vLe8VM2O32uEb177KldllZqkiYdSmJFNUYWxTvnblz/jVV36TV7fPELW+17vd8h5phfyQ4Hwv+8IbV0UoiwN9xuFWrMCDs9xFDYfiQ+5GON3cwTdVnyJC0V2F0EEVzvzWn9I7NqBY7X9vay3pYj/nj7mQx8kMrWrSvqwVc4b3His8RW/9Pa5My7sx0THfvPI1Lo0uES1SWbbEkylJs5ibGTWRV0dn+eev/xZfv/jtxevbIOjhoBXyQ4FD/QAJxUIQyzJgLvuZnTncTcRV1MAJvtsH8SRxJIGEYb4kug6EDhJ6jDa3KZa6aOjgV05B0cPMePNPv061u8WJjz5BCHkykCwee+X3yRQXFdfkqc8FfO7bN3HEnSH1rMI1aSvJRcQr3hmd3klc73RutNXyfTOJI1669h3empxFVanVMBNEBU0QDWKe/YE2GU3baZd/+fZv88sv/0uuxk1U46Lx2UOfTnQf0/rIDwk+rFM3RTsSPNIp8DSZImqY3djnqgIuFNjyEcQcoarQVOFcIKWEAD6sYOrpnjjOoP8Y5crjWNnBUuTCV77N5gsv8thnP8zSifXGR/7O/XPNua51c+IX2a9u3qHBIcEhSYnbY6xSSPumFnkHhRAeee7OLeBDwtyCjlLzxugVXh//BXWqqFSIpo1LxRYW+bzkK8crmm0IfHv7ebZe3ubHTn6WZ1efxkvIsRDaYOj9SCvkhwQXjqBeCN4hyUFZIC7HHfcHDefBx710QMH5gLoe4jpI6SnEZ8uMiDPFhyVqB4/+yCea6T+Oyc4ub/7+7zM5e5YTHz/F8WefyNuc9xW/wT76ZNR1xHmXLzj7Hy4QhzPiuEJrxcyT0xazW0U8hNOfve+7zB0GjJpzO6/y4uYLjGulAmoilSpRE8kgYvmu7AY55GIOE+PM6G02zv4On17/OF949NP0XO/efKCW70kr5IcFt4Z1HkPjG+ASrhCs65HKkLqZ2uOysZxdHfnkdA5MPCAEOth88q8r8tQgHNGRe6cEz3Q2ZvP5l3n7K1+ltIonf+xZlk6sgeYin1xEel0zrOZnnM5Q2BNv8U1HxdyfJe6OiKMKS4ZoQnCYCBQQ+6ssHfvsgcybw8y9uhgpiavT87xw9VsMtaJuxromJQ/5MKNWJaW0Z403u+r2XZ7ndQnjesgfXfwSlyZX+Mknf4zjnXX2t09oL7r3B62QHxKc9PD9j2Gzs4g6zByhX6JxSoyRYE0zrOtOLDNjtrvD8GpFJwwwPCYeL4I6j186ysqj64yubnL5S18jbV7FhYonf+AEq48fxwrfiHWT6WKGsZd6OBfyWNV5P0JuAeD8nmvF+RKSMtsYESc59dA1YuALhysCxakvQLGEkhZzRltunblVvROv8J2NP2dXp8TGAq+bR7Is4PtDEGY3bqAz7/ogACK8vP0aw9dHfP7Ep3nmyNMUronXtN/VfUEr5IcGxQ2eQ3d/C0keMSX0OtS7M1Kq8VZys5ZWHmGtV1BPd4mphmjMZmOiCEvuQxCOU1/bpHrrdZ78Sx8hdD0Ulq1rFHDNUIi9s1v31dhbUrSqmw6KeUScBYcrQ/bnu5J6d4dqc9S4VWy+Y4TgCWXB8hM/TswNGJuUyDu5lg8mKSW+e+VbXJltZBdKysIdU0Itj9yLTcrhotXCLZAD6cKF0SV+/c3f54d2P8rnTn+K1c4Aa9pDtJb5vaUV8ltgXt6sVje3nE063V08iEWMsv+DTOUozl/L2SplB9fxaIxIipgPgF9M4hGRpqOs4anpDAIl806E6ygT3Olj4AJMKspBSbmUDwm1xuvevN41c4fm1vl8XUSN2WyGV0OKgDRiriFn0qhzeCfMzl9FhxGi4DWQe74IvvQUR0/jj32CQsq8vq0mvCeURCTywrVvcHlyZRHUrMnCndgX3DRbxFW+V+ByXqOQWw3nL32URnzx6je4uHuZv/LMT7DWWSNIACMHRFvuCe3K34RsNWarc6YztqbX2K22MDM6xYDlcoXVchVw+Du4jHtBS4e4Hr73AUxHiEWkUyCDLmwPiVVNCB4LijVzO3Ee78rcyASHmQAlIoZRAeRKSulSjacUS8UBS/vASb5vws/iZ9I8AzQqrnGpSBmw4AmhRELA+Q7V1W1ml4ekmUICcODJ4+TKEn/ys/jusffcL6YlU2vFmdFLnJm+Tm2JOkWiJmLSvcIfy8HN3Mjse3SoFHnXVEMz45XJWf7P5/9fvvDYZ/jYsWdZCv3b+6Fa3hOtkH8PtmdbvLz951ytLzCuZtkSdoFlv8TJ3uN84NizLLHMnUzJXwiqedzgY6TpayAzMChXBsTdMZoSVkecFKQ87gcnBWqGEXO+NwkwIgkvCXMFUnTBCtJ4Snf5YHn8gWyG67MbkmKzGl8lCAEKjyuyiBNycQ9FgcyU8ZtXSLuxEfGcEhmcwxeCrfQoHvspRDp3bP0edK6Oz/Pa1stErZmlSNX4xLUZer1wqSyyVN65je8l3nNynARA2E47/O6bf8LZnQv81JM/xpFy5R1Fai13h1bIb4KIME5TXt96niv1OUYamwwAxWlNZZvs7G6zkS7xyWOfZ8mv5G4od9jNIt1nkM4qMhsSgkGvR++RI4wvbWAxIb5AQglSYJq7CZpGEMs54BoJoihgYQBuOWecTMYsrXcXk4BgXzBz3++i+RHrGmLaqwQtAlo0fvEiYN7jrGB2+QJcGWJ1bPypDpzhSiMUijv1WTonfviG4tJyc+bfy1h3+e7mNxnFCZUayUARzIRoRlKojUX2iplkg7xxmyxaPFiOpdA8n7+HkS+8By7iiz8zpkz5i63neWPrDH/tmZ/hg0ceR3DNudAGQu8W7eXzOubilSxyZfwWV9IFqpSoI1Qp5mZDlogpnzTXJht8++pX2JhdRkl3vLezlKex3gcx18N8QfIFsrxKcewoSqBOuYJSVUla7+swqGissaRYzAORvcL48nlGb7yBjXYJZeNaSfkharh92SqihsWU29AmhcJD4dFOwEqPCwHxBbgO3nWJu2NG564wnU4XTbIgG/ChE5C1E6x99D/hlqNuLcD8GE2M0hbfvvxldtKEOiWqxhqvUswBzqYnvN7kmLydRseQIb/82r/g9978ElvV7uJcaLk7tBb5TZilMReGb1LFmqo26lRTa1oIY9p3C3ltcpU/T1/jmdWP8+jgiUVq3e1GRPAskQafQUffxGkXcR6CUa4G6lrQadW0IEyY1GiqwQRxIKaL9EQxsNku9atfJW6PWD0u+K6/+a13MyNU6zzfU4LPg5y9x4qA8x4pPBIK1JVohOEb56k3p2jUhZUnwSi6Ht8t6X3k38OvPtG8Q9so671QWcXrWy+yMbtCnSJ1iiRrCn5UqSw1Vrne0Lh4LyJ+I0G+0f8bW82XLn6dMzvn+PFHf5Rnj3zgjsaPWvZoV/kmXBtfYrvepIrKJNWLRkOLnOrG36hOMW9sVds8f+1rRK15cvmDOLv9RRM5WCmE8geous8g9hKOpoVtv0M4WTK8fIk0m1KW3Vy7l2LzYjmYY26GSU13YLh+N/8/Ry70OfCezR1KHXNBkHfgHCEEpAzgJPvGvcOHDlp0QD27L71BdWmbWGnu7aG553hZBEJHKB7/JP0P/VWchNYgvwWuF84L47O8PXyDSmui5syUuS98Lt7JLDfG2veN3o5j8WaWthjUUnNudJ5/+sqv8eOnPsfnH/0Rgitu6/u3vJPbIuTvdgt1mL64eabKTCvO7LzORKdMUs1Uc9e4qHufNRgEL1iKJIyOGeYTL2x8nXHa5enBh+kWPVyTDnhb10ECYe0XSOl/xcm1JogJ6pXesePE3Q1sqjgrUSZNIOvgd6RpsTFs7hhPN7a8UkqICKEsc18U7xBfYMEhHiwUiC/R0EFxTM9coLpwjTSOaDScecwpvmP4bsBW1gkf/kVcsZ6nAt2+lXngUWq2J5u8tvUCU6upNObCn2RUjXDPrfJo7JXhN4ssN7rbkoO+8ZtxS64ScyQHQ2b87vk/5vz0Kl84+WlODY4fEPSW20trkV+HkTg/fJ1d22TWiPjUElFTEyxqBig4y8UtwWFK0xLUUfmal7dfYFjt8MzqD7DWWb/trhYx8OEJdOnHkZ0/QGyIpQpCB+e6lB4Yj9BZoo4+D3kQPTjb8xYuLKp5XFtZlphrBkX4HNxUH7DgCHgIPcwHgjgmZy4wfOM8aZSwKDjL496kEHxP8P1A5+N/i96Jz9zWNXlYGM6u8sLm1xnqkKiafeKqVKbElHJ2SnMXpU1sQ8l3kTcyJu6EoSUGTozojG9vP8/bkwt87vin+PSJH6Tr2+ykO8EdF/IDcxnvU+t8bx+VSRxxaXyWcZoyipFpqpsquWyZziP53ntUBCJoMLw4LBqlCqozztk5hrNdfujEZzlSHls0tXo/on4j/6aZ4XqfIlZv4KcvImI4zVnCFrpIP0In0dECrSZUVbVoN0uSxtPSNNq6/v1c40cPIU8KEsG7PPzBfO5dnicUCUgHCQM0JLZeOcvslQuk4ZS6EpzmOxxXBFxpuG5AnvspBh/4RZxvrbNbZf79V2nMy8PvsqPbxGTMLAfe09z91RT+RMtdDePcNy5723m3MSR6wPNmN3z+frg22+RfvfV7nNl5lZ955uc5Qp95iOl+1YTDhthtCC3f6ibu1y9tYWWTeHv3Fb6z+WdcqUaM6pppTMxSvl2d+x7nY8u8cwRxeHHNcyidx4ujdJ5u8PSlx3NHf4jTy0/Qcc1MRN6bO+FGF8N55kKsz6Jb/wyXLmE2a3rJVqQ4Aa3yEGRNiEUs5V7hqkoyOXAByxuf/ywAbYqKcj8N78ij4bzHXAE+YOJxzqN1pDpzju3X30ZHkVgblppxc4UhHUdYGlB+6F/jyKf+M0L/9GL7bYra90YxolWc3X6RV3e/yzTOmKXERCOTVOcMqtSIehPojKaLuaj7yQHzGx99uk/w93M7sk+ya0c55o/yE49/gWfXPkg/dBf7dL9qw2GhFXL29n8Wd/nzq1/h7PQtdmYzRvWMqSp1zLew0bLQzQ88j+CaAQoFDh8EL1ncgxe6LhAEBr7PB5Y/xIeP/iAd17mNQm4YNak+C7u/jaW3UB0jqlnMU42YIikimiBVcF0Ww/4KVqQRbwuNxW6IeEwcHo85Dz6AC4grcA6q3SHT195g+tYO1WiaC5MaAfFBKEuP9EGe+hzrn/77lKvP7o19g1bIb4GamgvDN3hp83lGaUgVa6aq2e2Xaupki4ZYlSZqbi7iwLsK+a1mqADv6ne/8d8rAgyky0fXPsyPPfZZjnaOArSFRN8nd03I71cRhz3r9tLkDF+//GU26wmjesYoRqoUs0VuekNBDc3kdydC4bKoe+foiCwEvRRP4UtOdx7nU6d/lIHvvac+LTc9kfZZ1JrOoqPfReNruJSwVOfeMJpyFabWeFOMGrOE1/0Xg4Nl+boobFLEB4Qs5ibNc1/izDO7cpHpi68x3WjK72O29hGPc+A7IEsBPf0sj/34f4/1TzfCrftmebZCfjPmx+W16iLPX/ljdlNkqpFZrJmmxvLWRBX3Apy1sTA43quQp5tEO28o7nJQyG9JzGVvv7x5losBP/30T/Kx1WcRn4+DppPRLWysZT93XMjvZwGfY5ao0pivXfoT3p5eYreaMo57t63VPrcKHKxfcezN0Zxb6IXLbpcCt3C/5FYkwkl3mk888sM80j+Jl1ubVn4rX5FZQuPb6OSPkPg6xBlqCbEaSxHTGjEDIpjlSffz7cre82yRNwFKEUQciG+yS3JcQEcTxm++yezM29SjGakyVF0uIBKDIITSUy73cE9+gSM/8vdg+amF1dWeqLeGkhjVm3z36je5XL3NLBrjmMU8qi1K8evm+Mx55O+syIWD5+GtCPmtysI8I0aMA3GXWxF2M6MvHX7kxCf54ZMfZ71cu+VzouUgrZADySreGr3Ot658ha1qwjjGhTUejSaV68ZCPmcu6EEcAckWqcv+c+egKx4fjMIHjvh1PnzkOT609mHKW+gxcssnFTVmQ9LsOzD9JpYuAQqa88md5awcNMHCakvNa/PP3F/aLU7K3I2wwEkiDXeZXrjE5NxF6q0RaVphKZd+z4uEfUiEriCDJXrP/QJLz/0ibvAozoVme+8WbmvZj5L4zsZXOTs8w0wrqpgYp/rAXeK80jhhpHjjiT9wZ4Tcof8/e2/2ZElynXf+3D3irrkvlZW19r53owE0SGIhAA0oGsmRTDKbkdE0MpONzcs86GHM5i/gXzBP86C3eZixMT7QOCNRlGjigCRIECAECCtBdHfta2blevOusbj7mQePiHszK7Mra+uuqu5jlpbbvXEjPDyOH//Od75DPY6YjpokeUY/z6sOfseFW4pXc6Z9mi+vfI43Fl+hrhv38+bPjPtkrTxLJbeTsEQqKdd7V+i7jNT56iFxBApXOcHHSoRHH8/isUBcREZOeYxoUJ4YjXeWLb3LYPPHrCW3eG/py7RNO1RLlqqFD2gKg1Kz6PqX8PGLSPIjfP4LlLIo5RCfBeVDCR16xm8soZWgPT55PIB82GNw7RrJ7XVcN8ENSweuqldCKL1XscEvnmP6q/8rs6d+AxXNIDzcdX2abHJ+bYyuc7t3jcxnpGLJirL78jWu0Bgf68Pvn59CTsPERCgS76tkpi/uq5a74ZTj7f4Eo4SFRp1X5k9Q04YEWO/3Wet3SPxxq3TDCXkF1wc3uXN1jRuDO3zr9NdomvoE/PbZ3LmX3VdE/rRH3pM2yVS52b/Ez7Z+yFbWC5CKlVCar8bqcfc6zqSViVBTdJE3SIBYtCHWhoiQFI3jmFOtFb6w9B7zjUUiiR9NBl9KJ+3JR5fIk+9g/CZIBjpQD7UHJWNnrsQHsSVnwWW4PMN3Owxv3ybb2sH3Rrgk4O3eAa7E0QXRgokjzMwCtfNfpP3e/0Rj/jUMTcpE6mdY+PEs8L4du9kWP1n/K0YurRKbmfVkLuiM596RW0uOr6o3nfgC5vBopXhlcZGV9gzKQz/LuNnboZtlpEXLt3LRPiiUdtg5lRYpTTOOODM1y+JUi4YLzCYA64SddMSN/h7dNN1HZzzcisS9AsoFSgxnplb5x+e/wrn22X2886fNx3yc9ql35Lkf8eON7/Nh7yK9gg2Q5a7CHydf+1HHOfizKbFzpQLHW2tipTHGVMyWIJMiLNUXeGvhHV6ceZXY1B6hIwenLD4fYpNfIqPL+NH7SHoHrQ14CbRE7yG1uDTBD4fIoEfaG4RGyaOgr+IzQQrKoohCS7g+FXmYXqD13Fepv/KPaZ79ElG8AATnXTqJp21+fFImIgxtl7/f/jF3hlfJhQlH7sidhPZtEpKdvigKKiVqA13U8sr8Es+154uqXI2gyfGM0pS9NKGTj9jLMzLvqsR7+fkHz0fjaZiYdqPJYmOK+XqDdpGcVLJ/F+fEM8wta8Mem6MeI7H7CtG01lVgZEyEc+O5qiVE51pgKp7inYXX+fKp95irzYTP+mwOHWmfeke+ma7zNzf/gp28y9BaUm/J8vCglOXNxz3WQUcOBc6spcLQDSExGhlDrEJzZKM0LdPilfmX+fzil2iZ/SL99zu2MuHIKzzfC5AhrkOa3MRf/f8Y3vpLSDchtUjqkVTjsxybh12IzsbbeO81SMDOvQrFQnFthvorX2H6c/899cW30PU2QlQ83EGF8TNHfnwro/FLOz/jQv8DEpuSizDyIV+TuVCKX2LjpYhbVnwPTBLP6dl5Xp9ZRBVOUildJSTLzykbToxyy55N6NoxH11EiBQ0ophmLWbeNGjVYqJih3mvZHU4PuzkfW529uiUbQCBKIoQ6/AKYh2R53kVuQdHPn6GtChW4xP81vO/yfPzzxFPIMGfzaf99ql25B7H361/j4vd9xnkKUPnSG2OFYIM6AFe7b2u8V7jEwqJPDVlxonR4stoTc1oTrfP8hsrX2O+Nlu959GxPDxIiN4sCj3aZHDj+3Qv/4Bs6wJmtIEaDcDmiHgSVTASMES6jo6a6FoLs/QizVe+xtT5r6IaK0Q6rh7UzyCUBzePozPc4Yfrf0lfBuQSitESW9AM/diJ26J122TjCJRnrtnk3cVV6gJijncvlBR6aYDX4XuIxPfDLhp1bIEzp0Ih0zBP2RgM2U1zBjZ0pYrL3aBSoRn0RMA06cilYFO1VYuvrr7HuyvvMBtPVdXRT5vPeZz2qXXk3ns203W+c/PbdPIeQ5cxskW3cc9dvHF4OM735DGUUhglFcQS2C0QaYh0zHx9jncXP88Lsy9S17VHqNXiy5PEIeOHVCw27ZJ213GDTfyoi3cjxPmwg4jqqMYUamaF+vQpoubcvrEo+5d+VuDzcNbJN/jR2vfp5Ttk3jEUG0rxvSe3tgowXNGTs6o09kUCO1a8d/IssyYCEeQRBQDlnL4fRy4ECqvGkzpLJ8lY7/cZZhmZCc5cCZVmel4l3w88P2UiXgznps/yleXP88pCeC6eNp/zOO1QR/4g7JSnbVCtT/nB2t/yfu99Rs6N+bkSknkfleCEo6/3XsmiyUx8pMPDoXWgLEZaEakIpYW2bvDq/Gu8t/Il6rr+iKKQ/YUid5+rrl5z1zWUxR/KVNDJYfaZI38wS9yQn23+gJujCziJqqIf6yU0NLEWh6pkam0hW1s6ci05r507y4pugi8Lrj65Z3KyWCgUnWkG1rKdptwZdEmdJdIm9BcVd+QCUcFBRYTf1nU+v/w5vnnmy7RV81PPbKnqP+7HkT/tgzXmgXu2h5v87dpfcCfdZuAcqRVSZ48U4j9oDyvMXx5jstQ/LnRalFJECHEEq/UVvnLmN1msLxFT+0yX4hk0j+PS7j/wq90fk0qYh6nzZN6S+RCtlh1/ckI0Xs5R7z1GCecWFnhuappIDJ+kAz9oIrJPUyfzjk6Wc6O7yyhLSYseskfxzicdORQUYK9ZbZ7g957/Bmfbp0N0XzwTj6upy5Nq493Sp9AsKbcG19l1fVJnyZ2vEkfHtaq8/cDX/by/xDfzorw6dSHZGlgJkDrNrdEd/uL6t3l/+x/IJH2Qy/3MnnDrj/pc6H/ASLLQPFkcmbcVFl5WbZZUwxJTLiPy+VaDc1NTRE9ok6XJas+aNizWarw8t8xys010zKAk4PgqyAFoz3q6zh99+Kf81c3vsZN2H+fpPxX2qYzIe3mHb9/8c9bSTQZ5GgqACjaAK4WxHrD26bAxOgpuOVjSXEbbqojOYxUUFSMNDdVgdXqVb576BjMFHatsWnHU535mT77lLuN717/Dhr9VOXHrHLkrtcYDOlmwuwAAIABJREFUP7xc7K0q9MULXDzC8eVz52kSEoioJysiL+ez98UzpcdBT+Itl7td1kf9e0KZR5lRhpXaEt889xVemX+emorvS8foabcqIn+YqPJpNFFws3+L7WQXa23oM1xWcd6rRcoD2qSDnvxbFWFM0MLKr0rJzgfu8NAmXNm7xp9e+hNud29ixeJxR3ziZ/Y0mBPLP2z/nHV/s6D+hTJ758Zt26RITIcKYxAJ6goWwWh473Rw4iWE8eRYkL8SCYnwkn4bahfC/K8rw3wtplYtPvf/5cRzO93gjz78D/zFje9XjZ/h2apEv5d96joEpTbll7t/Ty5lC7eSL/7xfP7kw/ZRiVGLYJwgWuO0YIDI56zlG/zHa3/OW8tv8trCq8zGM586XBA+6iEtI7sJqYGHcHCPa8fjcawNb3O1fyHwrovCnryEVYpGyhZFLhNwioRwI1KKF+dmma7FiJuMwR+3My/H/aM/Z3K8yk5Tk1pFoiCjoFZ+RPL8uJYpy9/c/juudm/ylZNf4NW552mY5kMf92mxT5UjFxEu715mO90mcza0bnMejw9Vi48gIj+Ud648Ig5jDM2iCCKXQNHSxcsP687iFHjxuIJzaxBiB7uqyw/WfshGb433Tn2Jk82TaFUqCz67Tv2oKtpgHlRe6OHoQL8rvhQejZt4ncdrU1Qc6rCIS4RSQqnJLoBXBpSgxRfNtO9OKT2Ig/cIAzfgV51fkLhREL7yHkuhe1+U23sRvAjOO6Sg6oVAVJhv1jg5MxecZHFeDzt7J8fUKbA+NHAur7NlYhAb5vO+8v6jxyAwVgSR4MwpnjPrPZ3hkK10hPUPurPc/7ke4Vr/BptXNnl78TX+0dlfZzaaQqtCCE6eXYZL9Cxe1FGWkvJB7x/IJFSxleXmZen5oxwJUVQLg1Ke1Vabd1ZPIxEkueXy+gZr/RSUwh1F+SsdUYkzAiiNKMFj+XBwgzuXtvnNM1/lxbkXiHX8BG6xH96EYixVqFpVAuJtpbfufBeb3CHv34ThGqp7E5usYbM9fN5F8hTls6BBgi/gLI2Ja4jRuPocqn6SqH4S015Bt0+h28+hW8sQNUHFYOooSonVSZpm+fvxLSXl0s77bA82cD60ZLM+QCoWAtwX5N1xPuwWy/ZtSgRjhDeWTxGXUgnHJXcfNb5F4Zt4GLic26M9NoZ90lxwqph/AjU0i+0mZ2ammaoFyqxQqyiG47GhwMXLUnwTulJ5X+x8FUmWs5M5+qNkXyvZ+zzz4vt+yHLoEv5u/Wdc2Fjjn7z+VV6eOkNs6gHmKRb6Z+UZGefYPkVA0oW9D/nO7W/TyQfkTgV+rowd5qM0X0zOyHuWWk3eOLFM3eoCxnH4SHO7P2Ctt0fPOryoYyVYS93zWOnwszHUxfDG3Ku8ffJtTtRPYNSzRUbyOLyk2OEW+fAmqncbeteQ/lXc8CbZaB3ckFgcoBGiQpKAom9ooJyWu57JfIWW/Z/kFVgVeM+qNoVpnMFMnySaegkz/TyqfQrTPoOuzR5w7Me3q70r/HD9r0l8hvVSUA1dleicTG46gkJhCT80xfH26TMsxc2jKP/3bRZh5HPWOx02RiP6zu5bHMqxEiWI8oBnpl7n1Nw8p6IpahVsYiqF0KoxSZHohGJBlnAtW6Mel7tdRnl27CKj45hSuthlh3xDTWp8YfVNvnz685xqLQMajXlmHHlpz7wjLy9vZAd8b+37/LLzy4CNewl0Lvt4EryiQjn8yVaTN1fOEbmc3E9ET8rhtWLkcq7s7nInGewTLzoqTKm45wKRKIwxSKSJtWK5tsivLX+BV+dfIdJPV3Pju2ETj1cZ+fA2bu3nuK2/QwaXcekOpH2UTwsn7AsanhrvYIq+pN4pvAtORhXHFFfqwHi8B61qqEihY8HEhthEGFM+5BqJPE6DaIOKmujaLLRXiGbfQk78Bu2ZN1BmGpQjbBn2SxUcnFu9dJfv3/4uW/kamZdQdu+ETCYaRDhXVW66Al7xCoyCV+YXeGl6HlfI1j6seYRennO9t8udYZ8wPEcdt3TkwQyKE80mLy+vMGPqWCtoFSE4vLcEXzmREyp+HOUZ68MhFzrbj8Whei+hd6kLY6mc4URjhf/m/Ht84cwbNHStgqOeFSjyU+PIb6c3+LPL32Y33yP3QYio5OHuGwK1vy/npP6zutdNn2hlFWvF+blpXlteJRtmAZ+T/SXOrgwHaxFruztc6GxXVXBK9D0XmKiIypVSoTmyUtS94a2FN/nqqV9nKm7fVZDxJFqATgoevzjEdcg7P6V36Y/xGz+jafvgTEXXLKO66v0Fp5pC9x2Krb02lcQqEKJ059FW8NbhMiHPHOQShJwkOBsdG2rtmGYrJm5GWKNQsYFirJVS1J1F6hGj1gvUT/1TWivfgngGMAigdVSdG4Tj5j7lF3d+ygd7v8SKD468pBwW2imZOHzRg7Okw3oJ7fhWmi3eOrlK7Kkc0cNa6jzXu7tc6e+FXEzx949ysKLKasIQTMyaOr/x3PMgNoyhFGBYNX/Vvvf20pwbgx7X+h2MlJ/3INez//moGF9eyIvF3Dohsx7nPLGL+PrpL/K7r32VudYMsZgn+rm4H/vUOPK/Xf8+/2XrR6Q2J/djxbjJ1wAYJZxuNjm9MI/Sms5wxOagTydJyOHISBkA5WkbYa5R5+T8EvP1FmS22Obruxz5+GfBac9OlnFrt8Nuluz7nJIWeWT1W1Hub1QBu+iYM+1TfOHEu7wwdZ4oih66acXjsSCBKoDzPZLOr7Ab3yW7/Tfozk1iRoSHtTjvYkwcCqU13oxpnToyoCO0BmV04fAdTh8YN13CBOFXJaBzyPMcm1rykcWOclzicbnDWKg1a0TTEVE7xrRq4bOMhwi01PFGoHkKs/Q1zNzXqLWfR9Ped6VWw63BJb5/+7sMfYqzUmmLZ85WTtx5DwUlNp+QVNBa+I1Tp5iO6mE05OEdkCjY6ve50t1hJ8vgANZ8mCkVdoGlSmItinHiaQt87uwqM6aJcx7Zx0TZ78i7ScaNvQ7X037lyI/aBXz0nL3bkTvnsM6H/IJzOCukrqT0BrjluenT/N6rX+ULJ19hutausPOn2Z55R+69Z+iG/N8X/5DdtIN16q4enJUpz3KtzlsnV4hFBT6qism8MBRLL0/ojgb0kiwwT7wjUpp6XGOqUWe+1WS+WadpYpTV4ygxHPyuc9vnyHF4bXDi2el2udztBvxeTbzOy9HOXJfMFoVREVpr2lGDd+Ze4wsn3mW2NlXtKD7JKGQ/M8KD97ju+2RX/pB89+9huA4uRwctPgLbYMycUJFB6QgfaTDjHUnxgv3JXnP3AljhvRM7sVCooihBZ+89KlNI7vGpZdgfMeqMUKkibtaITzaZWpoKtTdaoVWENmCjGr65Sm3mPaLlf4aO5lHSQBT0pMd3L32bO/YO1lOpGZbOu8LHEbyXCbqhEInj1XOrnIvaBZFc87CwiqgQjd/pdbi4t0MqcqwoP4oijNIV0yQq5mxuLbM1w7urq7RUdCDgmaAi4umlOTc7HW5k/fH4P9D1jOdFGYk750LSWAJsaos6DF9AWNYLuQu9Qt878zr/6o3f5sT0QiX89rQ69GfekTux/Gj9Z3x387uMXI7zhESS+LudovK8ubDIarsdKtEOQCmx0uhYQy0KAv4qNI3w1uHyHF92kRcDEoGyxz/Pak8raIGez/jl5hbDQvoT4F4tVyYLj7QO1MY6sNpc4lvP/xarjRMw0Xbtk8AHq6In5XE+Y3D7T3AX/w/q+W4R5d1NEZu8JrRGIl08wqEfavjRUPUf1Wr/WJSsCoE8y3BpEmghfn+pexRF1BpNVCMKybJiu698wN3z/pC9W3vYHYdqa5ZfOkFtvgVGo4xGlMIZA7HBNd6iefpfEelXQSu+d/s7XOhdwHpPXuinOCm44/h9WipSnK8vFpazs3O8Nbv0aO8Dmm46YmM45FJnC6/291L9qIi8GdUATWYDPBnHMVZynLMstSN+/ew5/MgB0V0KjCW0crvb5cqwE44pDwqtFMcs5pR1LkTihQP3PkTl1gdoxTpVPP9l5O54fm6V/+23/w2NuPlUJ0HNH/zBH/zBJ30Sj8tEhD3f469v/TV9OyzkPycqONX+OGDaGF5aXkYd4sTD8cCKxeU5LsuxaYZNc1wWFBNFDFBUqan748YqVdaqhTNqYFicaoHLSYsFSCm9z0Eddc3l9zIx1bdDLu5+iPcwXZ8mjmJAoz6hLaWIkA8+ZHTpf4cbf0zshwH/1gqURhuD0hqlw8/aGFRkAqQRhb8rE0FkUEahohhjYjw+wCpGo7SqjqGUQpwnHSWQO7QDlzm8U6GS0gqqwMldmpMnSYCrolr1XqwDrWnNtWjOtWHo6a338FlOPF1DGjHKaIwOdzByO+TDD9GNM9xOBvx096dkLuiK594HTZ2i6KfUFbclHl7eQ4T5eo23FleIHjkTSZE6Tz9L2cmS4i8HXnHU3Cgn60SCWSuD4EnynFhHLLWmQ0vAuw4aHOnIObaTQfGnh5uHIRovxs9LQdkM+S3rix2O92HtLv5fUiM7SZ/bm3f43PlXaJqnt+nzM1kQVD4IHsflvWt0bDdQuWQc7dxlynN+fpG6MuTecdi8EsVHY+SPig9WWEPgpYUV5kcDru9s0T3m4ceFMBLkTrVmz6V8d+MH3Ore4ksrX+T0/Bm0ikA+PqhFpDif/ArptX+L6fw9yoBXOrSbo2DhiFT0QYlCpKuUQgqn7HUEUYyJI8QXrcR0FOCYoqCn5N0rgkN0uQ2ROTAapSS9YWhqUHKdizZ8rUYdowz53gg3zPEerLXgPC63mDiieWKB6ZlF4t0Rw5u7JIOEpbfPIbNRWDjQaBVR81tkm/8XV+1rjJzD+RzrpXAuhQBWkdC0EhyOFJCKAIjj5blFato8fLXPgfsgymHUR9ccBGxeY5TGM3Z+1juUeIwxKBGcCxK7YaQNFzY2OTE1TeMI3ZdYaWpRTKQNtspVPfgFTu6qvAt0x+DEwwLppHTiATuf9AECfH/7It+4dYGvnf/iUxuRP1uE4wOW2pSb3VtF6zZwBwirk9BKM4o4u7iMzScLPQ5+HfX3yf8/mJWaK5PaKxqD8sJCvc07519gOYrRErjPysu9o3OvKg6y9ZB6yweja/w/F/4df3v1uwx8r2J5fGwmI9KL/xbd/RVKuyK6Dl9aR+Nr0QoVqDgVrKKUCn+PG4gKlXpat0HVyVKP0Q2UbiEqQlRgJIgyKAyewNxRyuC8xzRi2nPTzJ9YZOnECZaXl5mensY7CXPAK1xi2d3YoruxQ2dzh73tXXp7Pax1KKOpLTaZfXEZN0jY/sU6Ptd4bUIlodGgDIZdFuQKkR2G6LtwiF7GzBTvJ3SOSrhHHC8tzLPYnnlstyKKonHycoJlcq955X2g9WVZdlfOwSMkCNd3t4kiuNtBK6IooqEVM43WWIPlAWzSgYefqRac3LkqEg+7ZcGXxX+eKvmklCZ3lgtbNx/oHJ4UeyYj8nJibKe73O7eLiLxcURxGDb+4uIJbDJ6Qiojx58fJjrozPHm6mnW+12u7+0wch5RZQPcccLnoPlQYopSHnEBMOpHlh9s/4y1dIv3Tr7L+anniEyEqTqNPqarUgq3+R+Jhj+B2CPeIFohPsLoomdjbhGtiu172by6iLBNcO5eUlyZLzAZSpkQHWqHFsHlAa4Q6xDrsDYPfVMLVk9dNL3dLkmakWUZeZrhrQ39I4ETp0+yuLwUXJAT8jyU/qs4QtditC5zDAJTEfMvLbN3o0u2NaB1bhkpaY+mhlaaE/EAM5giVQ1wDktwOCXl0BFYKkU8DgjLzSYvL62CffQLrSrw8IY2TEUR01GN1Fm8hML7qND3LhdQ5xyRNkjh9CYtdzbQ58u5VyQuN4YJLy8KogR1gGFjUDTjmMVag71hF8f9tzOsIvDiu3MOJ4REp6eSNCgj8RClB2ilHIPydI0xof3cU2zPpCOHMLEu7lyma3tF1HMIS4XAF5mv1Viqt7DOop7ATYqSAjv3wmp7mulWnY1Oh5v9HnkZOYk+0plDGZFIgCl80L640rvG1miHN2df5d3Vd5ltzGCK3MCj6xM6LvBxboDsfAeieii1VyGJCMWD5QXJJDBByh6gRmPqDbzymKKKUqsIU+CzaEF5j4lgZ30dGabkoxxrLT63YB1Oe2ZX54inpkAp9rZ3uHP5VuB7xxH1ZoNoaopmq0E9imlPNQqJBZg9sUQ020KZcQRbXBUiYck1U3XiKUM+HCBqBdEGrcsdQUwrCtWEvoBSSmhFJCgblkU/Rf06zajGq0snULlDHmtQ4ZlpNJhLEzpZgiu4/N57aiZCoQL27B1GMYa7SujnCFME+CXNM2rqkMI05WlEhpkoZqbWZDdLHqgoz1VOXPBeh7GV4LRLmQMRqRx8CamUi5QUhVazusa7p165789/kuwZdeSekR/xDzvvV70A3UdMvZPTs0Q+iCQVnImP5Swf1Jo65uziMlNTU1za3CCZeAgO7iYOe+TEF8JFeDq2zw92fsLV3nW+de6bnJ87/1jOWUTw6S2QfoBMRBXVfwEuKaPBknECQY7Aeehu92g0Ggz3etiRJx94hr0+2V6XqedWOP3qaYxRxCZi8+ZNRr0+JWoYN2vMrCww054JGjXWYZZmeOWlc0zNzaJMIZsAOA29WxtsXb5JPkrI+ymLL53h5LmlfRWjpUMrTSlFvdFACFx2pQKsIioOyVutyaFyMN4LeVFG7mWCaug9iOXswjxztUbQ93rMnLJaZDjRarGXpmz7IVBEu5Ehc+H+1Ey9CAQ8Bo0j+8hjCpP6RfsDo/J6Iq2ZrTdYbLbo25TcESqbjwH1VcwnUQUspYJWjS+1k3z1d+8pqntDfswUc8sD3igWfcz/8vXf57WTL05WLDx19kw6co/jF3d+SYceIg4vd5czlxFAO9YsN9pjYftPHFa5t5lCl2W53qJ18jQ3Ojtsj4Y4AUTvYymWkfXB4qecEtkPeO3NbJM/vvgnvH3ybd5eeoXF+mIRTelHBjf5fBNUjkQRgkc7qQSXPIJYH7BlxkyG2HsufvdHxIki0hHeRCgR6rUmcaNO/8NbXLq1yfILJ6nN1Vj9/MuYgrGgTHCy1gtJkmB7GTvX1ogWp5h+bRFfLCCBpSQoHMONDnsfrAd2TBwFdsw9TESQCKL5WbSKUSZCVITSNVCK1FuGSKWjkkhQ3FS+lKUtyJQKFhttXpxbLJzg45+LEYqpWo2z0zM45+i6IOQmOKzPATCmifiQ+AyNVzS+cLj6sIVGCQ0lxKZxZP5fCdQizYnWFKPcstbvHSvdWe4sxwnNEG07XwqPuQILDzudElqB/UFOpBRvL5zhX37xd/jc4gth0VQentJKz2fOkYsI3bzPz3d+QSY5qCAKdJjkseBYbc/TiqNQqv0UWBnRGEC80DIRry6dZHvY42Znh73cFv898L5DYJfyd6cAEXYZ8r3N/8qN7g3eW/4cLy+/TF3ioPPxCCAXyfbQPsdFAQpCdMXxFglOXNUiXG5LdhvKaM6+eg438NSnZ5GGIdIe1WoSNVvk27vc+PmHXPybHzM13aA20yRq1CsYxHtwuccllnyQ4EU4//pzlYBTcJjjsZ07vUS9XieqxcRxTGO2HeCfw2C5AjJS3iNxTGtpCaVrIQrVIRIXwCYJeT7C+hiLrvBwjy/w5XCsKa1598zZBx7fB7WaNiw2G4jMcaPXZZCniFdEJtxzb13lBK21hQpjKKA6OCohiHDMT88RqeDwj9pVaBTTccypqRlyB1vDwb4jHva2cufifUgflA69SmwWi7iTEkeHsrCsfL8SzT967l3+2Tvf4Oz0ySLp+eQHcB9lz5wjB7jevc6G7RQ39ujXNZTi+aUVXJoXN/LR3MxSFpQDiZVHPVmUqKJ4UViqt5k5PcXV9Q1uZwMQHRzhPcKcg87dOcf1wRp3hhu8uvkhX3/x68zVFx76XEV5vDPkw5TaXFxEzBG+0NpWGIzWeB0hMkS5YuegNcsvP4dSgXJYNigQE7632xELJxe4c22DzsVbJNsdIp2Mi6J0FPjOcczMqRMsv3WK2sJ0USg0xrnDKEJ7aZbpxQUQX+QSglplJdUqgBpLtGqBwSBn9oXXqDWn8LpgrhTaN+JSss4tfH4CJy5QLScgAanyFo43zp4OlL2PmUiklKIex6xOG7TW3Ox12RklRFE0dqxahaKlfe71sHySZyVq8NLiSXx+7+DIKM1Co474WTzC1nCAKH/ok1gmNSvIpHTijNs0ipixE/dBIrokq2mBujL87he+ye+//HXaqoEmCmUfnznyJ8NKhzTMB1zoXCJ3llAlKAX3+4BHU55zCwso57Ecrzz5XmZdUFTsZwmpzUmcr5xpw2jatQaNyFDXNbQKEc2jtNjBqyunWBztcXt7m10nuOKyFH4fXjnpwPf9bB1WK6wSfja6wtYHe/zaqS/y4tyLNKMmZbRfMmXux5zVpLsdtGljpqbCk6VjEEF7B17QRlNvT5Elo8At11GBNYckrROHjhQ4H7bC2iN1xcqrJzn58ip56kj2ErIsQ0QwsaZer1OfaWJqptI2d26iHdjkYiYKK66ADCR4C8Jr5JCvnBozr7yGajewRqOIMLooUfeO9PY13OYmri14rbDKF40iJiiHynNudpb5en3fwvJxmpLgVFfaLRqRYSMecafXYaRDVOuyw+svxnrYARU72Wrz9uopdOqOPT80isVWDW3miJXiTtIPHPvi7WN6YbGT8cVOqyj2cS4kkcWXmHjQcg+7HimLCVhszPD7b36T33zpPVq6WQU5T7sTh2fIkZe2le5ye7hdOG9/94MKoDxNE3Fybh6XFxPuAZNKosCJYK2ll6b0bE4vyyqp3NKMhloyYLreZLnWZLrexJRdUx6BaUJXG3E5C40W7ZM1tnp9bvQ7pOWCUYWeR3+mL2AW5cEb4abdYff6X/HS7jW+uPIOp6ZOEymNOybcUka0AUJQuM6ILBkSn9bo2TbGa5SE4qVSVQ9RRK12UCT04HNFVc0jHm8DXivhZPFFoSFa0E1FuzW1T7JKiQ/l82UJ/4QYVTksFcxSRN5WBO0FI3of46l0KE4ZarOL1GaXkGYo7xZCNC5KIaMRye2LZBs3cKMYmjnONCoqbPjgsEjUteH5hWVq6Aedho/MNIq5RoNWLWZpqsH2YMBWMqSX5VjnKjYPUD03zajGbKvBifY0K83m4bj5R1gpozBfryFzc/iuYq3XqT5nkqPuJeyypYJUfMVK8358rw42c35hdpV//c7v8blTL1PTJiyYz4ADL+2ZceTlTbnau8letlcVCBxV87QyPUPdEih5OsSqD8IQEBEym7OZDNnOE3qDEaKCQ5TJrKODIY5unjAyA05PzbPUah994AcwFcJNBKibiFOzs8zOtLmwdZt+mlONhYCfmMSH0jJlHIX2JeXv9z7kRu8mX1z+HL9+9kv3p9OiCvErb8i6wF5Knq0xdX4VmZsFFTjxqnJyRVs1rTBKEdWFfDREUfCAfR748YBWAfMMjTzKe33gekQVCe/q4ir4SxXj5b0/8HNYzMRbtB/L5iqt0XOL1GZWUFGEMgZDhBAVlaeC63UZXfkl2fYWdpiQpy1kOSWPxkl1mQi93zx1mnYc48U/gn3hUZP4eE6r5JjXTUTUMMw0WpwVS+Ys1lqGaUZejEU9ipmK6kS1OjWtiJULzBNR972tKAXfZuMa8/UWm8MeWQVtMWahOI1zAbYcV2qOWTIhbaHQRdI/9vD28ov8z+/9c1bnT2BQhE96EupFHp09M45cREjciF9u/apaoY+yWCvmGvUxp1Qe3Inn3rE9SlhLhgyyBNBoz+FdT5TB4dl0OWlvB7Riod7G6MnWYQ9nJfZb/MaMinn3xHmu722xPhyR5YJXqijUGL+nvJ7J6r6qCQOBvrktfb69/j0+7F7m62e/wpn2KRqmzmHJ1YMmMkJGl5BhQmZHxHlGb3id5qllaqsLqHq9iPCKB0xMgMa8oI2lGc1h8xHkHvFRiPKlFNmSgKkLqCPCQc2BBatIcpb4t6F07ILyga/uS8cQGaTWwrRniRttfFxHqQJ/VwohBhQ2HeLurJPcuoLrD3CjHJuGEnZsEMdSTEAqAmen5zg9Mx0yd0ofe2dYij9l3lVzTUTQxqGVYBDquhbyDt4X2kHHd1yqoOoZ0RgdUdcRxDB/oJ/xBFhX/PbgVZoiwihNGeRpkEUQKSp4Be/Cztf7clckOBTeu7sKf5yE+Rorw5dPv87/+N4/5WRrodqYh3TYs+PE4Rlz5Bd2LrORbuGk1H443IzS1NTDX7pF6CQj1kZ9+nlGCTJ8lEhh6Tz7znJ1b4fGYo0pEz9WvrAReGF2mYVmwq1+j+3BgFw5AnNbHwsrdIQoSJTi2midf3/5P/Hm/Ct8afULzMeL++CVg8fxonB7P8Tt/Cm4ES4PEZayKXl6i/pul9rKPPWFRUyzhSgTImgFogMzRJRF1TQmboUkZNEYBOeq6g/xHvF27MwPgZCqRDS6SEYrKCEX7xHRiDGouE4U15FaA1OrQVTHxTWcMugy2yAapTR+1CPf2WB0Zx23s4cbpdhUsNaDU2gviNiA4WKDPgnCbK3Bq8vLx6reLJOM1nu2RgPujFKGaUpic1KbV/rgxhiiKKJZqzFvDLONGstTMzQbteDQfck4ubepgvFxMMx41CVzJVwzyFKu9rvc6u6Fv0uodPWOqpgqROVSFf6EBtWlQw+7YBHPfNTkd179Mr/3+teYi6c+ccjqcdsz48hzMr6/9qPCiRcP6BHmxJPnLvB8H8IGNmUzGdJPR4i6t5axEpBKxc7TdTmbwz7NeI7oEaa4Dn1QBWaiGq3FJVbaLS5vrNF7gI8s8cduNuTHG7/g4u5Fvrb6ZV5fepOaig8dA3FDBnf+T5TtVEwDVXDhxSuSpEPa7ZPM9mgEWZ/JAAAgAElEQVQuL9M4eZKo1sT5DK0ivHYorxAxYTExgInGDkUcpmiRRiFOFVp8hSRqGe1Virc+MHpEa7zWaFNHR4YormHiJpg6omKkUFEM0r+Fhooe7+DSdIhdu4HfWMf3R9jUY4cOax3iVHAqXiNojFN4sZQNFyKleWF+gek4PhTaqi6tGE4vsDkacXV7k61kVDUPB4o8iwq7A9HY3JPkQ3ZEMF1NtLXHUrvBG6unaBkdMoFjpPtY9/0o5z0OQB6ClipCNx1xda/Lrf5eqHKlnGtU4maCCqX4BDjFF8681FEJnHyITcQ33voS/92LXyeutUKh1sfCyv/k7Jlx5Dc6t9lw28d6beaF3TRhtt54IAcqBcbaTYbsJIMCY5cj8JT9Np74Ycu4myac8o5IP/5boZQm9sJircXMuZe4urXOxiAh01JFr4c64kP45wKMlCPLB/ynG3/J1cFNfm3l11hqLhAXZdmlIFK299cYuQa1QjfFK0QLWjUCE8U5jIpwkjDYvcbw9h0ay4vUFueJmnWIBXQ9JK0PeBTlg+KhE1fMZo0RXUzsMfWshNCq95nQusIohcPgi0bKXpvq9brA6b0Ch0fnFqwl63dJNtfwnV3UwCHDnDx3+By8FXDBaZSFRr1Gg55pFo1KQJxjsd3i/Pwc+MN5/xB2fAiMnGO90+eD3U0SycJ5E010sRvfs0lIUSldlKc7bvT2uDPo8erCMueXFogr3aF7wyGPc7coIuwlCVf6fW739ioZ37JyMzjxIlHuXUhyylg7RUSqRa2s0E2zhH/3o7/kwqWL/M4bX+Hd028wV596qvXG72VPnCP/qOhksqhl8obkLuNXe5dInaVkHN7L1vpdGnGN0632fU/U0F3FspfmZIVT0w8wQbyGQZ4WXNhHx2A5yiY7sdQcvLBwgrmpEevdPTpJhlVjh77vfYcUE01CLQ7hp9vvc6N3m88vv8ObS28wV2uHTbk46P8U7SJ0I0LXwY+CKwoJUEA38YkCb0JUmezhej2yWzcxU030TIv6dBvVqqMbLVQcF9GnIMYgokGF3ZXCgwT2h9Iy0RNSFYwcXSSjTcDNlQoRWwhoi2Rfsag5j09SXNLDjQbQHZD3erjRCJdm+NQhGUgeKHDiTUiQisLhiAVSFXF9doVuPcJYhdMhkfj22TMY8cgRsW45jwc25eLOHjf3uuQuqEWWbr9y2Uc9M/v+rkid8PPNDdb7XV49scxyOzCD1CfgBkoWyt4o4XKvw+1eN9xPrQL7R3xVke1xFVPFVpK0Y+EsRdBdcd4VtFKNiwwfDNa5+pM/4dc2LvEv3/kdTjUXx6PxjDn0J86RT5rHMbKjgi7YRMvhneF30y5X+zcBVTBF7hVhaFKxXNreoBGtshTfn6C8UkGUv5sM8arAmI+JO+4/D8i9JXWepvl4J1YgFmgWa20Wlpqsj7pc3t7hqJ5GkxP/MA66RbiTdvjO7e9xcfcy3zj3Nc5PnQI/wqdraO/RsaZ5fp5O9w4ag7MJOm4jXnBZD+0iTGMG7w0+S7CjFN1P0Nt7pK2YqGZQ9RjTahC1p4laU5h6Dak3ikhaB758uTnSunB2d7cdU2VhvFJopQOtMU/waYpNhrhhHxmNILNImmFHGSpxWOuDSmKuQrOJglmBU4gv8w7BiTud06lP8Q/Lr5BqQftQyfrm6TPMocMCdIR5IMVxZafDjU7hxAtxtAeyiffdGY7Yu36D11eWeO3kKfJhqZ3y8czBMkcxGA25urfL7UGvSFqXhVK+KuipWD7FAjkZiYcovaCDOsE6j1KFmqEKxU0ex39d/xWJG/FvvvyvmaP2zDlxeMIceVilHZkfcWN0mUs7HzDIu4iCGnVOzZzjzPQLzMZzxKoeqgExrPXX2R7tTGiq3DvEVhgscHFng+kTZ6mX0IL56F1BaYnLGakCPnjA6w2CUVFoO/cxTy4l7Nuan2rPMdNsc3ljja51BYx6PKcxOV6ps1wZ3GLt/T/i88tv8fnFVepph7p4EMPUuTkGW0PcnVERObugE64N3llUOkApwbugvSJa8CbCjhLySKFjjan1UPFOqNyMovBVM+hWjI5rqDhGTISYCKUMpTJkpXjnPXiLtw6xCSbrYTOHhD5hoVNQbgNUkkeoTBCX47PQicYjiFNop/cxfcYLhibXnmG0xPfOvsmt9gzagRfL8uwMZ5qNij551H3PnWetP+DGXpfMS8Dq5Xhz856mIPHCT9c36Cc5b59eRVvPo+gFei8rx6uXDrnU6XBt2A+IWQmnKIrkZujvKYVzdwjOqyqZGQqCgsNPnWDz4MC11sRaY4zGaI8xCqUdH+5c4Q9/8u/5Hz733zIbtR7rNX4S9mQ5cgWZz7nQ+QnX+tcYubSo2BK8GnGte5mN/hpLrRVW66eZbS/Ritq8v/MhOTnH5m4VppQid8Kt3h7PzyxUkqrAoRDO5P9ye/x+nB9lguMxIyrHMuWFKTG8vXqGzcGAm/0e3SS/7+M4wlZ3QMZ/2foZ690r/FavR2QsphEjkWbxjVPscYd0Y4TPRmgTY6IazmZYm6GQoqhE47VCFTRItOCNxUcKTB545qbQIo8UGNBGoTWVprmYA/dxUt+lkCPMCywWW+h0lL1XHWDTQGpxobReMNV23pesl0mMWgVc3jQNH6ye5cPZ5wMkoKCpDa8uzFHT5siGwyXkMEgzbu7sMMotaBVQkvv04fcKDkQUl3Z28N7z9ulVYl9CaI/HmQc2qdBJBlzY63BnMKwEw1xRgekKWY1QwRlYKqHTTymENamv4hnlFucgMgZdzYfgxLUOrfeMCWDZz7d/xcnL8/z281+lHTefqcj8iXLkDrjVv8na4DaJdeQStktegfFCLBbvB+T9y2yNbjDTn2cqmuVC58q4KvB+TSvuDHqcaM0wE9VDfWTxbDp5NM76aPMYHI3GBBXuY7SDjAOFwlvPyfoUC/UWG0mPq9s7ZAeScUfBLJN/ExSZgo1kl7SX46MMJQ1oaFQ9YuaNk/Qad0hv7oEFLxHsI7qVjY/Db16Fh1cHpddQRKTBKY9StuogVH1pIQieeET54NgBLRrldRWZq6KL0vj3SZ53CZvogpsf8FoRqaoXDzoDrTVm1tA60SJvNotdAGjxrC62OdmeuaezzKxnc9BnaziqqifLBPOh9/F+HdKBndaVTodcKb76/HPkowTk8SgAeqCTJHy412Wj30ckJJSdjLXCvZTQSSH7K2XPTcFjxrCLCMMsJ/dlJC7E2kxE4gajQnPuqJgTVix/dfOHLEwv8JUT7xCb6Jlx5k+UI/c+4Vb/fUbkOLFBu0TCKp4DufcYseSRJlaegd9iY+cagyhFufu/IaEqU1BGs9XtMr2wXD28YZt3ePVX1XqM+w6S9h8HmKq1qHM49n8v84GmjBNPmodmCraUJSgcYd3E1Go14mJSaykTeodzl03xkNeUYbU1y0J9iotbm+zmo4BRHtSX/gin7oMPJO9bpF7DY5E8Q09NEdVi5l9fJZ2vs3e1g+9lkAcp2YCX7ncmZYSOC2Ou1ARzXakAd+ixXKmoo+CqCY0VQr6k5GiLKJSowqmAlhDJhWA43O1SZHfSD3sVtvCmbmgvtqnNGEajQVD6aCtQQkPDF8+cQ6oOO/thjKqoB0is41aviytP5JCxPo4dB4ZxKEQZru52acbXeffkCVzuHinMUj5PnWzIxb0O690eTlShDT5+3vZxxX3Zc7MozfcaXzSqdt4zSHOcC1o6UaSIRIiMQmuP1kESQ2uIdYxSDqMVWitSn/L/fvDnLDZmeH3uOaLDGl88hfZEOfL+aJfE7RRdVCDzrupzWIpPmfCoh/LdXNjt9UMXFXU3TUru8RCU0ZtFsZX0WfXz1LUKUdw9XHQp8fmwNt8OeiPHs7K0HHIXOpEPrWWQJox8ivUeS1HVWpQo101EbaBpmDqz9ZipWi00vj3qEyaGSXloKMMbyye5kwzY7HXoZHnF/jjyLMtjFN1w0tSQDhNUFmFqFuNB6jGqJsQrbZZmmqRrAwZbPaSf4bJx56DJRWnizBAZ39OyfRdFH1Mp6gjKO1hqZ1cNK2Sc2Shx2fCzRxX/q/5/9M0oiDdCrRlTn6lTa0cIjkF3iOs7pmZzfCtDm5h3nz+HsRle6buuZ3LMxSv20oSRze7631F+9ai5epxN6uRzcWFzi7lmg+em53EPwDU/yjxCL0n4sLPDrV4/LIcqRNvl/0uWipVxkjNE4iEgKMvvcy+kqQ1O3CiM0sRKV447OPEyEi82ZUqjtaCUoLUik4w/+tWf8S/e+F1en3uukpt4mqPzJ8qRD20XbxQ2d2TiyJ0n96HxQdWikXCTtY4Y2ITEeSgqm+8n7Rg6n8TVcYe5YzMZcqY9BXLvmzoVN5jUOX4QqxnNqXYLpQU5hjMvt56DNGPkHNtZQj8ZMXJ5oA5S9L2ciO6GNsMIaEZsDWC62WK+Ps1is0E9+uiHvRwDA5xpTjPfbLIx6HO5s3XodVdjpsK5hhZ1MUlmGfV7mKxOrd3E+gzdsNTqClUXdC2m/vwMtVNt8p2E7voOsmsxTiEuMDXcPkH5o05aH8rEO9gzct+RJrnlYy7L/us5+G4DREJ9rkZzto2qGTyCG6Zkw5Q8yZGR5rXlDh/UOmRzr3Cq1cI6jy5ZTpO4+sTRHcIgH5G5kgM/qVh5+FU/jAMSKZ+b0Dv0w81tTkxNU38YhswB2xslXOjscrs/COcr5WdPiGEVrJTgxEuoRVWLqxewzjNKUrwPfUUjo9FGEakQgRulg/NWQctUa41WIUKPCuhN66AFs5d1+c+X/5r512Y41Vp+JNf5SdoT5cgHto8jwCnWOax4cilYAmXQpRROFLicXpqSiEU5HRgYJU56BH45abGOgki+CFEU4bThzt4OJ1vHKxJqmZhWXKdfdhK/z0mv8Zyfm2WmXsceo6lFSPQI26Mh3cyy0e+RVU4nAACVEz8QSFkNSoRMwSAZ0MlSBrbJSnua6Ti+S72wKqKR8YG88jQxnJ+eZ2V6hvfvrNPJ0wK7LQCHw5yoUuSisSOHeIexjnwkNNoN8nhIVAeaOdKsQS2itjrNysk57N6I7p1d8k6CTgRtQ89LcaHEHdFFJL6/kOkgnKCOXKkm33cQZpq8lwFf15FADHEjoj7XpL7QBuXJkxw7THGJww0ybOKxPibKFbPpDv/8xB4fNjVGfGgl+BE0VZGgopn7oOFTyTBPXNd9Oe37wv1CYminN+BWZ5eXF+dxuX8oZy4idJKEi90u1/e6BNb8/msKTSCKrkMF9l1J1orCS7jv1jm6gyFeNFEUobUQaQnRt2EiqamCUy+Sn7oQMoPxDlzpsF+71V/jzy79Bf/ijX/CVNQs9GieTnsiHHlJOxy5vYCLe4ctBIFsgYtVr9VBuyz3jkGa4FVwI1YJRoXooqwoPOoZNmhM0b2kTHQJnoF3ZNYRRccYFuU5MzvPhY210M1eHX/SGxSn5+Z4bm4Om+YgH/15IkJic/ZGI25lA/ayFKtDy7fqNcXzEf60P2E4+bsoSH3G7UFKkic8Nz3PTKMJyhdyrxNbf1WKZpWSwEHnog68tXyKjdEea4Mue0mCmsD5FRZQRCoKkblpEZk2CGSpxUhMbi2OFN/wmFaEbuSohsHXYqjH6JmIhbkT5Lkj72Vkewmqn+FHFjvK8daDD0yS/TDMJBTjx9nSuwa1HJ/wmmohUAqlBDGKqB6hGzFxPUK3FKZVI65HeJeTpyNsYvGjHDe0SKqRXOG9BlfivcIKXVJ63GaJqJRXPGCTmo3WO7JiznulJwTQxnMBjufQ7+7fc7eNoSjC5FERv7yzxcsn5iF/8B1nCad8sLvDzd4eHo1SIOW9UlRt7jz75WcDQ0VVzjx1nuEgQbzGRAZjwJSJzUhhFGgTFm1dJbxLxy0oHTIcAWYp54hClOKDzkX+w4f/md99+VvMxjNPrUb5k+HIFSRuSMIIlzusE2yx3bJOmIxXxQlOwchaMlc2VvZBOE4KnWqti0TVmDtcrsaxjlASGBCRjomK5GDuHWJg5HJa93DkZcHJUrPFnVqTXh5UD4+jX6jxPDc9zQvzc/j0MPz3wNiIkDvL7mjI7aTLXm5Dn0ltmHz+ytd6fNDGVh6wlLdYFDTcgCmX0JKEhSSlIRmLHc1JbRFxGDK0t1QiUkQoaoiuMaq1EFODqEFSn8LGLWYbU6zMT7GWxVzZTVAuw6PJdUSQhwrJur7yiOSIV2gTY5MU5R1KZbjUQ5pTr0foZoSuOUxToB5Esohi6nNt6gtTiPN4l0Pi8MOcdJiRj3LcIMMnFmUF7QNDpByP/X5QF2MxdtqiFC6GKDI0Gg3q7RjViomaNaiHQiejJGi4JBlZPwkLSWLxqcdaj08EbFBNlIArofDEM21QGTXfRVSG8vVDXWsVcIjGVQupDoHBeHt017yo3v9Q0IpM7GbCs9JLPDd3djgzvYBz/oFYLP1kxAedDjd7e1hXRuEh9xAgwnHzZF80Ri7ZKSIUOjWKzDr6aYbHYLQiKjDwWBu0kYqZYlQJpYTduS5a7SklwalP7DqrQE+F+/Wz7V8xU5/mW89/jYa6v+LAJ8WeCEcOMLJDUp9ULZsyCdCKJSidHdwyD0cZmQ2TT2uN8oI2EItCpGAzFx3MIUx2YwzeeSJtwnZObPjZWwgcAxKbQ715yBnuNyVQQ3NuboEPt/5/8t7syZLkOvP7uXtE3P3mUplZW1d1d3U30ACaAEmAIIfDISVSFDE0Gw6lsZHpQWZ60qP+KD1rMYljEgkNOSSHlEgIXBsEGkAD3V17VVZWbneLCF+OHtzjLrlUZfVWMMlhjVzq5r2xeBw//p3v+84j7POSHxVoBcXVQZ+3trcTnPJsZkCDHz4pp9yZHlG66NWhY2pDk2E3C0vQgSIoRI0pXKAF3Jg95po94rI9ZOgtrVCRS0Wta/IQcJlH3AAArSxqCYs2mIS3azZwC7mLWKxuMc1ygh7wZn+Hd1pDvhM2mASNDQVVBlZ18ErzqLfBrfoHoBVaZvPgpE3kbyurYKZQM0/W8mRThyoMumXQhSMUFZIbdGYwmYJhgd5sk4uOhdOG111ZQlkjLkIUwcncFXDZYMoYA5khK3J0y5C39LyFXAiB4H0SBQV07fDW4WqLTD2udshMEWyISYUPiActJpo9SWxTJoUiv9xLhVV5piNmM5/SEZ6wFZ7PhnP/NoSzGToXYa0s2y8sv/6ne0fc3NiOgfwFhogwqUp+eHjERweHBFkC7hKFMgbypQxcGs/xmIH7RA8tvXA0qebYttEhZeQGrTRZKmpqIiMl4uMNrJIydJOKnUvB++Sl9Ar+6tHfs9Hd4Feu/PyLee3/jIyXHsgjrOGppaZ0Fht8wgdjVj6HPpa2lNZ7JlWyjZUmqxBENKIDmYagfUxqUuFyHoT0gm7mJD6MRmu0C/gg1HLxJswa2Gx1eHVjizuHT6lDhGpOQiwGxVqnxc21Pjv9Aa4i+ns8ZwSE/dmYh7MxkyRAajILLYtWWBrHwJVs2iOuVodc8nts2gkbdkRLBK8SZJK2tTUCFoI3UGUIVVr8otd3SM6EWiWqnDJgEnRlwOkWJngG1gIllPusZ4o3A4zaa+xlfR61NtnL1nmi13h66TJHnT5r5TER2ErZWZAIjwSFcx5lNaF02CyQtZKKs1WhClB5BrlGZQbJFNpkYDJ8phCdHtJckeUFotS5dQ5JAUQnuTdBCLXFJnOmUEfv8GADVA5lhbq2uEohNqoOsYnL7BdUT0kFeSGyJXqvb5IVJlFnM/Rz4DOIgceo6IyoidjwRev35/H5z/6c8ymjEIG4vWn93MXnrM8b1yU/Gh3y0cFTXFDAouVbs2gIkrjjshTESUE80o1L6xjNqsQ4iRl4ZhLVUKlEJ2xohimImwizRDgl/n4OrwDxMKJKtvm+2Z3VquaPb/8lvbzDly99gWzJ3vm8XfPPEvzy0gN5M2ZuQuksdfCJjnT+xDweTahs7NloVHQeVErIaLKYuAIjIVKTjJnzgqPLXhSQiPMx4/csqMHP6tZ8YiiJXt9XuwOG3Q4Pj5+yNxpTJpClrRSDbofL6+ts5zktD3VJ2uo9f4yqmnvTGUd1hUpwSSQ8BCqdM3AzXi8f8lr5gG07ZsNOKShR4hPunjrjBFK/ywVToHGLgwZiSOZTxJ6IhICy0YRIHIl+vchqslxh2hmmn5G14sMluWIQZgxtyU05RLTmsFhj36xTvrnN8Ccz9Mwlx72GNqcSN1zF1m5Oo3VAKtCZxuYCuaCzWOQyuYZcQa4Qo2NBKzOxIKn13HdApcx2YRsMsRlFDMLaN9v3gHLJAtcK3gbEBYJ1MZhbwTeKTx8ZFM1ar0JDU1x8RlBQXBnQfW0DrRfVCRMM0JiFnT1EhHZm6OiCQhms+GdCKIvM/bx3PG+WPW97AHVdJQOqiwUrEWFqAz85POSDwz18iPMkrpULa7DYom3xfM+bUIfE30dROcdxOUPEkGlNboRCSxL5NAyV+DVLUIrRKn5VMcDr1KRDK5mTSRWr13B5gQGYhBl/+NGf0SLji1u3+PSd1z+78TMRyEWEqZ9Sh5pAI8ldKLiWR+0sh9OKGHkNToHRQqZATIRNRDwiGqU1LWNwNtDJM2pvMSZuQ52zKZNvbpbCBD3vQ3nRoVT0jlsjY+PSFtm1azhnUUrTVm2UA+sqKhex/rjAPPs9A0LlA09rx+F0yoqGX3LW6mN+fvod3inv0k3d5pUwVxt6baDplqJUbE+Wa7SJi5rODCZfFCeDUU1IPf+YbMBNKtzEYScV07ElHM9QuwHdDgx7fbqbPUJHEzINGRgT2OGILf2UYr1H9fPXmdx5SvnoCEKUuq9e7yT4CYJ34J0gVQAtqAyc8SjlIFeoLDZhVplCpfOSOUtBzYVP8Zo1C4dPPitCSJBItF0JeBcXL3EgLsn3A/H3xGxx7qrYSNnVcgCPCtLiypCtd67j2gGxnlBZjPao3vPvu0aRK8Ww06FtNCMX78q8T8Y5EfsimfdFRvM+QYHJzMru9Xl/M8PzwdEhH+zv43yzuIRFPaJhojTy+iU1rYSYRAgwtRXH0zKetwaTCZmOATkzC674Kk9cLeHhi0JnOsL5tVgO3GcHdOHQHfHte3/BWnvI5d428Gm0Zf/sx89IIPdUdoojba1YvcjziaoV40mNCylTSPh4CIGQCbmLS7XSc2tqrI+Bu6wdSgesr1HKLG7m8lyX1Zj5YkPh6zxmcYlkNaGcd7E3SwKV540AjKxlbzYm1omEgopLfsyXyw94o9plWE3T59SYYAhaYiMxFZk9KjNkOiPLYuBuagUhTfIVACl5bs9Vn0tF1Pn2OtMU7YzWZvo3D752VJMp9VHFeOY5ur2Hbhnawy7ttTZ5r0DnglMtqlZNq53Rfucq9tVtju/vUz4+IlRL/tmhKU6nD3US630h+q0EHR9UXWtEg1IBZaLYw6p6Tj9FBUziRi+PuBOJC4j2Mi/uBa8Qv9itkBw0o/OenA6UJ34MKqB7muErG3Rev0RtaigdzBy+tNQtd/qPToxlEVU301wa9NitxvPFI6DOCMwNxeLs9zwvjp9kwpw1iqyRrz//taWz3D4a89Mnu5T+dErQ2B3EVpuRqSJzBW3yUAmBytaMylncTaVaRgzWCqNNCuB6/rUJ2NosmCqn6YZnZ+HzazGvoTE/14flLt++++f86ze+xTAbLEGYPztQysnxMxHIPYGpP4r4OAsuKTQr/uICzkqHdc0K6tEh+irooPFaEOfiBDAG7wK5ihzoAORovHi0DukmaxYCTQHtaZmPv/4uOMupo30THC+O1szP+Wk5prQVWmDIPr9gH/JOeY+un8TJn5vEzmgRUsZpUiALmUZncbFqAneEZNTCN7350qgd0++0jorQxk9k5WqoxbkELeQmw7QH9DbXCM7hp45yWjF7OqF6MqEYtuleHdC6VIDRiMoQJWTrbbaH15hdGXDw4138sU2QVlgc2NxrpakKxPuISkpNnYAZJRFymqs3U/1j9Yqm6wpNcI8stKb9msxXrOWgrZtax0lKWvoSVEDlQufKgOHNS5hhETP5WY2f1DCrcTOH69s5hn6RudDODFeG63x0eBBNs5qzOMWRP33MFxnnvbzxowG4uTmIO5PnhK86eG6PRry394TSpULvciImsa4TgqwG8ASlQFykKmsZlzVB4q4EpSi0oUhomUnBu2GpNPBJNEmLatwFJn42DPXsjHz5ogg/Hn3E//bT/5Pff+NbDPP+Ba7qyx0/E4E8hMC0nuGTPHeO4xIz77kUWwJT65n5mOFGjCz6YygVA7cAeZ5Ru4DzNaAosjz6LNQei6CNJB+G+PmRsRDQRmjnn6z92/L42A2drWVUWpzyXAtH/K7/R65UU6yW2IIsNC7bTR8c5oEbQJslml2q8jRBvfmepcm+PKmDSAyqtcPWluA8Kt2PhvGh2gXaxLZnWgFBoXVOaOf01tus7QypRxVPbx8w/acn9G6us/nWFkFF729lDGSKzrVLdLY32P27j7BPjiNe3cAgicGwej2XAmmClKIgNh2f+HkaelahbrnpSHSNEUDQohfF9GfcG6VSMNYebwL5sM3mW5fJNztRtGKr6Fk+LWEa8JMKN7XIpTpe0wugdkopCq3oa8WbOzu8d/cuXqVG0EuLb1Pkb34+i19+foA/+ywDgiOQI3zt6qt49+zCfxDF/dGMHz3eY2wtCxho8bnLNZlY+zIRskqeKkoMZVVyVJZ0lPDNmzv83K3XGU0nfP/OHR6PPGKyBYQyh1f0kuAnzsMmQGu9PK/DqSC+fK3PPbfguXt8lz+7/3/x26/+BoXKiYX6n82s/KUHchHBiWVqK4JPTBKYF+LSq+L/+8jb9T7KiXOvCToWOXMfu83oTFPXNa28QGGiD4mt441vLE7Tjts3GYEIRitybWIg/xgB+FMbWjGpS6wf8Y7c4Tf0Rwx8hcs1uQ1YBVjCCcoAACAASURBVDrPIlSTqGFGqWj32mwTl/GhTC9N4lTYTJ8TM1o1D37GC66sCbVFrEOsB1EE8enBi7J7fTxBFRlZt03e68R0SYRMIg/YKsGs5ex8ZYfjR2Omj46pJzVbb19FD3NQGmcUmdKolmHjq68xfu8+1f4xUtnINCI2CfYpi5tfnhNMgkbvs/BOST/LKqwSFFG511Af0ScWCnXi61IwSpAOmaLoZGTrXVo7a3S2BggWV9dQOaSscVOLm1ncxOOngq+FULsXevy11vTbLa6EwP7aOg+Pjlf9WGJV8Myxygs/u1Dqz/ljEdAq8KXty889Rhc8j8YV7z3Z5aCq0mfAqdCv4vMlpL6aafGMDZcDtqrpF4qvXL/JL968zqVWrN1cbbe5sbnO379/n/ePRlRi5/zwOTc8MVI0oJSOjpeJRdQIf55V3Fz8u6weMCSKsvDe7k+5lG/xy9e+dtG670sZLz2QA4zqY6xUWBqvYQCNhEW125NuQBCCDSglOC3olJ1aoymyHBcc3scO6628iP0Wg0dJiIrOEKvfEoSgIU8TX4yBPKZMDTf7ZQwviuOq4qbs8ms8ZE0i9hsEbNpCGBXxWzXfSqrYeKDJPJZ+j9HzjC1ogzb6FO+4eW0oK0LtUaLxThiPJrFnYmMCnUaeZ3RDB1tPCZWP19h7fG1RPmZ2azvrhEzRvzagu1Yw+vCA/R8/ZvvnX4WORmcaMIgyZBt91t7JGX/0IXpqmY1r/NiifaR9NCo/IDF34sOq5XTQPT2WC8VnBW6Z1wcgQQHpemkDLvPQNbQ3unQ3emT9DqZbRDWxraCukdripz4G8LLCTgO+9mA1wQmqdogKFy6biQJjFOvtgtfW15lUNXvl7FwJeQirAess7vlygF8eK3+nhO1Ojy9ubUVV5zkZq5fA7rTiHx/c50k55awItwyNzjv5pGMSBPGOzXabt27c5OZGj41eJ8FdMn/22hh+6c1XufT0gH968IiRq1PGHb1TNCoF8fRVOHWOzwvkq69daE4yFXH6kZ3wV4++y3qry9uX3v5YLR0/j/HSA7koOJg9pRa74rXQTIRlihwm4mMiHjDMG7Kmbb9IxG0lGGbB4kKTcS71w0wrdVAKEwSMxiiFiGNSCYdVybDdpuB8if9nOSwO7/b4dXOfHTfF6SLWApa3zyG5AxoNKcNWZklI0jRVgGQVGq+Dcw6NWfHuboZSCjdvJybMZjOqsqaV57SKgsxAbkyERQDxHhXAjabUdU1deWrvwEe2Uf/SAGNyREHWL1h7Y5OD9/eYPhoxfHOHkHozogvE5JiNdXjaJS9Kist9xGtmh2PkcIYaeySkojbRE5ykAlzAInrlXC4ygoq4vKjoa661RmkIBLJ2TrbVZnNnQLHeJWQaqxLvuarRlcOXNaEqCVPw04Cd1nhrY4cbH1BeoYMmC2mHcAEueTM00MoLrvR7iLrCX334EY6FpddKUD9RR0qT5BTc8jwsvR2Er1+9xiDPY+A/JwU9LEvee/SIJ9UYUWZRHD/x/nNIxUcFZXP0SuArV7f4Z2+8iXEhMn58AHWSEiDkCr5waY1rww7f/eg+j2clag6nxMzbqFVsvMmyLwqjLA+tNZnEgrvWinZRUEnFv/vg2xRZwRvrbywWjgu94+czXmogjwWgwFG9H82xUvXaJx758hYwClQUG+tD9o9ntHSBaIXzBuc9oaopa0Wn1abINMFnlDaQJatLCYKII+hY8MyURkwM4D5hbwAf7e9zY22N9VaXQqvPHRPTIXAljLhsSrzOI44YNPiFOMTPajKl8WqRhQe9JIxZCtJVVdHqRNlxsIGMbJ75SMKWnYvtzbSzseWW8vR6HbQNuLqmnB7hrceWlrq0WGvJBwWvvHojSty95+joCKXUvCjVdK9UjWSxbWhdanP0YJe1N6/HwiuGoDJQhiCaPBswfbCH6WmyIqe9ntPf7hNCoC49jEPMeL2L1UwbhTvBhTm3+ySu3oxYFkiLmtEYoyiMQbIQiyW5kHcL8mGLbNDGdPIIP4lEWKmyqNqC9UjpqGtLqDy+dLgphCoQnCDezPtNKol+Ka7bZT7BLjBUxLzQEmgXOdsh8M9uvc4/PdrlaDLFizrVSOU0s0bR0CPncNM8oPuVl4Gw1sr55RuvcHXQT59/+u1EhOOy4ge7T7kzGiFJdpWqFaeOp8nGG9YKCFoJb25s8/Vr18mSyE03N+jEezRUXYViULT4zS/c4oPDQ24fHDKqKmyzm07PQcxfGthlkV0rpU5xyE9dKolZfqYi30lE4a0jy7I4/8Tyx7f/nFbe5Xr/cooLPzsK0JeekUPgoH6aOmMvZLvzTDzdrCaj3hp2Ga8NOJ7GQqgYg3cuijWUoixLfG4aV434Gh2Lm8ELKsTgHlSIK2+iLhmgEuHh6JiJrbjeX2OrO6CX5xT68wnmgkYHz41ijJYsZgXpAWhyzuZ6xIbzi6BtUvHxrEy7+bmV5dSzkjApcbWlruvUSNgRrKPb77C2tY4OMJpMuPu995HkPgegs4Ks0yLv9+kO2igTF5h2v8flzSG6yCNjSGtMO5+LqxrGTKvXph4dE4xJQh2D1hmBDIwi6C6zY0dWCVnhMS2HbdWoQpO1clS/RWY6tGHeVaNp1xb54D46IvpwKrBpHVWhRudx95IplFGQC6rIMFk2R14aDQO1JziPdx6pHaH2SGlx1uJLj6sizOetoJwm4Xjx8wCUw3fWmOy8GmEtufgur2F7KK3odVqRQnr1Mh88OeDO0QGklnMrf3MiUJ2EUxYZupnfF41ws7fGV25sc6XTeyb2Pikd7z3e5aP9A06T8fTKa5vY3ZAXmt/f2tjhG69eoVOoReH53Gty+rm7tb7Blf6Qg1nJk8mYp5MxE2sRk3zkTxTxF0yjE8+EpPdXainGGPCNjQCghSpUFCo2bH5QPeFPP/yP/N6XvsV6NkQ3F/FnIDV/6YHcesukPo5dsJPPykl4RSQ+nMYYtMl467VrfO+n9zieVrSLDi5oXNN5JQgiPim8ovlQCJGSGLdjHoVBqUBUMupFMmBiU9o6lEyqmsOq5tpgwEa3TUtncxzusxgxw7IopbiRjxCfji24mFg1D0QQgonydrM0OavSMdzaxNY106MRs6MRdjxlOp6Qd9vceOMmeZ4xnU558JPb+GmJDipmmKLo9Nr0trfTsRicVVx663XawyGtQY/2oBNVlVpTeNj/4C7jgzHVdAKZ4trX3kbnCxe7mIifuFhaUawPCMYQufwG0Tmi470pj8foqcaVFnKHywRVWHRLE4oKk2tUkaFaeWK+aHTLoBJfvqkPwCIerQQ3JanImdBaHwUrPoDYmG3TBHEX0NYjdTLGqiy+dvjaR/y7ToZPIYDTCLFt3PKw5By99mXC5vUlPP/FR4aimxW8MswY5IZLwwE/fviIcb3aU/UUDn7ORzbPVa6Er73yCl/c3KIw50/sgDB1nh893efH+3v4pACOb3Ya9xdpFJsAklr0CW9sbvJrb7xC25xfrL3I6BhNp9/lSr+LD1eYVjWPxsccTsdMbIVX8RmBuJpE+q2QBUU3z1jv9lnrdgkhsHt4yMg6go6MG2MM3nuMMVQh2lxXUs0/+4PJbf7g+3/Iv/3qv2agej8TQRxeciBXSnFUHlArixM3D+JnyfM9AS0aoyO/+Us3r3H78T6jSR0pSQkrdakDu9cajaCJN8X5gNE6sj0kiQxScNRazV+f6ZhbTMRze7TPuC65XA+50usxyIu5h8dFMbcXuh6JEjewR+isHTNEZVAyN5KNDYZDTqjtfPKhFE9+dIf3/v138KVDB5mbBGmt8cozur/LzbffoD3s88bXvsJsMsXXDq1UbAVXFDgs9axitj/m4MkxX/7tb6zgrE1mHlzg3e+8S6uKPhiDKxuoYFAh0BAHVrLFqLYhhED31WsoWqB1zMq1QesCQkk1GkcfE6XwNsSMuQKZeiQnSvSNoApBF5FFQq4wmSIYHXcIOouQiFrNyCJdzydcnGinKoIEYnNnz9w/BRfl+lUd8NZFEy4LWEF8nF/iF4KWhsI4P10RRGtm199m+tXfImjDx03dmsxcK8iVpuh06BcF252cuwdHPDg6ZmJrqtSIYrlYG1k6zTHFOkthNMNOi1eGA76wc5m1VrNzOpHNNzCeRJXx7b1Dfrj3BBsMK0vlit5j6fyXEjGjhGsb6/zaWzdiEE+z/eOOJqPWQKaFVqfFRmcbkU28RBvgKvj5fFVKkeU5LWXIlY50WhU3UJfyFvdHI56WNTZYvHIoo5PKPJrUqaV7G5Twwew2f/LBn/Ofvf4btHQric/0S6UmvnSM/LDax6dMPEi0qF1pjpBG81B673ASaGUZb1y7xJOjI57sCwdjj1UCEu1kQwAlghJPvlQMDSn9FjSiPJro+ayCi5BLUGQ6/heC4mmYMbEVo9mUa4M1Ntsd2pnBfEY3TQPVrKY77EDaWkvDj07ZrmnlcTIuOdOtbQyY7HVorbdodbqYVkbWaZG1YwONR+99yA//9B/oDvu0N/p0em3ydo7khqkbR6y3rAijivHxiI03bySaZmK8pKbDQpw01968Ti/voNsFxXobnSfvb58eUUkeG01R0npkuEbn8jZiNKKzJOQwiFK440eY8ihaEgcVVaoSIPhogGQ1Tlm09ijtUJmCQtBZzKKUAWXySD8xUUWil2iYEfdd2NuqIHMIRXwywwohJgHOQW2imtSvQn5xchmiNmnREm5lGCguDTj+5d/GFe2Iz35KOzmtNT2taZuczW6H1y6vczSecVhWHMxmVNbhUhBzIS5+naxg2Gmz0SlYa7XZ6nboFjlGeKa3UCCykR4dT/ne3m5sPzcXSelTycxpIV/8+8vrG/zKrZt0zMcvET77+i0FbJWRaUP3mW8WC/pGoJfnbHU7VOI5KGusBMT5tCiezTIKCt59+n36nT6/eu2baMnOI/h8buOlQytH9VG8eKIIYdUkaHlkyiTO+QL/zBB21ocMe33ev/+QvePJEqssBm4J4IKbi1kEFbnV4qLhjkQKo9YBRewqErsSxWq8EsUsCHf9mIPplFc3NtjuDRkWrYSdf/IMA5pAo1Eq4I5mVFlBMejHYCgxH9e6eVACRZZhZxVUcXs9uLLFG5c3Y/EzU6eYKRuvXWX3R7fZ/fE9/P0DSh3JW4ZYJEUn3F1rLr/1GptfvrWaWanF907g9W9+MV5maUpdyVUQtfJ3MfgpfL5B5+ZNJM/B5ChdJKhDYcdH1A8fYaoaqxYPrQqSVKth3lxELfXflKrZdfj5V20iRfHk+S8HgqaA2ThrBh8XfQkq+a8E9BLOvvI1xOz6ZABvYA3JAoPLfdTOOqGTfyY7N4hrVU8ZulmXy+1BYnBF8y+/tGvUWmMQtPIL8cz8XeK1PW+44Hk0m/LdDz/ieG6gJSmYy5kY/MlsfKPX5j99+zUG5pxF7zMZz/+c5Xmx2e7F6+fhST2+0KM8C5a/vP0dtltbfGXjrf9/BvL5ai2OsT3Ch2iU1fzb8kQAUvYbt38tnS+9RyBXGcEEvvjKDmtPR9x7ekTl3MrN8GLwPsIzmdIEFyd1XHUDmYIMg5UQHVuNwvvYGZ0QFwwlimMd+OHeEw5nFdd6fTZ6PTqFIWsq5J8065KYodqjGmP3MCbD9AaxkQSAWCK8GJAgmE6HoBRiY0ceo7JoHNXILtIWUmuNbimufu1NrnzpNab7x0yPJrjSYmqPMgbdyWj3e7QvraG78RpHYwMBFbfmKwITk2h/sshYCRLdAVOlK4QQ7WbXL9HdukLQGUGb2Dko1Sbc+Ijyox/A/h62PnkBdbK6NacCYmj62inBSWwwEPBRuj9nL5xdXGyuy/x8moYQ6XslOp4Lan6OkBz10nHFly6CoM4Ved/Q3xlC4amOxxQVTHvpen0GtZXIxoiiGFSEBZU5yaRIi5Ba/X08nvODeAiBw2nJP9x9yLE//+DPrGcBYoSNbpdvfeEWA/XyfErOUrw2P4eQ2vihuNTqEMQw3p9FB9bnHK5Silo5/t3736b9dsGba69F7/WlQuvnOV5aRi4i1L7m2E7xGAJuWXOyMjwSRT0qNWNVCog3wPqKIAGt4Op2j17P8OjpEXtHU7wyKTjGEULAKiGTJDzSUSQkBryPzJaMWKSJ1rcR6xSSz4OPP9+fjDisS65UMy4P+qy1e7QzE+lPH/uBXeC6k0kLpvsE+4judcFsbBCwJJIziIp8WxFMrxttWF1sgKCCxHxRKVCBkAItpMmVaTo763R21s+cbHEBaDxP5BQGGnc5SwttAOWZQw2SIDJlNPlgC9O/hOp2IiNHZWiVIZlCfE31+BH13Q8IB2Ps1BFcbJSrYCk4nM5806RIPTvjfAiyOMfQYDvPqagtVKInuXbMA7vI8r+feJ0WyBWdXov2WkHWKWLPzaOasrKLIHKhOfHxd3YXef8XnZdHVcW7u7s8nk4SKWCJ9ZG+Nvz9OUMlFp/wCjbyjH/x+g2GRZ4WwJebsjbNIub3hKTylhhbANYLw83BJT4aP6UOF+tLMFUlf3j7T/hXr3+LV/vX0HI66fg8xkuFViZ2RCkOK2BTgrUcJM4SNMT2YWe/nxIYdnK61zfZGPS48/Ap05BavgoRbiFEloL2GGUQ5zGiY1BXBvGeTDTgYxahIi6qNYTUQs6LwgfLxB3xZDrhxtoGO90ug06XfJUk8cJDAbWFvApINSJMarJXZnSvboHJG8ZUZLmIJ24ZNCY3mFYxpxKmk4y4eiOOOMk9ZvX6xs+fP6ZzuCQmfOl7FsFcNfcqSLyGQGh3aA3WCJ0OOuuidORjIxqlM4JRODvB/eRH1I8f4kc1bibY2lP0O9CpqWc++icEg3bzteTEkBSIddqsxeMOJzDfZz1UcsZ3zxuiBbRHMqG73mG4MUQyoQ41dlpRj0tsGahT386LzAGRWF9QKvpyN4nKyxpHleUHT/b5cO8QL8tQTBwri/oS1Bl3ZtAymv/krTe41ms6bb28c2kKvw0MtFy018rgl+zVCjRXum1mfsi96SEBudD92y33+ZM7f85/9YXfZ5i9HIOtlxrIZ3ZKFSq8uLR1Px8jf9ZYZXYpBlrzi7euk7/9Jf7oH3/IB0+PsUvbw1hMjW3AglJ4PFlIlgA6qrq8RHqWpGKj1vHfjImTVXQsyB1gmT7d5WA24Fq/4lKvTzvLyT6OiWIItP2IwpW4mYPKIPUMJveZPZnQfv0GMiiiQRYAGQngjdcuAzJD3mqBixmusmVkbITY5nY+odMEjoKKhcnUMvtCh8W2WSVz4RCSw11Y+LuoPCN0+xTdAboY4NBoIyiVoTAEpUFFUyn36D72ww+pjmf4WYWUEcZS1qOutth48wrlXsl47wgZeag8Yhd4u17ZYZwWZLxoNnQeF7u5HlGDENk5Jgdd5GTrGZ2tNkopXFnjZwE7dfiZjfREKxAyJAS8ilztWD9YYrYkaKd2DusdSi0sVfMsI9cGxKfA/vk4YosIpRPuPB3xwwdPcOnBCicgmHlilVKBRlimgG6R81tvv8m1YedTgZOURGpC44vedBaCxg1xqQail74/cbxCtBxQSs0RJS8piKfak9NgAlwb9KjF8ng6PlUHOG98OL7HH93+M3739d+kn/VWso/PI0N/edCKCkz8GOvr+QPqRFYYKxe/AIuJttNr88baOuutLnUV+L133ua9x0/42zsPeTiewApNjGR/qvGp6YDWKjZv1iDGkAUX3dZEMOKJu8fovJanzkOVEh6NR4yqku2y4upgjfWiRSsz6BeYza1QcX36t1g9I/jImvFOqKzHuUNmoyn59jqt7XVaG0NUbsCk5sphwaMRFcAU6BaY0EEl75nFf36RSYmglj1fm8bLTSZOBLFsFlkmOtdgDDpvQ5ajizaYVuSEK43XJpZQU5ANweGmh7j9J9gnu4TjY+ysxs8gVIJKPTU9iqKswHmKnQ6XdgrCNGAnFfa4wo5L3CQaemnR4JstvZqv5E1RVi9dcr+069Dn3IqVgp1uMrdAVhjybpesW6B6BtPNyDKN8gFb1oTK42Y1dubxZWQ7eO8j3BQ0LbdPzc78M6T5LMl4PJ7y8OiYJ6Nj9soS62JvylarYKff49X1Aa9trUc47wx64GcxfIDbh0e8++gBVpY/cXUhaWLUHE5Jo5UbvvHaDV7ptxaCm08wRIH1jomrOahKJtZS+chwA8hNRi/LGBQF6602hc6f6WYzT0qM4mR5IO5YQWlFVytuDIY459irZhc6VqUU7+7/gK7p8Fs3f5WO7ize93MYLxUjn7gpdQoyJ+GUi75HHJ71Tos3tq+xnRUEb7E2Vtm7ueYXX7nKrUvr/PWHd/m7+49xSxNQJeWiSvBDDAzCvO2ZEvKkohOJouRGoOQCyf9FgYFx7SjrAw4mI64ON9npdVnrtMgvkFGJBPr+EWv+Hrt5hgoWpSK84evISMBV+HIXt3dA2e9QXNqgs7OF7rZRpsG2mVucCiANJY8o8Y+iJlkUuyT2LZKl6o7gMWnBirzsyOZpsPeQuN/xWY02wpG7bUjdbsHW1HuPKfcfIscjZFTipxZfC84GxKYg7ONSIQoIgj0co9pZ7NPZ0rR6Oa3tLiIK7RV2MqM6mEYIY1yha4/yQqN0lJCaa8Q3RC89sU04XO4eJDoqf4MCckW726HoFxTrHXQ7w2qPR8hsIC8Fd1QuyfNDFAxZN0e5YrFUIA/suAmjpXscgKn1fP/OfW4fj5lZhyM6AoagqZwlzDyPDyb88OEe292M//znvshm0cY9t7v3xxvLfPGHk5J3HzzguJqBWnSQOouZsvIe6Xe/cP0qX740/MTQUECwEpjWFfvlhPsHh0yTb3wQmfumG6K/fqE0nbzgynDAK2tr5O5sB8jl4z2LQdPkXBrFIM95dbCGExjXZZymzxkigb/b+wfW2n1++crXydV5nWM//fG5B/IFLc0xtmNcysichNNtpeasgJCy22ZLRxI35FzqdLna77DWamNLT11VoMxcEAOgEDa7bX7nnS/y+tYGf/z+RxxNS+oQ0w4lGo9Gh5iRhUiiQxPZLaHp/SnNFlkRMoPzoCUKjUSipa7TUNYVR4eP2a/6XOuvsd1p0y3yRP0659aqQNcfoLD0+hljFRLMEZsEBwtKPFILvqoxoynhaET94AF6bUC+vUU+HGDyDFGa0NDvRLPMnz7jjpDC29L1SkMv/y5xvtHJpCgxYuISSPAB3Aw/OqY62MUdHKBrTygrfOmjnWsVdxl4leAZiAE4pD10oD6YoQuDbuWoQqOLgOTRb11yjdls0d/spC2ywtcWXzps5Qhlja9tXCScEFxUas43RalTkmQaaWVRYFQY8k5G1jHoPDKZrLVRlm8deuagtkhpqUrBWocvo7thsKSmwZK45RE+CSqQX2oheYU1nsxF8dCosvzN3Yd8tH+AC5o8z7HWRqO0pil0gqIqDw9GJf/r37/Hb37pDV4d9PANPCifbvHQhcDheMLf3HvI7ngaVbfLFYSIJcYfGhpq+n1QmkwFvnFli194ZTvVotQnOjwR4aCc8Oj4iIfHE2oTldgmPdON6KmZmxbBuZrpwQGPj0Z8eecK60WLEGLda66BWIJJRIVnHQIaxVqnzU3xfHjsGPs6kaT0uZCRUooqWP7i/l9zpXuV19auk6tElviMfVleWkZug2dsRzglsS6HxstppkFbCa+sb3J5MIzUOxG80mRG0dJRpeWdMJ1GZ7+5F/cZkmhN4O0rW+ysD/j7O/d4994uR7VHlJ77V4fQBGtWb76OWboW0EYwvmlIISmDl+iNnkyjrINHkzHHVcl+p8uV/pCN1iKgnxxGAh3/FIOie3Wd6e3DaCVK/MyAIFaiwtVHqbxYh5rWqPGU+slxFOf0u2S9DqpToLotTDFA5QZl8jkHe3Wkz1CLanvzqsa7PIoXk6w+CHiLcxU+2bgyHeOnU8L4OAVtj6stYmPGKh7Ex2wZ32TLrBSgUAE7cVhrMYXB5DW6pdFFji4qQqbQWfRLkcxEe14Tg7IZ5PE/NYjve+L2r3DIm5qveELw6OCjv71z+Cp6h4sTcB5XQ6hi8djXFqmbBaJReMZzieujpykL6kzRub7GQdFGp1RuYh3fvfOAn+6P0MlGubTRltU7SSyZhUNgvD6Kg4nn3//T+/zOO29wczjEuSS8kk8pMAThuLZ879FTHhyO55DYCtV0KQjNmyTHW4mRwNuXt/jF12/EGsAnXF8CwrEt2Z2U3J/Mkiq22UWtQlRNYrcIzlBp+MGTB9wYrvHKcH3FfvlFh1KKYbvNFdvlzsRSzt3Wn7HD1oqJlPzB+/8H/8UXf4dbw9c+9ue/yHhpgdyLZ+ImCR89vV1rxmavy6trm+B8evBj9is2djNpUNzoRHYxU6LNdot//tZrfOnaNn/5/l1+/GgPr1QsyoVFH8cm+1AqUhKDjiu1FkWuI2YeMc9mxdfpGZP5z2OxTNwxT2czLvf7XO0PGbbbtMxJSW+gVc8iw2S9R+vmOtMPn2JCvEWLImQWPT0kZsHiFMoKalZjJjVyOKEsMmiB7uTkucHkGbrIoSjQWQuVF5iihc8ytMnQOsNI9HnxsmhI7YLHe0vwjqyeQR0z3uCjiRTWRjOpKnacDzVzSbsNiXni4mKnGxc8FthqFCJF/3OtDL52iANXpQJjpshyiyoUJk/diTIFecyetdaEPJmFmYygYmBcLESrQbzpdBQJPy4qOR3IkumWJNaPWMHX4OtYXPU+oJxKXj5J6MSS50i6h7XRDG5s0r4yjLYPAqULvLd7zEeHo7jI15Y8zwneUbko6Fql9KVnJIXQ49Lzv//jB/zbr3+RzXbrk8SmU6O2np/u7vPjvX3CsqnXyqK/mp2LyFzb8NrGkG++eoPs4ze7XRmVtRxVM/am02j4qZZ1JHHopWx8eTS/GwfLh8eHYDSvrW0gtf1Y1i5KoNCGYbvLplh2x6Pn8stFYmH2kpaptQAAIABJREFUid/nDz78D/ybt36XVzrbSTfx2QEtLzEjt4zqyXxinIW9Aax32+jgY2ec5B1xUhp9of4CrD7UHQzXe0N+/6tf5R+2HvPXH97mYDqJ+C8KJGYfPkRZ/7xrtxG0FlSyXjUSO59oURiRaIkrCq0Fo33qTCQc2ZrJ8RF70wnXBmts9/oM223ylGXgBWs9ojxiPINbl9HHjmp/ggsJ65UMUPNACERMNijQDmcNXoEqLTrT+JEnZApjhMzEPp7OaMQYlInwSMhB6wydntuAICqkorNG+8hNr4NJ7oIB8UvwRYBgJWbaXubKSESlhS0Ja5ZojaITnp95il6bbt7m6OkoLqIqoFw0s4rYdbyWPosd1bXWkAdUJuhMR9e7BM03ysUGQ21ud6MdCkvzTLkky/eCt7EI7IOd7yDwpKbMjREYaA+L8m9URS4e7IBk0Htlg/UvDHHOQ1rLDmvLew8fczyr6OQFSmmqqsapsMrx50QmrFQq1iomteWvf3qb33nnC58KqNIEnI+ORnz/4RNqH31EFm++ukAtfhv/p4LncrfLb3zhdQb5pwcb1M4ydTCt7VIj5ZhcKFYhlZNjvkNGU4nw4cE+/Txnq9XFe0dTf70o/0AU8fkPIRbzRT0TNWqgYQkxWXkw2uVPP/xL/ss3v0U/X4TazyKgf+6BvOF1ln7C1JepDdTZ7ae0hn6RE0KypDmnEv6iNKd570OBlvb80iuXeH29xz/cf8T3HzzhsHYEpVcKZXNrXdV4vqQsXKeFJcQOo5nWhCA0Bm8Z8aYqHTHQgxCYHT5lv5yw0x2y1e3RLzIMmjC2lJR0CoW0DYOf24Gf7uIej5G6Oc95yrR0bCRfCMGr+JApF+XZQYPTmlL7KGU3MZONvGWJWm+iqT8noJeI/caFQkRio440sZe7zusgqYuQijuHhJCpM1dWBXhUG7qXBvS2+5QPJ/F+Jy56wwuPMS4gOqpxnVYo5SLNzKh4yOl+NIEccw7+OfcISR4r6fi1j253TbBWIe3GQ1TzzkVJZ84xnZgwATXI6b26Rf/qGq4ao2aWYCa4ruP+/hGz2sfil0Sv9oXgpAngrPy8/DuVdov3jmbsjUq2u+2zDuaFhpfA/eMZ371zj+PKzp/LxVh+zk5m5J7Lgw7fevutTzWIiwJLYOaSARghKVdXIZT5ES793Aj4chVhRIjQz52jQ9a2Wi8UPJv4UPnAqKrYm445mE1jknQGrDLfaSL4OWU3Upjf3f+Q4e3/m3956zdom86pv/20xkvJyJVSHFQHeHGEROk7/aKACZqeKcDpM6vMLzqaLGRWO2rnIpM6KDRCngm/+sYN3ty5zF9/9CE/ebxHSMrQ5b/3Pj7waJMglOiPErMBBckyt8mclYnQTBMURISZCNVswkFVxQy932e7MNipR6oZdCB4A52CwZe30RtdJh8eYCZ+HoBOU8LSZJcwv1YhebR7IgTklQcdH9qFoVQTUE4HvwhDJDk6C1riMsNIicanTj1+LtZSp9+nEWOYgO5pNq4M0W1FbcfYehaDr+ilzvWLBWvOY/Zxt6BSsXXFS6URPCm90g1+MVYXZd3UW8IiKwYWzpshco+b4znzHVVc/1qX+6y9sYm0NHU1QSYzfKVQg0Dp+uyO7yFKk6dFprL1uVDi8ljN0oVRaXk8GrPT7yK+KVK/+AgI+2XFd+/eZbcsQelzFl2WPn/x/WaR889vvcp6t/WpPJcrnxUUzjfunednr6csG0K0k6h0oFAZIUEyh3XF/ekxV3vDC4qzouXD2FmOypLdyZRxKAmEM3ULTUxpEoEgTTONKEScUfOnD/+Otsr5rTd+jZzizOP/pOOlea3sTR8n//EF/jXHNFVAxNPJclq6oJbwiU68EV/MnOO4LKl8YOpqRt5hg8egyDLNMGux1e7zb772VX6494T/+MP32S9dxANFx8nR2OU2VrHBx27eEptZxQ5E0dMlFkzDXAqsE9SQG0HEUGrPwzDhoJ5xvVVw/aimO5tgS0VwBmU9Wa9F/1qf3maf/Z8+JXsyJTg1zyKbscDQ9UoH3LmwJX2vVBa/X7lCYX4PTt4nPY9rZ2Vr8fHXYlJl/uQ9StCDApNFXHu406W9VVDZKeXY4sYOqePfrniXSNPdRmIDieb00mfFILs4FCGl05w9V+I8a95EpUuUFoGw5JJ46i9Pn49SEbNv9Tp0X9+g2CwI9RQ5toSpRc8EmWVsmh/S624wqgy1teSZjlTFc2DEk2NOkU0WBB54cHzMz9+4jAv+YxU8RYSptXzvwS63x5MECz47iC//axbga6/e4Np6KiyrpeNcrkd8zOdVa43JFq3bTr7Xs7Ly5nirVO9xIc6JvfGIK8N1VGiMv84fAWFSl+xNZ9wbHeN0kySYldc0X0PTPyGxl3zC8+PvPUo8NsCfPPxbNgYbfP3yV8k/g7D70gL5QXmQVq8kzYdFLJHoSrjebSH+EwZxEWwIHNcVB1XJcVUxsRW1NKWktJWqA0f1jN1qzLXWkC9vrvPq13+Bv334iH96+JiD6QxBEzBIiBKipomxUo36TyWKIrFACohOMEtYKAQbpV8IgtaBmRju2RFPZ5adkWNcTslcRl56XO3Q7QLTztn58iWqgyGz/TH10xI/sbHlmY9Z+FnBQcliq6iF5T388qvOvHbL2VbTNOGi90Kp1Be1o8j7LcyaodUvUEGYjif4aY2dBmQm6G6HrOOQkU2QzQLOiY2RZQn1abLw1TZm8QcDScF3+jqsFswuOiLk4GMbPaPI+obWekFrc0BrvYPyAT8e4WcVburxM0coFWINZsPxVfcjvmcus+fbzMTRMgXK2lNqyfM+O56jzM/JpfZoZzV0eN4QBdY5frR7wI+ePEFcQEmsOzVMkNN/FBfJBnoZDga4oPnencdoDXme0221WGvlDNttTIrmH+eJVQLtzNDPCvYSg+esIP4sY6r5YrI0MQ7LEi+ODEugdW5zdVFwPKvYm03ZnU3wJrWIa5KZVK9YZN6S6lULtbEQdxWxTBRrLCLCuJry7Z/8JZvtNd4a3vr/RkYe8OzNDhdbkBMXVVTM8ja7/YSTfvyTDghHVcmTqmJvNqKee7mc3aqqdJ67/gBvK17dusKv37rF25e3I13xwWMqH/FzCQodIvYNS5CDCGCwKnm2ZJFZI0s2sCp4TMJ30SrypxGsz/C1QZzCS42vAlldYLoO3y4w7QzTyxkON5FrgeqwonxyhD+oCd7P8exlgdXJ8/ssh1KCmLhDkV6L3naXYpBH3bOHUAb8qCTMwJeBYD0hQDbIWbuyxWT/kPrpjDD2iI9eLmauWFlADCoVnc4e+uy16oVHQGlB8rgbyDdyupfXyIctdKZABFfOYOawM0uYBnyl8K6FrzxKHNoH+rnwu1uHvLc/5I7rImKjYOgCU3oF0khfu3mOdy8OqwRiQvNgNOE7d+8xqZMo5kTGfdYxNBL82jseHu3zaH8PRGEyTZZpuu2CXp5zqdXm1vYGt3Z2KIJbkc1fdLSznK6u6Rc5I7fozPOs4P3MIRovluNqzNW8oH7G+jmzjkPneFJOmTWK4KWLs0zKaCC4RcP4xrc/ECSZuImeFz5FBe5OnvA/fu+P+O+++V+znW8+s3D7ouOlBPKxmzJxMwKKMMeTTkZzz3q/RyjDuSvo80ZAmFQl+3bG49EYdwJXPaU/kpiFeoEH1YTW9Ijr/TWuDdtceectvvrKNb79j+/yYFITyNI2GxAdC7Iqypw1ERf3SjBotEpQi0Q8vimk6tSxSElk4TjROKvjTQkKV3t8PSOrNLptybsFql1Hv49Oi/ZOi97Vq/iqZro7YbY3IpQOU+nIdZ5PvLTd42ImQGcO1bgFJhis8bVI11RnBt3OKLbb9Db70DZ46whViZ3MYOKREuqZR2qFbxguRI+dbL1F0RoyuDrETy3l0wnl0QxdQbDxfGI/zIV97lm4/gue0nzX1AScuWd3ZlD9guxyl/52H9MqIpxVV7hphVQWqSxh6rGlEEqNhHYKsgXOlejKoYLltVbJNzaEu497BOXnDY8v8hDPvdkl/t/ltU28/3jL8v605C9+8iHjyqdWfHCykHlyRL546qPr/bwWU5hmgQ3UlcPZwKG3fHBnzNrde3zz5g1ubW1iFDyji9ypYZRmo1UwarWYuApRi33h2RCLLP18dlHaG8W4rjHtFmd1QwKwEjguy2gFMHdaXUSlRQBnJVFaDuROQlIWSxKKRQAvSLSdDih+dHyf/+Fv/mf++2/8txRFMT+ST2rz+1IC+dPqKc4o8NHjBE7gaxJ9G/JM45+jwHrWqJ3joJzxeHKM14uC6SlTnbNuvtI8no651OvQJ0cruLHe47/5F7/C9+895t0Hj7n39JCwJJbwLnbwFi0oLSgVmS3Rv8Wn1nPx3zVEGCbEXqQeqIOCoHE6YOqAOE1w4OtAVlpC6SnaGartqEuHahkoMnSe0bu+Qe/6RlQKjivCqI5Zb+VxlUPq2KAaHxae4ct2tGeNpWyqgZh1bsjzHJJYx7QzdNeQ9XKytkJqj61r1LFDSo+fWcKsxlaBYAM4RfBp4ZNoCJVlWVwlrKcuJ+iiRffaOr3ra7jaE2YWPwn4ysWfqyg4wklSh5LSnueHt6aVgtKC0hqTaUy7iMKjlkH3DKZfkPdzVKHii33AjaeE2kFl8VUdOyrNLL4UcO2oOxBS8d6hxKM6Cq0qghJ+6dIx/8ujNUS350dykZ1D8xKNsN1rszNIqtYXXJCPqoq/v/eQ3WnFRZaBBRMjxj7nAsHHRS43CmM0JnXSMsbEpkxBYZRGjOL/uXeXj0b7fOXKVa73+uiwmkQ8q4Vpp9VmrVPytM6Yhrh4RJz67NKqPieANyPCIw3v/+zhXGAmnsNqurJgLNczvIQ5Fj7PwBNi4AKL3y39e5ORO5F5AfR7B/f4n97/D/ze279O33Q/laz8pQTyvXIvtaM6/+oP221UXfNJIIHjasqTepLw8Bd/n0ldMrEV/SKfY81trfjaKzvc2t7gpwcjvvOTOzwdj6KYKGWLkUcd5lCtSMT7In6uo9RedAru8UUVwmHWwipPnuAm7xsoBmwSyvgyoHNH1raodoZpGShyfGaRwhByQ7HZQW/FjgbOe8QJxhLFPDY1EraxL2Vwcqb6zRgTW7IVitxEm1xaOSpXc5pfhIUk9rh0FntYE2qHtwGZBcJMsKWL0nKb+Nmo6F2esh2dG1rrHYIJZJWi3LOYlhBaNgqZ8gw1LMg2TVT5+ZDYQQK1S54ndt5n03uZZ0nNA9LUJsgUKjPkuUFaGaqIYimVKcREAVK82B4JARlHj/dGoRpmDl9ZvDOEUuErkJChMwNh0cxES4Dc0NvqIji0GNaKgkxcUi838+Ls+d8wihaOlB7B8XPXr7HWbkVo5oIZnCgoneVHe8f85HFs4jIHxZ/1d03wCgEXhOCTM6NhHriNURht0Ib4VUVPf9EKlGZ3MqW6e5vR5iW+sPP/UvdmP7Jl2Xnfb+29zxAROeedp6rqqu7qriabbNIiKVKWaJkWYEMPNmDp2Q/+A+z/w/+DDcMwINgPgmEIBiyZsGQY1GBSlEST7O5iV7FrvEPOEXGGPfhh7XMiIm/mHaqrbtMbyMq6mZFxhthn7bW/9X3fuo0N1zf72Lh+Igf1hCb0/PT0TLtGCV9d5B6FrWILH68+diTRB8+y7VZc8CEDX2t4E68J5JFVZh5HncdmETShzboT6rr4Tz76F9za3uc/ePRrOBw/x9UBbzCQjyu8RI6WzzbEGZfpTUhkp641yHzFLUcXA6dtz0UflDb0mhlMEl1Fny0X3ClnWubIaYQVYa8u+fW7h3z31h5/8JOf8i8/fkyXsmkTASFnniFhHTlwk2lvKhpyETAGHyEa4dNqh6UtqPyqO3pKokWpIEiI+F4pjWkBpuyJlcWWnjCxSKGBqncJay3O5SDjCvUv2a6ywGLg7WdJ+WVUK38eJq3ENCkl7WUYlGidWg2eyQdVQnbQNz2+jaQ+EroIYQWhmKAGQin58aOIArPphOL2hEiimzc0Rx1SddjS4qoSW1g10CoNhbGIs4SqJJUGU5daYDay0UP1Mp66yi5z4TxneCMXPkYk9vgmQOdJXQSf5fpdJHQemkTshD4IyVSkRlWoUk6UMtctMS5iTQHGURyW2CnqzQGcdQHEbuglrkstBvWpMoUiLgY+uHPArz58C5tefYeaRJ+DLy9O+Oc//pjlCCusXI0uZ5/DCHme+BDAG6wkrNPsW7NwgxOVIVhjEdE5Z4wGXZchqqVP/NnTJ0QxfHDzFoSXJ1UGmFjH/ekOjbF8dnI8Fl2HP31lUQ+BiTHszrbpO11sr/rbzkca349UQpJcCaFEMcSUiDFkSHX1mpADuP7tqhYXYyKkkPF6Nalb+Ib//l/9I761dYv3Dh9lHP2rN3B+oxl5SgmP52l3gvI+/LWv268m2Zr1xX0FrxtN17MIiT6x4QP9qmMw5ln6Buvcii3AJp615Ry/9/77fHDvHv/i40/56eNjzvqW9QWoDwlJniJZZUAkg42QrJCi1+1ogp/WN/jzrYf88OynuEz9W2+eIEmbU4tPCiv0AbNMiEvY2iBFQpzBFo5QeKLrVTTjCu10ZJLKUy2AheyvEi8/zIMMPf//0F3eev2eYlT/EZ9IfSR2SeGOnhUtMguEtMfl8N6bn2O1U7H7w1tEkzAh4Zc9cZnUUdD1xCJgnCClYJyQigJTOChaxFntMWoNYvM1GFV1rjddXr8uk9jIqIZ+onriXv3DB3+YLhL9YI4lJK87JJJBBpWXdUTfIbbE2IrQN3hpqbZKZu8cKGREIqUe4hZFOaUdqm0y2Es8f54Dfm1TZFJafuXBXX73vXdeiT63PkJKPJlf8M/+/Gc5iA9j08p5NdbfO/v1R321zX1graBFTtGfDa3mnM3BHGVvSVZDD1Prw6OnFIXle4d7SDfQ9K4bAgbKsuR9Y9iOwqfzC+a+Y1QIm2ye9ZKAbknc397BxeuLukks0aj/U9LN9Ng/eF0zEdBFPw0JW1rh42NROK6ycWDV4HutFphyIbSJHf/NP/8H/Fe/9fd5d/8t3M+BPrxxaKXpGub9EpCV+GJtiAiFcSqqeRGQdu1QV742Chddoz/5isVS0MAkZpDpXm/yf397m7/z7W/x54fH/KtPPuPx8Rm99DC4BkahSx4XDdbqDBwSpGiUg95byz89eMBv2CPi8VN1YYyyllmutobKubYqBe+FEC2kHnEeawvECd5ahQuKPlsFRLBZ5i6OwYBo6F+qx9DgTUrqQRKAzITxIagfSYjEDGMkD5Ll+WEIkkPQiIwc5eExyjYxVPs1e9+7AzOLxEhqPbEL+p5RJfR9FzKMEzHO4W2LtR7jdMEiN9IwlkwPJLtVZiiFzevSyxoaQick1wxCvq4QEuKF1Jos/EokryyEIbNKmcYmtiDEntAtMaHHlJWqj7dg73t3KLZLfXCj3sdd4/jhO/f4ow8/47wPWku5BlqJmel/azbht997i3du7KPigFd/0FNKnHctf/TpUz6fdxvo2auIbGLQL8HiMpw24OFOzBikjYDN2beToel39iRCX5PyM/PjJ0+oCXzr4CbX5HDrZ6M1JWN4sLPNVl3w5WLB0cUFTZ77LxqRgE2RB7u7PNjbI4TA9dKuHMzTChodzNBSGhb+rLbIQTquJQQpO7cOUMpw/9dfN2ToSvDQF3kiX5wf8z/9m9/nv/yN/5Rb0z10b/n6Af3NZuQSWbQLfAz0QwODXKdY52rWtsSNvN+vVuxsQ1TjpvzAfFUFWlGo3PfayZ/PuyPSpkBpI+/d3uXwxi4//eyIi4sFGUUbJcjeQ2kdkkTbx6EPRNUHjgrD9MEOwVzQnfSI16bRw8QwxuXjGoytEN/hQ8DGCt910CUiPj9QkeQEURATYwUR7XaUTDtmrkNAB3TmDg6QQYVLKVoNaDkA6tZzJXVX8Y4hRc0yr7LsHMU+JmEPCg5/9T6mNhACXduRFu3ItCFlj3PJ3uLGaoZsEj1BGSWDwtORrQaSbjJGWGXNsnTknK+ypCxy1fsa1FNDg3UkhbBi+ARVioqxqpRF1EgsBlxRYIwjBU9oPeXtipu/dI8w1YVPoi52nHWUKfLBvR32ihl/8OHHPJlfXBuXDyrLb7/3Lh/cv4sbvFhegzeugrXAj5+d8qPPnhJ8BDEbv7/u74bvIT87xhiszRCK1TklJmGsxZAUGzf5fhtBBmO5LKQRctBHiNHxZ0en7M6m7BcTUrz+mlbmXRraDuopu5MZze4BX1yc8Pj8TCmC1zzW06Lge4d3uF1N6Po+7wyuCeLDbi0v6iGnHXE9s869aIcAr7mKXMLNB4aYPkYBTb5CTiJA+wqkpOK3GCM+Jf7vT/+ER//mkL//W/8xNYahR8DrFEHfWCAfKu3n/pw2dkppuuI8hcikLNSi8itm0aDY2HDcr95yKrJbTrRgKGg2fs17xQBHzZyTbkmUxHYJ339rn9PTKY9PzjhfNsphzQ9kHxMWGNrbDfKkGCzt+ZytG1Nc2dOctkjjswWsHtwaB6IeNOJqpF/m3U22FEh5JyGQogf8CKFsquVevEimXGkndlr5z5l2ipaUg7cMEMzLFlyTsLsF03s7bD08IJhI6JbaHm3R4Zse321mnSlPfgIEESTq5A4hkkSvSbpVyzrMoAjcpKYNytX1QKWnnF8XkxZfc9AMuVlwrhRgTZmtAYIuZKEb39+WU6g6qrsTth7tQGl1MngVB6W2x5+3iPMczqZMC+Hu9nf4/PScJ+dzTtuGkCKTouBgNuH+7jYPd7ezzcOrURQvj5Ain5xd8C/+4jPa8GIQ4/JIcbi/WrgcgnhhRLNvZ7BiMGKUqWJMrnvnhIQBgkkreGUQcUmgj8LHz47ZuVu9AuS5VvdI4BLMrOXd3UPe2znkKDQs+w7vtTmNAQpTM6tKZlWJiyqgGqmJLxilhaowSgYgwyDZsjfmBCVBzrDXA7dCKnFMBPJ9HDa2os1qEjIG+kDK9RkU+4/wP//on7G3s8/vffc3mUj52jn5G83IRYSzeI6P+vBdJ7abOsFd87uXjZTxRfnq0VtHNrI/nMxUbPOCW5tSYt4sOe1aWm0nj8n88Zt7JXtbB5zMl3xxMufovFWoJaWNgq86tgkuFZzPOyaTlmqrxk4t/jzQnC+hN0SfM04Uh044TDEDEmIrTIrEMGylh9kCw818WWC4yoUvpTRulYGMEz7/uqveBwtMYPv+AfWdbdyWGv6nRU9sWuK8I8w9ceExHawWhM0sejAMy/mRFgLN6rrWj/uya9wssBstSA7QtQgYtfYNpNxsQh9G62qCb/SwJpEmnq0HFeWNPYqdbNTUe1LfERtPXHrivMNfNHT1glIitqqYFoaDuoLbN/RqBIUrhsX1NUU06yOSOFo0/F8/+YTjZQeSP7drPqfn/j4pDu/E4KzBGoO1ooHaKs9bA7gGcScrVpCRgYe/rtdIY9IweJV8vmy4u2i4M50pdPcaS836Y71nS/ad3vdR5Dd4Do20VHnp25ukxdlZUZHiWQ7kAw6+qqckWeeNr758XIka1yEXvZ8DLKN/51NccwddvUcTA//dv/5HbE22+Btv/xKlDA6vrxbS33ix8zxcaFFh42FaDRGhLgpV1b3M/PeaISIUX8OVzaqSylnFgK8JDtpRxnMeO877Zi2sxHH+OGc43JlyuLPFs4uOj748p2kyfp8kd37J2XaytHOhawKxnVNslUwOCur9kvZZS3O2UE6sgEhNDD0pRZwUBN9kLG44tslUtfUTfvE1r34tzwW8NWupa+JCXD3AVpCpML23xdaDm5hKBRN92yHLTql8jao4+/OO5BOGtaYbLzxPMxzu+bEOE12+to2TXlkaqCfO6qApeqJ1GBxGDCFqMdQUE4Wlykh9t2Ln0SGuHgRKIVMUW0LTkZaesOgIFz3dsmMRFWKTlIOhvfoBTRsMq69Q5Pc9f/TJl/zFaYOsxbAX6gXWXqO0TYVTTMbETQ7cVnLANqy+S+5EtZZ5D1qhFbw1XIfOjwj86OkX3Pned+Gsv+ZsXj6UPz4kNvmYrM+f4R6/+D4aEQrr2J5MKY4NbQyZKrtKsi4nXpsBnVUxcwzQA+9cRo7QIKxKOdscFofhMk76Jf/jH/8T3t27zVv791/rXrxR+mEfAxfNkhj9GAguTzAtmlgIurV83SEipJiYVTWFDfjBQ/h1vCkk4lLi7tY2tQKv14oOUopchI6z+SJj8c8fZ31jd3OrYndS8uR8wdPjOYulx0cwISolWxInwEEfSHND9C1h4rFTw/TWjPLGhH4RCU1CukCIBantIHYYcYTUgcSx7iBX4JCv8lDrea/5vm8sZHbtn7nxhhGlBE4dxaSkOpxS39mG0hC9tkdLvYdll9kpAb9o8YtE7CLBR6r7e0zsjP7pKamJq+wmbGbpoLj8dX4ZV42hTrJu1zpcW1rzFR/QfZMi4kQL0aVgqynFTk2xu83ssEQKo77tQbnm0nli0xMWPb5p8ctAWHhSk/A+kbqWuFZ8/XlVqZeveeAy//mTY/708TEp93xdKThf8h4pEQhYEawVnNHFptA1WTNyw5iNu/wzxcRzSV/SyCWHIZDnXc7gK56VzBd94PPjY+6Xu/Tr7fhea1zB+tn40ave40ghMHWOm7t7XBw9HeETzc6VzaINcIYi6MqnPo7BfP1Lg3gYAv9wj8fkSIiJUVcwQDEfPv2c//YP/zH/9e/8Pfbr7Ve+E280Iw+h56Jf5ArvaqO8PlJKzNuOUMWvzKlMApU4diczlvNzuMJ+8kV/m1JiVhbc29pX064XnEdKiUXyHPuGINf381sfpRXu7824sVVxdNHx5GTJ+cV8xM+6VJC8wcdACkLswDaRMFlgdrYoD6cYYwi9x7eRsChoTxfQ9ppdotg7yZBSGA2v1s76Wvjh+iC/WUSMApiE2ESxPaXaneI7lOGpAAAgAElEQVR2C9yswEwLsCgkNe9U4dnq977pCU3QzvNdQLqIiYKJ2ltx5+EBfR3gPNC1nqbpkEZ9VxJpbdubxibTz48Xw2Cb1x5BfG4urdi4dRZTgZta7Laj3t+j2K5JtdWpFFuCVx59bBpS7wlLT1gE0qKja3vtLNQDXtSXJ+P/iavCz88/Iokny5Y/+Ogxx8s202evp9wNY2NhExX42KzcLDKV01rJ2XfOuPNrJWfpm8ZxShce3AuH143zZ8DLsfzls2PuPtyF7pu6K68xjLBVltyabvHs/Iwjv8jZdIZIolpcpGjXOOKSf54D9zqkEgY4RYP1kH2vsniFWPQ9c0KRn6vf/9m/45d/8h3+8+//ddYN4l403mgg9zEwbxejwOSqzy4Bn87POCim7NU118SbFw7JuOCNrW2eLubrrq4vHJrZJIpo+JUHDzG9J6YBHb56dQ8kll1LL68/GcvCcXvPcmOn5ng+42efn9I0DZEy97hMELNlrbeAJUVPOF9Q1Aa3XSE7lmp/ytaDCX7Z4s9b0lFkuVzkZZ4c0Fd8V1LKwf6Kx/wKP4the2xszlhnJdVBxXR/RrU7JVVoRp5S7q4TicuG2HRIB75Xe9e4DIRlou9CbsKsDSkkCV46qkpwlaOTiJ06JvsTJoUQfaI9nxNOA2mpvTaJ5Ea4awq8bDWcrpJjjzjtpqueBhpLsIKrS8q9GfXNPSa721AEvFlibElIBpcMpvf0TYPvFtBGYqMFTYWKAn6palkfdEue6QpIMYVkv5F4JQkWXcM/+9FHPD67GH/+KjsvEWEymbBcLnNx0mSKoQqtFPuOmZ2i+Pf4/xlOMZmpojuAmIvOzycLIqsdnkFY9pGlb6jFjQHwFzmcGA7qCbe2djhaLghp5e2Tkgq0EkED7lqhU2GXVeeuQckdcsK6Ctjr2PqKez4ucvnjMj7wP/zR/85/9t3fyFqEVzj3b+aWXD3a2HOe+3Qqi+UKjDwZ+hj5t08/ZX8y5f7WPttVtdET8GVZryStF+2UNbfqms+b5RpY+OLVrTaG7969yRShi7IqQF0zQhSaPr4edLN2nvogCLe2a/ZnJUfHLccff4hpUBwtaFuxIBZZKASTiMRlpO9LbDHHlCBVAU6obk+xDxxb6YCuT3SNGjyFpoc+qZQ9qqxiaB48FhZZBW9jDFKiniq1w1QONytxdUFRlSMVMRFVPNEHUheInUIoqe8UK26E0ARim1uq9UAQxe6TgaSYaXAwu7urNYcLj288UntcabC1YbpfY285jDg6D9F7YtNlwU7E+4jxaz4y6LUNmH0Cgom5F6jFVIIrLbYukGmBmxTYsoLMQQ8oZU/iRNk03tOHDlkuiMtTYh8Jy0holW0jLcQuF7KCIGP2kPAY2rc+GLvefN2j8T3/7vNn/OTLZ6S02sfGazK5oamGdcIPHz5gkSI/+vRTjLE4Y7EmKUyCWi4Xxuo8HeiGkvnjSdSzZo1uyJCdrxWd5blsXOdalwKLtmNSFT8PQe1rGSv6c8gLjqVPHn0IsxR/SIQYCqAaqD1XwCoZU9fXKLgagxZN47gLup5Nc9Kc87Q944bbzx5NL17o3mggX4YlS69tvV6YLSRDh/BkueSk67ldz7h/sEcpBpt4ZcJ8heXuzgGn/RcswounSkqJKsG3b93kblnTtUnBwJcVB5Mq4L6OUWO5eWPKOd+mO/1LbLBgvPLFjSMkQ2gjtiiJHvrTBqTFFmCqDlNZYtkhpUEKhykd9czCbrm27R2wvjTSCYcRR9ZBVkcaZR0kYcwsiZGwXGrmnRWf+B7fab9LOlVD+s4T20RqIfRh7IOp92zoPJ+LQAL13X3sTk1Y9IRFIC4j0vT4wlCUglQOV3ooBCkdprCY2ZTaGJxRH5YkirWGFLVomMeYGRoZC3VKa8gBP19f8g0pqRI3BjWBUrFTgF7hobho1d+lV0MyFUUNnjUD3LPaEUSBfucO87e/R8qdor6uoTtIw0enc/7wLx/zOmVDI4EfPHyLv/7Obf7wZ1+oCZZ1uciZMXExudi5gk50bmThT97hbDJVrujctPZ94/yj0PieVH0dd+OrjZQ062t8z7KPfH5+yhcnp3Re2TsxgFIEJUN7g/BnkPDLJWhlrSA6ZPJxlVik9CKFqX6PwLYtmZTlK1/HGw3kF90ZbfQMtqovGppFWbqY+HRxxtHygvfv3mXbFs95g1w3DLBd1Lx/+x4/+uIx87ASIY3HSYBEtm3ihw8fMcPRhazgfAVfi3Fb/zUMbxOI52eHd/jo9gPe++JjRKYk1LNFXMT7jhCEqqq043vqCQW4ZQFFIhRgi4S4HlcJqXBZzSFEa9Qs35qRp5wy93pQv6Yw6ArXWAxJOeQpJfVb8RETJCs/wyhpD706EyrJIxH9qrfnquPPZgOMKBG7M2X3vZu6sPSQWiEuAxhtDZccWOvxhUWcwi9SWiiSEp2dg8JqX4msrhJkvLYxsAxNlfVMdB7FhAlRu1XFDA0NjZMDpC4Qeg99ouv0Oz25ETWjfQGoTbFe2hquaQu6938Nv33ja5kjw0gCjUT+4svH/JM//RlHyyUmmpd2eR/G/Rt7/Idv3aZwwva0oJ6Uo/bAWE2VFCsXhBX+LYPQJ8MkVwXxYbzMQ3yg820I0t7QSAI+Rhah42TR8/n5BV8cnXLiO5K3owp4RUOMRMP4rMcRJhnEQqvXA2MAX7FY0kvRgCEslhH+7g9+k2lRbxIOXjDeKGvlyeIIgLgGOV8uPl3tTma4SIEPnzzhOzdusu2qa197+X2sCLtS8f07d/j8+JSTvqVN6gdSiqV0cHu6y9v7h0hM9H4sb7zSdRlW3VO+DjvKoYnylw/e4tvLJ8Rlh5EppETfd1jriL6hbcFJQfIB8Ylge6QVkngN1k4IJVjbIc7gC6WSDbSDzgrJwaiQHCCItSC7olYlCGB89qSOkr1e1Jo29DF3nYc0ug8KJiivShPe4X31+xBwqplj67tTypmQYiD0XfanMIqDh4D0QjQCTiX7fuER2yMlWAfe2hzsdZHKTk5qJzySbjY/m7T24JkgxBB0sQqQ8rV577XJh09Z9adOlBJsTuiz+nNI7tcwYCTSV4nZwz3aezMQhzaYe3nhPQl4hPNlx/FyySenZ/zs6SlH8yVN35NSoixLUkosl0t6tRx85SA+rQx/6+2HzKYVIQq3J1P2i4LzmLNxDKVJGAFJEWOtBvAxiOtFa+BObHS6HxgrbAbxFad8dY0ja2iEGb7esZ6wDQXFQKLzPafdkqeLJY/nc748v6Ab/PujdpmKMVMOWQXsFMCv4+B59xXiZiYOjM3aU5JRWGQHiVlazf9VK0WoXcmNasbffPhL/Be//ntYilcM4284kD9dPKMfmkiMK9dmNL72tJPhtPd8dHTE+7fvUL7GFtUAW8bx7uENmtDTB4+IPu+TssKKoe/7HERfb0IN2cQr6A5e/l4pn61E3Gyb6Vu3CF88w18AyWClJMVOt/oh4Edt3FDATCBCCBbpI6ERxCaMDWAMIkGzcTFEmzLrxGDWaGJXBfIBZkghjrJ84kr5NmTdQ7YiOSu9nH0PIwokk5jemjL99g2K3YIYA2HRkeZLdVVMwznozU0m+6PkhQeTMI3Qm4SVLnuAGch+Kwzb/7VAvjFl1h++sCpAiWe8vhgjKWa13vD6XMA04xTObBfRk0352qqZY/vBNnav4ln/UmORcXiEx/MFf/bpl/z02RGPL+b0PhHEbBQEF00HROQKg7DrRpKIEPidb7/Loxu7kDHr3dmUW1tbLLpjrCkyjDIoMwdrh7Xsm6EImtYCtAzb2/F4L8vIRUTNtngpgvlaYx2iiBnj7nxgGQJP5hc8vrjgdNlx3rb0afBDgRQNK8MrMxYpIQdmWRcErfmNo8rsmBckhVVWc3fj3FIaW1umlNguZnzn4B7v33rEW4e3eWf/Pg/37lBTZubRq13zGwnkKSWSRJ4sn40rXFyHLday2Y0GE5e2aUngabNg+8vHvH3r9isde/V+Spua2gIxxer+Bv0gtLHy61+biKhnduh+rtk4nI8kDUTBR0iBvQc3OH/ylPlxozMzjP5va5UCWVGY0NeEIeCFnEEZn/9GCEaDQszYJxIxZsiO1s4prahRNmmGrJjgIOjKIMUgyljDAE020R+G9t7MD28Jk/cOmD7cIjlRauKixTcdcd7mLvfD3+riKlFUdSjkSn/cEGmlTHfD5GAPJBNygw/FMTNqnb3lzer6RtxSeywCWRAy3Adh3bnRpOEcVkNEC+PJGSb7U+pHE6Lt6Rdz4vbL0Gt9rz5Z/uCjj/h//uIvOesDUQSTjForcCnJGRb9VxxDofXX3rrPDx8+wOXdhBFhYi3fvnuLj09PdQEUQUQbnqyohSvoZPBW0XN4vqfuOjvluiEJxAh1UX9tGfmYNOTPOwks25azpuHT8zmfn13Q+KB+KoOkfgPXXoNTBsyblRAoplUjCV3k9XCedSHQpew8Y/AiqzS8chW/9eB9/sbbv8p37j5i39bUtqAwFkx5lWD5peONBHIRoZGe4+UJnlzZl9U2ZHiNZoSrf5NWP89PMB7hJ80pu+0ue2X12lzzjdZZq59eafT0KsNay3ZZ8qy54HUerKtHxBhHkQrwJc35Euca6v0aV1oujs5ITVQcOcTV/mwdk83DZM8V8sRLhtGzW7OMnD1isCTSQLPIHir6V6vHMa5FtmExXh1rbcG94vOIEtW0qzYUBzVb7xxQbBVE7+G8xS874rInLSLdeZdPY7VjG4L6eE2AQhSZHpaZRQOtUK8uH3ftvoQ1HkfeO+Rtrs3vz7iSCUJKw31YF3pdAblZwZYGs1Uwu1FR7xV03ZJw7OmWAb+jDQsMXFnwjMDn5w2//6c/5cdHT0AKPV7KR/s509Ukmo0/2tnh33/nbeq8cxvuk3OOw9LyndsHfHR0PBY0FUqJWKP310j2VSF325K4wU4xsjZvrsDKufTzqYG9stAd5s/97OjVRKDxkWXf8qRZ8OXZnMcXcy1epqEZRMx9dwHd6I11k7jGBx8ohTHTDeOIew/zf+i0BaRNnvhw3YU17JQz9qttvn/rbX7zwQf84NE77NptVC2dX3vpM5bXtGl4Y9DK6fKURWgIBPxadqPYsj5IljjaTDw/EYZtGoDwxdkp24c3Mz3w5x9f1ZrFirBdqlujl/jSgsbl4cTgk2aJdXIka9lKx3zgjjALg5eC0DUUdeLgXk3XePqLSHuuHXEG852UuLIIPAbcMDSTyNc73reoVLvVX8DLmPfpUsC+5iMQSSQH5U5NeTilvlFS7NQkEcKyRZqeMO+g8YSLjnAB0SdKVyjzJDvRgb90XweKoW7K1+sTm0jO85/F5TAcn/tvvsTLkN8VWWcygtTCZG9KsVtQbNXE0LI86+gXHXHeExqYzC84ll471l8a3hj+/C8/45/+9HOezOe5n+vXP7ZNyW+/9w47E/vcTRARZlXNOwe7XDRLTttug6ECKZurbpqSbRSS197r8ntf+fOUeHtnDye8Ftvm8kgDnBWFpe85Xi75cj7naDHXepjPMSaunpPA0FQkjlDJemegkY2SBXpq45wyr3wTRlzvIJTQ86hTwb3dG3zn9gO+feMR39q/y9sHd9iqpjgEx1CVZ5WI/pxh7I0F8sfzL+kkEcNgrq4rmmJK+WZIwq6bFzFMFhjSEhFVkz3rGu71PbvVywuf3+SQBPtlzbY1HMfXoyGONL8QtQOLcbjU8nfrj7mx/Ix51xC6RFwsCROoJgXFpKK4JcxuWZqTBYuzDtsZJbOG3Njh0g785SyfryN05BxX1JsjuUhxWDO5u0WxVyOlhv7QtbqrWHaERaBf9MQm4heR2EXEwuyDW8SuZ/H5OWbeaWE1ZZrnFQvlqxeZhxrIyyfLVe+pVgSGZANm5ti6tUO1NyEZZfOE5VL7pS4TfhmIrbrvzdpP2ApHzO3t5+bpv/zwL/g/fvIJfdCdkOGauXxd79pL9+M5Rlb+/ptv3ebdG9sbnZSGYRJgLXdm21wcen705VNawuinIjkbf55WeDVL5VXGblXw1uEB3aJ5TZOwzZvTp8hFHzg5X/LJ+RFHTUMTs4X1WgcfybBgIG38fLCZXce2Vw6HOcuOz0MmG/BLFMDyYLrPb7/9ff7at36ZR1uHbFcTalttsHy+qfHGMPLPz57Q+V6LnWnoAbjy0BgCdhoDwmqymI0POmpWH3tO+46dslTYIBeefhGjEMPDmzc5+/wzwvBcvWJmLiKUtgASIc3525Nn3DHH9HSE7hzfJHAoe2LZUk48bmKw04LJ4ZTpjRnt0tOcqRWs652KZNQMOVPihuLcdffnCiXkK5z36LFiBOsMqRLspKC+MaO+OaOc1AS0HRzLHt91hKYnNj43L/aEJUpZ9BpwvASmsWFye8rs3oz23LN4ckY46XG56XIICnUMHizxEk3UXA5ua1vdlwXxlQ92HCtN4gRTGtIEyv0J9cGMyaQg+p6+XRIWQ5Npj19G9ZXxol/JMGlOeTD/t/zZ1iFJ1KcmxsQffvoJv//hZ3RxBRBeDuIqxYm59drqulIKa0HbXAMZQpSe9w8P+O333wGUY4/RhMkmCEbzYZsMhTW8tbtD33s+Oj2jR/vOGjEjXPIyjvjL6YeJWVHwy3fv0be5J+8VO5Xrhj79gT4ZzpY9zy4WfH52zFHfEpMQI/iR9jdky2jXHwZJ/couYeUzrjfOD118xr9Lq4w9C+lSXnC3iwlbxZRfe/QBv/vur/C9wweUUlzqUPVN7K+eH28sI3+yOKHPDIDLVJ0VW2Lt4clZuP5uPdNVXC4l4bxpkOnWL1wVBrBbTbmzs8unF6fKfniFvxnuQSkli9jwSE55h08RcRgLJqkyLPSGFALGQxegbz3F0mOnATMpKCaGeneHkFuV+dYTl0Ez3WWv1qo+KjYbRRsebNy1dTjl6ow3rWWEYg22UnMsM6lgy+JmlnJWYGtHMAkToOs6YttrH8ymI7SB0HjiMqnfSu9JPqkfSS4mYSEuWvoCQuko64LynT1iTPi5Bn81pAr4tlOHQe8zJ3zlw3L5PutVrkMwmzL9SDZ7EkFKg6lK3LTETi1mVuBqhy0tSCR1nsXZuXLnG/VZiW1SUVSr23aJGU81ar41DU+o4wmNPSQi/PjpY/7pjz+nfckmbmzqLR02apvAiGFCYit5ptJRSMTapJazKarhF5EgDlcU/J0Hu0zmjzG2AOtI4uiNwxtDSNq+TQCHsFUWvHfjBpVzfHR6zDJogXk9iMvaM/qyIL4xj1Jiu7B89/AGdc58jdiXPr8jpY/EhY8cLZc8ni84Wiy56LocuFdZtcR12uDANhJtUcgqyGtCOWgmtOS0YrCs4lNIES+JAsutepdv33jAu7ce8b0bb/HejYdsu8lqIV2Dgd/keCOBPJJ4evEMH9PYQkt/MTxMqyYQqyxj9buBeQArebEInDZNLiF9/bLn1x1lgEezfeZtx3FuMXfdWKf59TGQpGViDO+wZGLnuCQkoyu7j0GLbVE5uiGCeEvsIqbpsHXEV4Kte2ztKEpLsV0Q96uxm5A2Bw74piM0ntQEfNNnVaZyqIesfT24pVLVocY5XAVmy2ErhXekNESjDXeTQzl7MRG7juQjfe+h1SbNscvZagexSYQmZeGRZkg2qmNlEi1s+vMWCR5TFaSqVDVnYXG1w23X2qQ2KQ0whYBfRmW8LNVlMXQ9oet1J5A9XYbsTEwiiWBcibjcoLo2mInDTgqKutTs26Rxyx+j12tYtESvfVLj0qtnTKMNmr2PxCAQrQaS/PlaK9idimnsmARPYyNfnnf8b3/8UxZ+KKJeM38lMk0t98yCO7bh/iRyzzTcMBdMUsBJhxOPTZYyDQ2oV5axKSmyXX7yIfKpEGxBtAV94WirLXxxi366TTc5oKlvEKVERJiWBe/c3GNSOz5+esJZaMc5ASsG0uU5/eKRuLU94f3DG1TJ5ez21TLxSOKi6zleNnx6fsZR07IMujMbitZEMwbt0dtkDORZ0DMUO0eGiTKWhgKnBvK4ohFm+MU4y+/c+A6/+96v862bDzmoZ8zKmgLHihgwXOUvZrireL5fh7AFVivpeX/BY99oIM+twlYT4XnmCqDCgoHelAacPL8m6VZwmcUR5lrI4M2OqXO8d3iLP336OWe+1+LQ2jZfRA37QQgxqAlPSvQpYExktwQXI5IcxbSELYtceMjksxgz4yFC8NrJJfY9oXGYecRUkaIWbGmR0pCKHgoLzlJsO8rdGVjt1WlsfohkbWFdO09ghIeGgnTKqaYGxYTESPABGg99ULfDPioPfNmpB0oTiW1UrD9ACoJ4FbAQY+bMgCojDTZZwlkidAFXRXwZcGUBRYcvtbG0KSzRWcRZKARbO6wpMgXR6IKU1mGI6+e4miClFU88RIL3eg19IGXlauw9sYPYdPguEhshZusB5aFrJidx1aEe8djdkur2BCNwERM/fnbO//onP+I8+AzXq27AREPtWrZCw/3C88v2gverUx7ZlmnqKFNLEL1Pet5DlgqGfkWdzbRCIHc1EujX7QosyIrXHpLgpcDXNRdbj1hs3+Ni5x5FscM72xWH1V0+Oj3m8XxOP3JvlFUxSPQvQyjjqQBOhC0jvH3jBncm25qJjGd/taJzYH+ElLhoWo4WSz6eX/D04gIRyd3qV/S+4f9DzvKHZyVtiHqUapgRxxEDl5TNrUiQtOWfMYaZrbm/vc/ffO+v8Ttv/zo3ZzMc2XAt6eewESe/nprla49hbn/jGXlKiePlOV3XEUJu2JvilTmIIJiYg3jQ4tL4Oxk4rVrpHWmM/OIKnZdHSpEd5/j+rbt8fHTE8WJBNAbJq5IVu1GMinFNKBI8W+EpvuywSWleW28fcPT0U1IwuYnxiqsaJWmwCYL0EVs46CJ+aTDGYyrBljmoFw5TJHBWRTPOItYpbc+ssO7NrbHFDH1VUyKlTi19c7BLwTN4raRukOorVBK7SOhyR3qvzJoYUoY+crAb4I5LFNTkEz1gvCE0AWMC3qmPjCkFXxhMaTBOsIUagxhnc/Nlg1hHMEKUl/Q8zDtDE4NSx3xmIgTygpRInc9GX2rMFftsReDJAXygLK6+xgArEVPD/vt3sNayFMs/+Lc/5UfH6gIabcIFuCkN37JL3qlPeded8I5tOMAjg5wlMTKTTG7+rAuOUQfJbDLXRv1s1oVOelM1cA+NjCkE4wzOGawTnCSc9HjvqU/+BLn4kPBkSlvPaKa3mE/ucWvvDk937vB42XPStzRtR+N7ejZpcinpMUpr2XEV286yV9fsTWqcmGwJ/aLnRxkoXR+58D2Pz+c8mc857hq6mMBYQowbjJF1+CTmOpD6oMAQ0Adq4cALT2nzb3sLhRduVNt86/Ah7998xA9uvcu7hw8oxGVqsj5/woj+/pUabwRaOVmc0faNEvFDWAXg54omkaHKIJkbLKIevZKGrtxqyC4iNH0W8nC5oPWLGQP3fQvLd/ZvcLS14JPTBW3fI9YhYln6ZXaZM6OABtDMoltQZFm5JChubrP/wW1O/uSZ4olrC5ZJEOPABU4QezBCyMZQtOqnIjZgCo8rDLgOcYItDMkahh6XY9Pi/FBKWl2Lnloat5kpRJUx9wprxBiJXRiNo5JXdknyK1OhsZlzUt+O9QT58uelx9AmtRJ0wY/GIY1HnNHrKSPG5ezcGC1GGjDOEq1ZLUrXzIW0FvB8yoZXAYWaQnZpDHpNoYuq8vQpWwsPOKwG0WFrr26Jg/w6YmaGW9+/h92vtSlBgs9OTmnDLpPY8F3p+J3ZE35VjtmzPbVNlNETJOGSg0EpGKPeD4z2LR1ogZWhsJnGlj/LNMyjfH30kHzAd4Gu83RNhz/vdS4ZS2EjblJQbtXYrRojMffe7Ci6lqk/ZW/xU+6e7XBndoMns/dZ7NzkIpV4wCevNgb5AzXG4JxT6wu0fdrYIjANa51cFoCOw8fASdPxxbzl8/NTzn27QfkbW66tQSjXBfLLoh5ghFxCXN0nEeE7W/f52+/8Gt+7/Q53Z/tsF9Pss77ayaQs3f4rGMOBbziQD0Wyo+aENq2C+NBJegWXDN/TuF0bP3ZBA05S+0cypxUSi2Xg4+Mz7m7NqPIDPMitRKy+TobuI+tpe94CDsf92jL61cJUGLhpt7lZ77JsOj5pTrlolpjsL5xSxFlLTKoJn0nELhOp6zF1QSgAsZRv7bMT4eLDp8TliuUDl9gZOQiJqJugWE0XI4pje/GQGwSo54rSy5LR6GOsHW/E0JRAWCs0hSGLAYmSg11+wPzaFjcMQdtoYZUMOfB8USuuye01u83b9qg7jhRVsBNMxASQXq8pNGBspDd5a2+zoZPL9RTtfICYuEHFHIaNZkOWHwd/lWxBYKIQs2fMUEAdfM91epmBdTx+7oIBUUaE23PsfXAbOZxo3aDpoO3YiTd4q37K35t8xnflPBclRwSRJIVSNEXxfzGaNVtnwRWUa4vU5m51035gY14nQwnMJBfgQ6Rf9HSnPe1ZQ3u+YHl6DnZOtVcxuTGjXFvgnREkXjCbL7jT/IzT6SM+3fo+F8VdAhDrAhtXvTKvGiPUcuklMVMB+xg46Xo+W5zz2fkRbeMJSbKpVv7bhFKXBygkKSNoFdB5rlPP+JmR1ZkxElLEOMuB2eIHd97nP/ruX+eDwwfacUo2hYEbO9Rrr+7NjKvgwfUhcfBYXP/h15jV9nj+4f/7j/lffvJ/0gVPDIyG7cOx1sUpAxFLxvQzZnlxhlZQEY1m4okplpv720zKgklRULuCSeGYuJLSqjdEIQrXaMfvVVV5CIt22BF8jRDN+qQ14ohGFzI/LGYhjKKLorRMxfPwT/4h++3H2HpKmjpMXSNO/T+WT065+PgYf9KBXzkJXi46pRQ22AUh+yuP2bZIbpiUGUFrDoHrAWDF7gjjsVJ+UMxaRgSKEYPJStNhkdfw3y8AACAASURBVFl5VlweUTIFrrZUWyWpg+XZEhPsFTsrDcZD4BrnhUElKpeubczGNa5ey6FfbYTSKFCTIZMLuvgb1nZ6Q3OO4eBr9yaKQSyY2lDdmbL74ADZclpsnffEZUsb4OOm5EHlmfo+47XP14dEBJwB47DaY22keA6CnOfGOrxhJJt/RdKaK2dKWdSTF+8oYKIBH2kvGvqLnuZiTr/oKArL5HBCuT/FzmqwRiE5Y7CS6MtdnlWP+KJ+l4Xdz6nVywkH4zMRFULpQ+C07fjiYs7n8wuWfU8f+8w6UdXjwHIDzdHWzagG2cZ6gXPwSBmPk5I+LgFuVXt86+Z9fvnmu/zw/ne5Xe3rnHGDfYRdxZ+/YvjJywL5Nw6t+BA4ac/pfMTnbjerMs3zlKWVB8qQdQwBnxFy6EVLLh44kZaTo1axOXFYY3BiKMRSFY5pWbBdVUxLx6TUQK8dwoVCwBmLsV//B7dORxIi1qvNaWVLhTLKNW+GkIje012Av2gxkwR9oTS2SUGyhsntHcqdCRefn9D87ALpIHoZ7WVXYyWySimtRAghrTLgOASEAdx90djcBWz6U+hPUjJru4MhV10tmOvDWostDOVeha00E+8aj8vNC2K82mhr4MCnkM89MgZV9QCxeWunPOCVGe+LF+j1xSaNQjWFgyIZFR2dBVfXEzNYahFiAfXNGVuP9ih2tat7WLbERQttwIqhNob3p55El++NduEZhtiVD3wSIbrcTiChkNI1hUXQ4D2OTjsWpZBZRCP8EPKOFpJ12Loklg5jI0VVUuwXTPsJoQksT1qOvzjGPlmwdXeH2VuHupAYQ0pQpTl3+g/ZTY/5uP4hR8Xt8VxflLuqx41CKKdty2fzCx7PLzjre8K4+5EsyglrVMFVIPfZw2cohg6fYRwhmBXckn/AO9v3+Fvf+vf44OBtbk/2mNYz/QzRxM5kiOWrtpb8qzDcN7nypJRofc/R4oKQIiGKIgCkcXleZ6MgadzYrPMxRSSvmEO2ppR+fY3RbX2EZS4QDa8z7frfR5KB0sFuUbNVlkwnNbOypi4dlQiVNVS2oLKO0gxeHuRa/TXZ0Cvcg5QSVtz4b8gwxcDN1tiK94nmFGLX43xEvMe2JaYukarA1pa9927S3dtj8ZNT2mdzUp+wQ6EuDVSfy4E9/9+G/8rLxvCi4ZqH9wzEpOyQ4TdD1pskZn8TPa7JAVBE4Q7jhGq7oNov6bqOfunp28hku0ZuTFg+O0NaSB6FFlIar0mPYTZPJf8jCmuQmgw2WwxS/nDpYzOXBERXLhxZkq5+NGmcCZCDrgVTWMrtiv13DrA3p4iPxLbXzkVNR4oRN5nqLR8VhoVi+pfYTEO9Qky+Z+TEJQf4KMWl4L2ZzQOkZQdNp89DiPhOveNjjPQhkIgUxlK4QD9vsFsT3NY035Ok87FMTO5us31nj9NPnnHx4TO6L5fs/epD2NLzC9aBsVQs+Fb/r0n8GsfuHkiLxEIbVq9tSddZKGfLhi/ncz6en7HslHWmEN1gaZYhEiSzUC7TCAcIZdVaDWQM7sNXaSre33+bv/vd3+H7N9+myHx8rf0oBdUO9rtp+NnmHPhFZ+WXiQAvGt94Rt72HcfLC3wQvPfZsEafu+eKnYbR0W5dUmPTENRzRjk8iHk7JNGsvdeKMxxhZeqTlLfc9sLjvuHxYkk6PcUglMZSFZaqKCmdZWoL6sIxLUumrmTmHGVhcUZwKM683npuGAM18qqhpv3Pe34PI2EI0eDbQPLQdR7XWNw04mYRN/GYsiBUDlNbtn9wyPR0i8WTc9Kxx5+1xE7T1PUJvREA14/3kq3a66KCQxAfFqchOFWVQyZCMRHcxBFjpJ0PasgseDp0zG7NqGaOsOhYzHviMhJbT4wguX9pSvHK61Ea2vqpZ+jsGlZTWluUX3QfdMYMrn9gHNjCYbdL3H5JdTCj3FEJdlx0xCZ/tWqJXOxtYYxu9UUPNtI+1wv+KX/XIC4jE0SLmoX+fTKjr5BC32sPef7uu368M8fHx/StJ0VGpaHNiY+pHUVR0J/NYdnhfaRvg1IsY6SYluzeO2T70Q71dsHFJ+ec/vFn7P/gHnJQgbVEcSQj1CTejh/iw4QTt481m54ykUQfI/O+58n5nC/n5xy3S/X1ziwmvRcrqmAMAw6+WdQEMzY1XodQYkp4SdSm5O2te3zv4G1+9eH3eHv/DkVKWUC48kJfn0Hrhdeh+Pn/x/GNB/LO95y0C/oQtV1khBXuPdxB/WbWwvdm9mHGrE/WAwUAm5gw6IIgSYN+yB9khGxXsVmmiiSCBNqQlA+dFwuX21w5a3AGanFMCsesrtguK7aqkqlzFBgKZyiMxdi0sQCtj83AcXVK7BEVmZiI6c3YeSe1gVgbbO0w04pUO1JtKbZKdrcOCQ8S8cLTnzW0T+fE00ZpVzEiYdV4+ZsaA0PEOEGMVWrb3oRyVuCcRUxP33rieYfvkipPuyygyUyEejrh5OiUuiqYbWmLq9BH+hNPf94qtTEojr2Omw7HHy1tk3Ytf1Vh9HUP7lhQtMqGKXZLyhsT3N4UWxuk1EUp9p7UBhU+NR3+oicCs/uHuugGjRTacUrnR4or69fh3o3f7bCLUVy8TxExgo1C27ZUdY0RIZjVHIoxjb1YQe/NdDpFJnoXgo+EviP1ntB2nM7nTGZTqtmU0HrOT06Jy0SfIBKoOsf2/UOMGOr9LVxdc/HxGUc/+pIbv/0umAKk0OdKDFNZcJu/5IwtgmRwL/uZnHU9R82ST89POOkauhBHVgmsQz9Dg2LdsetnHC8F8lyrYWCkhPxv+K3bv8xv3P8lvrV7h4PJjjK28tOYInDF57wBPV4xftGB/bqk76rxjQfyeWx4ujylDx7lpKRxu7QegEVU4ALDw7UqesUU8lZTchYuY7VqKICyvuLGOJoDGdG+LJJA7CYev/r/NMq61YlT/Rwk+NUxhtef5jkhHucce5MJe+WE7WrCdlUzsVZhmkKY2NV2OA6osVzm0q7+ZaRCoqo4o1EcOHpPXHpMZbFbEWkjrnaYwuAnJVSFZokHFeXhlOnb+8TG45/O6Z6e0521+D6NFq1heP5TWolmwubCcrl7CWzisGMQsvqi6MBNSqq9CdVOTVFYfGiITUffqpo0LCK0hthD8mohmmIkZo/rVDqsOBanC2zpsBNDWZaUb21RmH36RUdzNqc9aQh9Uk1LpgwOfoEh11AUalud/FWCpzQUe4drHXjWJhEtSG0o9qZMD7eoDma6SAVPQOmVcam9O2PbE1pPXHajVN/d3cHOasVeU8xsqvz5e1UObiQfw/dc1BSTEw8RmqZhNpkSJVKU5SheicseGxImQychBNxgxyuG5nTByadP1YUxK3dhQNYSNx7dYrK9hSfRBk/TLCnrgmI2od7ZJhkLMWQqZUn19gFHf/El7eOe6f2dDGcZxDgwhj3XMkkNc6nxKRBD5OnynE+OT/hyviQak6X0axDKwDaJuqOKGcYKIWUWstWibRIG2Q6JsYg7Y8Kv3H6f/+SXfpd7k/382dqxa9PKWTCOu56rgvOLqMvfBK35VYLzVbWQF41vLJCPZPvgads+9zcMY9U5v0g9jPPWWCStZd7rgePyhV2Br7MKuMMrNCPXDzQBZHhj9b5rN2l4j7Wt1sDsyM/a2oiIGPqYeNIteCoNlhMcQlWU1FVJ7Sw7pWNalGxbR10VTFyJddpCy4nZNNcxllDOSGTmRm76GlAxjQkRCS22CYSix1UFsuwxdYkvBVtUGKcqTlNCcX+L6sEWIUT6NptUzTtS06u8v88qxhC0mUKImdce14KbjBitOItYSFbhBSoDlcWVCjuJ6AMY2obmvCctvdoCdNqkOHYCuc+lxJXvvDGGemtCsgnnHKdnDaVz2IUlVh4zaYi1hdJQ363ZureHD4nY9YS2I7Q9qcsMBp+IXrM08QrLJIkb7JCx92QuLBqn701lcHWFnTrMRL1VRBIxBVLq6TtInSo+Y9uTeo/P5l+x88Q2kFpD8J6dm3tEIwoJOqXOjolHUI5HuhTIjSuQwmmtJPakAKHz0EWi7ZHCkaLn/Mkx/dmSvulJfaTvclPoIvLwvUeUZYlgOD0/p217bFVRlgW2MEiZF8fSUZeF6jq85/aj+0xvHBAthOTVzS9EMBZJOh+ryrKzt8v8ZMH0wQPEZMqIUaWwA+rUcOIrjpYLvrxY8mQ+Z+G9zumQ8oYhjRDKRradse8Y1zHwCEkIKT8MQIHjzs5tvrP/Nn/t4a/wcPs2hRhs0PsYX6etzhXjuiz8F52dv2y8uQ5Ba1/rKenzjYtXxTW9cfFSwB6yY8PQK3D43XpATzl7h1VDheuawwJq+D9m/KuzGbK95/H89eNmLJBE17acty2gmZgWlyy1LajEMqsde1XNrC6ZlgUTW2CtUFjL8uA2224C/SLfG/I22xA6MAFS60lOiEXA1oJUASkNVL3K1gtDchYKQygEI46iclSTEg5mIy+a4SHyOVuLgktCSIp1m2RWPHO0YDWwp+0QtIPK2OOyGyXsqVW/E9/1qvj0EKIQg0HCqLEDIkjEblnqWxOCeHyfoIFgArSQlhG7sIQqILXB1pHgvDJfSoOpKlwx1YBMMYpHJEMEkkx2uls9iOtfBlFVaBbUQMzCJ0/0rYqceoP0gdR7UueJIRCbROrVACx0EDoV7cQYcIWh2prqcTWLyOKhPF9sYlDnj8+ATzz+9FNSjHTnC/qmR3oVKsW2p9ibcvdX3qWcOOykYnm2wDc9watGoL6xy2RvhtSOlITl+YLp1hZ3vv9t3a1Ziyn0Wo0xnHz8BZ//8YdI09OLcPs7b1HfPhjv1f/H3pv2SJIkaXqPqNrh7nFlRORZV1f3VPVMz7E7swd2dkGQswAJgiAJYsEP/Gv8Qv4G/gICJEiCAAEe2GvOHk4fdeYVl7uZ6SH8IGrm5h4RWVnd082unNFEZHiY221qoqKvvPJKebtKkHJ8P8DVQt22iGt2pmsiClXFq4vAX64v+ezmNZshkeK4jlE8d5J3ZoYcDA4bE37yTNSKLBPL5wenz/gX7/0hnzz4kIcHZ3ipELwZ+zFw+bfEPPlNN9z77VdmyMdpTONqDtsl1+uhzJ3ejF7uiMGNga0JFy9GNhcv2YEvokMj5jZuODe8qaTIO+eMCcF98EyajDlQPCcLNG2fqRWZJRecfyo8a4Ygy2yfWeg006XAtfQG76xtEHAKlVdO2yVny0NOVoecHD2lPX7Mwxc/LkdypSNbyykbRc8LzmXCRvFVwtc1qe3xrcPVDhpBvMdVQqqsWIX3vmxnU3jBgmdS7WqSVFLvMGtyNkMvMZKiZVummCzFfcjkAHlQw/ZDtnT8kEompEyp8DuGa4SzvXL6e89wiwZNkWEzmCcaDVpTJ6QuQaW4usI3CVc7fFNT1WIJQI0n1paabz+uaIar3Wcczo0QyjYYLblgtKkYzTJq5hwhKFnjJD+Qgs0qNJjuSuy1XKtC9hNl0qmjOlva/r3VvrRqWOOsU6ESiBl0Vm/TZZ7/xc8ZXt3YfRFI0eiirXj01QUv/+xnnP/ofR7+6GPOP/kInxQf506Spei//MlXfPZv/pwn/+CHHD8+m0EqpTwfMNwMXHx9iQ8Qa+FRLs6KWjKUkQWkyARbn1M8IWcOnp6bgiLBjLs0Bg2Fjv/1ZcdX3RVoyfQtfSozo9qW+EbUMcDpJsaVccHtNhmTBFDP++05//WP/iWfPv4eTutyrmLvvpTzGyFXtkY4TTNqg1s0y2RL9vviaA/eFDP5TW6/Uo9cBU5Xx3z44Blf3Vz8whqF83qUdj9Hz2vLZZa5ARXjo4qMWHwR6lF2+d2Tqz9WBPeMwVM7f6HKWxrivjcv41RuPC/J5BJkFaRIWk89ZctOUDNUPfD5esMX6w3u+desXMuX5x/zX938FO1784p34DTziSVhGLBCTJk0DGgviE/mfTXgqmAQSBXBO3JVWBFOJ097t3OWfTPD8NIsLV+FXAx4ChliMXDJbY1awaxHT0oKL3jP/zSjt6g4++ETlqcrNCtSBgnK8RVXptkZSUoKPam3gKr3kdBYar7UEe8VrbYaMs45zFEbmSDb5ye6vb6R1ZNTsgBczpDiNJhoNH2VFBUd8rZwxziryQo5ISWDFSklwXJG6pLJOtI01eRV1TnQTBp6c0bUgqnv/fZHbF5vaA6WNIcN9aqlXi1oFwuuvnjBT/+fP+Pqrz7n5Z/+nMXxksXxMdWyMGaikm46ups1OWdWp+ec/+DDneucP4fD9x/yyb/8R9SLina5KNLDEYm7Hq3Fp4wfnpJy+PgRi5MTo2a6yvq0eItDXbxifbMky4KRITYFMmVODSzYeKEg55l2eMY8dVHPsmr54PgJ/+TR7/KHT3+Lpmq/0Qm8r025Ae9w+5Wn6D9YHPAnH/8h//rLv6ZLvY2I83v6LR/OfMqzm5Ri+9p64kxWW8UkYH0pqXYrGuwKVDIZ3jKSo8znCDtYPKPnPis+K8Vbh21ZLL1jW2cqbH7MTAOyCDdZ+bftgv/me48YvvySfBmRfFvqc7xumUax4q2LkInGcXZiafi1FGGpcj5+ixFb4WXFsS11RSlKO017iweVkvF9GVP1kyUjzfUuTAd0TMZQ9gs8TLf7wHH8o4csnhyadxYH8qY33fSR2THuE6teLlnQpMbA8BnpBZwi3hcvPCE+4LxVkJKSFTli4XnmiY3nNXmICdBU4jhmsDUWhlVJ5c9Rp2vT2WAwV95UVVKMhJuNYdVuJlGrapWEVKloSKLkEE210DtOPnrKyUfsJKdlLAv28L0zPn34j7n66jXrL16zeX1Jvu7oLm/wrgbvqBct5x+9x/LxEQdPTmkOF2wTnLbnB7A8PmB5uJgMvKgxXpxuKX2ClEHIG5OkrmmePYW6Kd6yQ4pDEG9esHn+E1x+Yvd5zjhBtzo9pS9NWZh7rBQVqNXze08+5Y+efMrHx+9xXB1Pzo/IqGWzvR5zpG/rzP8y0Mhd+/hNh1p+5Rh5JRX/2af/jJiU/+5/+R+4oNsaUsnbqY66qaPdumEzMaedpvMXZZu2br9HfFlsGouSKWwW3TWsjPKwJZdvXG5Y+wwLHL+biE3j8jmvvcCHBQay5NTtMQWdTjmhW567lI6NJxA4eXrMpVyhV2qp3nYjdi9/dq1mOrfGeMzio98GbClGnJk3LgVXdpjRGCGCbTms7fRd0nwA3QYRR2Es0OKdjgPb/GwzVJn6QcvZP3yffFBByOSuJ9zcoF00JkqW7XWUMzPGTdFNyZYNamESRSQhkkuBYY8jEyXjikduu7idzDWl3I/XtkN32w5mlq6/1YAZuRB3YbFZwIVM/uqC1LbUh4dWEcjKNRVnQdFKaFxLdI48BES3jKv5OzCXCPB1zekHjzn94Ons+ZdZhVSlr+apv+ZRPXGi2+r2vur2b8mpdJ6t0R8HU9GKGHo613D60UekekkWwYvRKTOgwzXhZ39O8/IKDswT1zHWICXOU2bDU2HjAoXktI1fAHy8eMy/+u3/lPdOHpXHJoyZyowJQOUlM/sh07n+om3HaH+HvfZfqSEf6T+qjv/8h3/MH370O/zly59zs9mwXq+56jdc9je86q7ow8BN7ok5GNMlBPryOaRIF8NU4WOLa5kmw9YDhCyJUbVszMoDmEp/TG0cYc1T2gZQR+MPaNqpcXgXtCLsjdRiHdDlkkTCaOSKYbdSNtPqWYp5dgIkHI6b68iy3XDy9Ij18QZeeeIQSWE3OLyTHThXh8rjYFQMumiBdTJpVjBhhBlGfeWSJGvnN+Mkb43LDHZhNCSj3sueoSyxgyzgGmiOVyw+OGD19IjkxVgtfSDedKRNIN4EQgj42uICSQv1c0r/d9tkoPEUUvHWpdwLN/4tpDB/XneBenNvtQirzQayVDjKbqcM2f6LLtM1iih129C0Nf3rnqRfwYcV/ugY56yItEoGMaw6i8MvK6SqrcJRGmc1ykS7clKyWy0TcYQLt/d4HKDKkKq7z2fOlkG3ImhZC89edTqu5jxODREsriTNEfXxEw4enBLrypwOnGHiKOnmNf1P/pT4/CXDNeQmkqtMzFr8Ei1BzPK4kpqDUAw7AgvX8PTwKX/85A/50ePvsZAaUT+9g3Yb7L6PDtIEN84ex31e+XifftH2XfHKf22l3kSE95anfPD+6fQ3lI6FUa42caBPkb7vGWJgk3v6YMu7MLCJPTd9x+vhmqt+w02/5nXYcNlds9lsuB6uuQm9VaWX7fiai7866/I7EIpmkMnbVcSNmKre8t7n5w07ekXWwUUmv96bmS/eUvHki1c3NsfIsDGcPqtns86ELqKLjvqwwT9TYucYLpW4MdGsPL54b2g2bc7leBn13mCE4uDLFCS2FO28EwjanZbPr3n0Vp3uqu7Z+GH33nlBfWZxtmT19IT6bIVvK1IOyHUi3RjPfLgJpHUkd5HlgwM4q9i8vML1fgq2jhK+dvy5zvjorZdbkeyBbBWob5/7dts0DX4Gh2VG1yMXw2nXdH9kxyM2y1koy/MVi5MlGoWrn76gDj0pBOpnT1g9OrUiGFLZ7EEV9QnViFQNda4hGBUwhQGHln6yZdiMzsq+Ybm/GWY0PZ5x5jF+HiGwJGbkVUEqUrWkWh7QLA/JixW+Xpk08jwGpZmbr37C8NMfoxcD4Toy9IKeJ0IpPCK6NeJjlftRljdj8agfHD/lnz75Qz558D2O/RK0zOZ+xbbyN9kg/6Lt12rI3R0jpIgVfPK+ofWNeUYW+L+lfWBtl8Y0pvImNenLPvW8uL7gy+vX/Pz1V7zoLvn65pLnV695cXXBi/Vreskkr+DMEzE2y8hY0Uk+QMuUfucanNt5gdTNGC17HSTLyGnfYurOTW5vgVSYsBHzLAPrVBM2idgrvo+0BzXNQc3qdEG6CVw9vyH3TAZdo3mF0zR8hIAUVLZiV7cMczm7CV5QudNwjZ7/3OmfRAh1NsBJnuh8zdMVhx89wB1VOBVyiMR1Rx6CpYWvO+JNJKwLnS9n0hmcffqAg3jA688u6D+/oepLUkihEudZstcs0Xr7e0puyjvr3DVtnmAHHWdJYxEQ+/a+DFznyoUfeFbPTjh4cEDOkdR3xC6RBhskYrwhrX9GvLzi4HvfQ1YNjnEkFYS2VPEBdUpVJ+rlkhwCYeiMNVK8Z/GlQhNgPJC7y6TJvG+OKezoNMPaXq+tG5Ndt2ta/PFDmtUZyVveAOpRUbyvjEElkXDziv6v/xyef0247omdQ4dEjI46dGh1zDixGKGflAy2AsiaeNCc81989Cd8+uRjGlW8Vvau3+NBbyGfbXxr+7sk24lMmkj3tXH97ee38+C/C4b/12LIJ+/4bW6G3Plx1vw09bTAkTVVS+s+9AvOTo/59PRD9INi5MvDTliC0vWw5sX1K56vr7hYX/Pq6pKX/SVfdxdcxQ2bMBBTICSrhLKJHTHbyzdWHgFMDlTNM54Mm5vf0i1tcpwemie9mwxSrgARwy377NBgVLicHRqV2DuaVcStak6+f8jQZ9JVJG8w2GUoZcc0kUv9TDvNaptkdVux+NZ9nsM10wtUmDxjGQXUkZ3NWJzHqIFtg19VNI8Pqc+XVAsLoeZo9UHzJiJDJGwSuu6tiPKQSL1CNAgjbDqGqzWyqDn53hn5/QcMrzaE5xvyOhE3AR8MfzUJ0zTFCbaJZAWzf+sk/enKC2wxspbKoCjFv68cVVvRLBr8YU17WuMOKmKMdN3aanfeDMSbDFEIKeGSoDHC8IqrF1e0HzyheXSGXy5xroUR+hCAYDMmQHxF3S7QmHA5kqIVcLDU94JpE6fsyp2r2DHY1h8s/KP4cXYpHnWeXDe4kxX1YoXUC9TV4JZUIiQVKl+4TCkSbq7ovv4pwxc/Q646wjoSA2gMaHLUIVOnbPAJTGXWkkYzsNlxtjrjRyef8C/e+wNOmqMSknJGYxxF9DAHZOqTv4D93GGk7bWRASfO3RF0++b9/m20X8Wg8GvzyH+dbX/q6dW81EqhlZqD5pjH58foqWyFdySTHGz6juthTdd1bIaeq7DmIm543V/zurvi5c0Vl/01L9eXvNxcs47dJHEqzpJktucxe6mKnvqc5XKXIc8oQ6ZMeR2alZwSKShhk3DrTFxVuKVj8XAFzhFjhKhWUX4TyFdCiF2BjPJWZ3uHATNCLvdP0bcdzq7NOcvgpHa4g4rmqKE6aJFDS1SpF+1Ev0ubHg3BEpi6RN4Ey4LcJNKgZsSj0RpdwmR2Q2Z4taFeRmg9rqlYnB+wfHxkqfDrhK4j4aojXCfSTU9O0aiP6ibTndP+9byNUc+lyHeRNPUOFg5/5KmXC6qDFtd6qsaDU+IQCFcbUpfRLhNvBhtMO2O9CAVnT5AGiF0gbr4gfv4aeXxCc3ZMfXyA9zWobIPT2MAJmASCGuzVAGrZVZATSqIqQmLbuInsSBOIyBRMF+9Q8WjlcH6JVEvUV5hQf2MHEwficdSoJFJ3TX/xGeH1c+KL1+TrtRXO7oU45FK20Z7fgBJmST9jgWNwHGrLP3zyu/z+o9/m2cFD6kJHHHUqxwDm37dfvL2ThnzesptR2UpgUSnYvMgMLjC8dVUvWfkFuhinc6l486alnnImZSsMEDVzsbnii6tX/M3FF/zk6kt+fvkVX16/JjDsGO7Etk6py0b5E+/YUV5RqCRzySGqzw3jzthLkTI5OFyMuCHhbxx5OVAtazMuy4bmaIXUFeKMX95tMvGmJ173cB2RoBBKQE8Kluxkhj/vYsniHdJ4/KKiWi2ojiuawyV6WE9ZnlJK02nKhNChIUFISJcYhs5SzDeZuBnIvZIHsWSXiZWXIVcklNXBIf3LDakN+EOhbhtLW/cOWdRUxzXubEEjh1b6L8CwGUiXPfkq0K1vCH3E9fudYNewb+l9ijqMm960+JWnWi2oD1r8SQ2tQCy1MEMmhUjcRDQMuRDFEgAAIABJREFUliK/ycQuob1ld+bkyCmDlABwNp50lIyqQ4LJ2/qba8IXX+FXC+rHZzSPH1E37TT1T+yWAES2nrT4PDGhRn3vOQQ5h1zmDoO68YmBSg3SABUq1l/ENdYTY093+TXrr/8avXgJm0heFymCPpGDK8+uVGsoL9CmXvBFfVBw8JJfkeDTkw/4lz/4FzyuHuLF4fYGVVXdlar4+/YLtXfakBscYKN9vsPrHANlEwtmFjjbYmaWDepQhMo0jL1ll6kqB0cHPDt8wh89+x0bHFxmkyNfr1/y1dULvrx4xRcXz3mxfsWldqzTQBcHutgTQ8KV8udjxRbvhbOPBP2zXNgTUPx5ojM2iUtY7c2hol931I3DL3pc6/BtjXgPbUVz4FkeH+HqU8RVJeElIxFijFN8YeeelLqLVu/TjqOik6a0XbfV5HRZ0WBaIylE+xziNhOyz2inpN6yPHMRukLHDFsL9Kpk3FlDszrg6vkluVOkg9gk/MIjDfh1BXWDaz3UlqkavcMfL6hOlojCyj00D3EmJJWj7hTfGI2blYbzprVSSsMpqXDkLTkp3kRkSGhKaJfQwWCsPATikMywJZAoaHJoNmGnuqmIQ9ry1REkgrpMUqM3xl7x64H0+prNTz6nPjmkenBMfXSCLGqcr0zHxI+a6G6iQSoZcWnbp3e8+ZlRHJeLL8FbP/XtjLFKNA5oCoSbrxkunhNvLonrC3TTI2t7zkOMJenLHIoxSDzGX7Io55+cctg4XudEnRueLs75p4/+gE8ffZ9DbQuTbJQhHs/rze/vfpsYXn/fbrV32pD/utpo5LzaS32gFYv2ER8sHsMjgxqGnLgabrjs1rzqLngZrnnZX/Py5jUv1hc831xw3V/jQs/vf7xk+LIhvR4md2scVMjZ8NIsaATXO4Yq4dcZaRyuzvimgjrgG9DakypvBXrLj3MOt5BSYHYG8zAfwKKF+8JMJ6fUtJSUkSCkmLZp7DGS+0AMVs+TIJbCnyzwlxPmqRUGkbViCJaeBz98yObrDbpxxCrjetAK+1wL0kTqNqBNjVQerQUqb1XhnUMrsdmFc0adE8HVDssgF9BdGMnYUomUIxJsgNPy42MpthxMptZ0ZLJ53UHIIZPjqNyXIftCjXP0VeDRbz/h5b//HMLoJFjkz0XjkqcckexM7Mtn3Cah1wPh69esW4c7sIxOv1zimhZpa1y1gKZCKjPwSG1JX7Dly8/uKZSYSGGopBSRHImhIw8bJGZiPxA2N/hB0WGDDFpUHQfD/FM2vfg8QmDbQD2MyTmZ5mHLwUcLHnyRuHJH/KMnv89vn/+A88UDyIKbhyB/SQQly47My9+30v7OG/J5YOsWq0PYmp236DypsNjmpooSHK3F86A54qQ+5L2jh7a+ZoaYjDdP5LJb89XF/8uh/rfoDx7w+t98TegECm6bCwVNkt9i+05hyKQKXOdwHoKL+ErQypEaB63gvMdXUjxsg02igPhRaqDAKXMYYqc6SxHJKiXEZMA0SaISo3lusWitpJRxSRhLjTl1JQC53bexbBJaeR588oTFWcPN59dmYKMZpxwVnImESQehinhv8sFUgqszri5GfByo5vIDbrw2C366wngyjvM2dpCj1VOVZDGTPkarQD/YoJmjbjNai/cNY4UaA+uMA55wJy3Vs2MWVz2bv3lphnRmXLcV3keRKJPklSHgNg7nIL+O5PoKVzuqpsZVpqHjvGVxjsyg5LXMKCoUb3ECEZTBxNBSLNepZGlQFUI/4LLisyMPPXmzIaYKEUfqBsIw2KAWZs+qUCHviqXIkefB7zxGmwVPmh/yzz/4Y87qh9TONHu8CJndMnVzFsjt3AxurTNvb2vE79tetpF/fuU8x19j+04b8jll6Bfb9pv3s5Oqew9/16Ls5QVl1yAq3IJ1xgi94mi9p3E1S1VODg54ergi/lVkcdhy8Mk5lz9+gXbJiiVMlZDclq0wZonqtianSCY7SvJPstJiPpgBcIr3si0h5mYvk5u9aArIrAjACFUU6KEafJHBFVKeGaYEUAp6JLEU7717OvLN3YHjwQ8esnhao9cdvo9EmKbuSQyqkJANvhjsfKNk8FapydVixR9Kqr7pyJTn5XZ54CPUIWMgLmGDzVgqr7BhzBNlUoa066ewgvJ2X7qlNY5UxqNVhfeJg0/P0BSIn12Z9749C9t2jIlnwFl2gzolikDISKeIh+gG8OArwVUDU7EL52wwswy0bfzFw7xgdi4DUNYGXF3kfhMMA8415OAIfVcgr5KslDMu+fkZ7z0/i634E8/5H3xAdeyJmvnjj/456h4h6nEli8JeiN0BfF4r4NswOPw9hvdNLJX9gQL01vrGjb97P7/ptMOxfacN+bdpv4zRf9M+2TfqOzzXtz92QS3xuWK4GqhjYHna4n50ys1PL0ivg1ESR5u7s7uixmg7QrGEloQlGblSQgyXEFHS9NkKGeyUZytt8lxHWljxrkddjFyKBFgw2PigO1mgcyx0fqbO4ZoK/7Bi8eEx7UFDvN6gmw0yxLL9SCm04KGWQVShKE4CwYoJyzCed8kHEKOFTtmronv8d7fNtB0HoKRTObZcICwz7Pa905FlMRrufcNGqVDvWdQVqd9QtQ3Hv/eI7sBz8/Mr8k2Py9V+d7F7PQ5cReZgmlEkE3wTEZLIxKgZpQnG9cbr31f2G2UWwBG0sxkZ3rj8oQTjvbdCHzGag6Hg7uGoj/ezWlSsPjzi4HtnSGOl2fKwxrdCctXe+rszsek57BvYe16PX8SQ/m1mdn5X2jtnyN/Gu95f9k24yf523/T3tzu3zByMqRA214mmX+NCpDmoaT95zPrrK7rP1qRoqc45y44xnwJrIzQyMh0Q86qLPvrutFZnjId8y5ADiO4WjR4Ti8yHtP0zN+CjRsneVaozA5VPFpx/+ox6qUQdiDeJdLEhXW+sHFzx1lUVj8eCzdPtKXeqJIKIWvBWzDMdeUEi28FpOv6YmTijeIx6K9PfeYRhRmEsmz0lUZBdJcrxPmYpgdNV4vijE6qDBr3YwCojy4bDHzyhfnTM67/4An2Zt9DUfHTZGxgm+SEdK9uMk8G9Pie3Bd129uXrCfJBlSwdgkeqmqwQQzcdR7jlk0wtuTixmJqzA04+OcefWCA2doE8RIa+Jx4bZ33fc77L01V2jfl2vf3rmf2td3931zp/19p33pDvZ3p9o+c7x+lcUfSbdZ5vMtC3M8vebMTf5LXvns+WZdNvhG7d00QlhYxfZRaPj1icH3D12SX5VYAuoipWLWcWANr28dEYzV6iCe65zXbgDgjEDPKbxIe3Snm7mZMlQ7TQHF0rcLigfv+Ug4dHOI3kLpN6IXWZcJlJm0yWimoxY5ykXAaoO15cHZf68c/5V0wZncVbnSCQuVphOdfdv8crsH+T0h5bSAgMwnCVo15VLB8esnh6RGKg23RUfcKJw4tD657mwPPwj95n/fUV1z9/CZcZ3xl8k6aEJrdzdGBm7GeCVzurbPtydpgaYdnPmEGszuR4rSReQgmQAr5aWX5pStuizrNBfoSknHPUywZ3VHH04TnLswNybUHusI7o2pK9+utA9VBJNTMn4na/3zfyrmQ834lnv8GT3g4Ot73u+cDxTd742673m96+84YcbmPW36rJmJr9FvDHW3r7bxoA7t/3NpVc04K4yegwUHUJ+kReBfyq5vCjY9LjbEkxFwNybdmOo/53znkHStDZ//vnAzrzMucdeb7+bqr7m9tM99tnOKhoT1fUD1Y0Dw4M4ulKmbJOiJ2WRBkgLKlOHdWyJr6+ZrgZJjVEybuD9N3wUjnzO+/x7ZnGzrff8BJrOZgsl9SHLdXS0Sw99aqiOlnBwpMBrw2rgwOjZUqBd0RNI12Ew2crVqcn9C+vGV6t6V+u8ZvCxc5i8rmz89umbN02ivP17N6Ar6op6cs5Ry4qaM4LKW22+00RzVcWCJ0dTUa2j8MyWY9amocL2gcr6gcLqIWYA7kzCqauB9J1RtcDsc9UMZHsTrzxfu5ch3ArwfLbGNW7PPe5cZ6+/xYm4rto1N8JQ/7LtLedjomMYkxlnn+H1vb+rMCccRP2ZPx/z/vZNSyubNQSe2NI5KDEfqDqBDYZf5DwraN+vEAfH0EPw8uOm1dXpCIF67OfSmmNRvC+Zt78Vjd9rKRT/rpzm939ZaQuxSpE0VqoTxcsHh/THi/RCkixGPCBHB3Se8J1b/zyLCULdEAeHXD8wUPSaU2OketXNwwXA3ozMkQA3eWFTxj+PQPlL6OTISJoDcunpxw8OaI6abcJkAWrnmcPg0BlUJA4gaL7jvPGmRGHa2qWh8csng3ouie9vGT95QXDlTFlJBnmPLF83tIAjewbpDJWD5BDX+IgVj0ppwhjXVy13ARxBXt3QpKEHNY0D49oHx9RHbT4GrIX23aIMARL7uoiehVJm0jcBEICH78gy/vUxaxYctL4zkx39Z7gpE7f3/Ucxt8iUpgnWmaU3/xs72O6fBcN9n3tnTDkbzKOd+G+2wWudGhrWWc63rYBRUGcfM8bNSY4jJmidwVYXNFS9mWqPlZRd7o18COzJdHgqkOcVpDs5UqdEiOkQamGiGsdblHhFxHX1iw+XHL4vUO6dWDz6obwuqPuBYm23Vi1Zyp0axfH6PMlt/W6J0lbwM0Ew2yqvaWRWSUeoK5wS0972LA4P6J+sCRWVkmIPiJXRVNlgNRVpC4RNz0+e0K3MaMYQpFWFaJXQuhwznH8+Aj3zDN0gf6yI1wPaJeQYWSQaFEnLmBK3qpb7jzm+bKdwCdT5XZgKsbsnBViXn10SvPeCVplK9w9BnzjFpu3jOG8U0BEy75wBXOvnHG/XTHqVYXUK1itkOMVxx88hPWG/vUN61c3xKsB30M1KEnz7FrzZJR2IHaxy0op4ltPwpKRfONRFVLMVFVl3rIkhLF+J+TKwcrTnNUsHx5RH9cWLFYp/VaRfkCHQN4Mlum5CfYc15HQlQFI4bT/H8n6MUGe4WeQ1r6XPMnSzmAV53aN9fwZyfw6x5nkCOeV7eWOcWC+7a3BYH4Oe9/Pf39X2jthyMd2J8Z9jwGes0rmy0Z60i9DawTuHExu4+L764ipMS6OJ89eYzmfpAwxEHsrtlwtInXjqNqevKpJdUXV1Jw8O0I+eECMmdgncmdZiamz7DzTbclIH2cslP3ZRSl47U0NULzQNGIJKU2FaxzVssK3FdWyxi8qCz6GRAobdJOIg6XpW4FiIWdHWhd+chJC6PDOk9bGHVenHD44xVWedBVIMZGasu/GsXp8iDxzpBCtTmhvSTo5mKiUDhkdwEVL7hkNvGjembsLrnDnHa4umZ2Nw7UeaUwzplotWBy1aKXk3KG9pelr1lJmbyyQMGP3zGElEZN+HTnt2Vlg0glUNTknC5D6hqY9ILdCahuag5bFs1MTGlsP5vluIqmPxtLpUynKnAgxlUxde14Zh3eOqq5IcQAJVKsVKhWNc/jWkbTH1Y56UcHS4ZY1bmHFudVvBwmLhCY0YNm6fSD15Vw2gbiJ5F6JQcnRoQm8JKr47ziM/5rL5vFuX2Je83b3ndjHtm99z90G/pvaXTPttyE2vHF/v8HtnTLkY7vPEH9b7PoXZae87TnctU5FJn3wx8Sf/k9UKFK441mN7ic5Q4CwUXKb0MbBOuIXFbkdSp1OjzSedlGjhzV5Jpo+ea+pLlN48y7NU9uqGzpXkkRcAqc4Z7Q+458zJfuQM3nTlSzIDCWFPQ1iqey9oNqiSYk3a8CZxnUOpCEXWF2pD1oWjw6JZIabgbRO+Eap6gG3FFzrcXWFVB6phGZZm+iTM8/PmmVkCZTScJmx4LcXsXJwouYpe0GpzNAXA+vryrDtnAk5wmDXJylCMu/YrptpoHU6aphsg4OK3as0en8VeO/tfLOCd6gvtTBVwTf45gRfrYj9GscV7XFFc1wzsoQ0ZTTHbbxgrKeqYj94VGoqgVz01Z2vTexMKoQIEhDvDBJyY31MTC6h1IBNKRnPfBPJgxWbTutI6AJpCOjGBlCNRW881ziFKIl6IdT6V4j8h4AJrG0x6vsglW9vJO9jsHxbY/+2x/9NN+Lwjhjyu4zj+NuNGWmz5XAfRn17+7t+lzXvOI/tPnLOd3YA5X7MNougtNQf/hPCv/kB/vLHtsV4jqlwp8XodzFmUpehVqom4RuPbzJSOarGE5tomZzF87RkEqu1mH0ygS0s0OqknkEpW1qejjhnyiWRJJJTSWGPyVLwQ7LkmSEThkwclBwFDblkQQ44MSoh6tGopl+iGXGC9xXnnz4jtFZwIhSNFh2isTE2lqJfVTYbcRWkWqyaUMlydK4y79qNmtSKq12BTsQYGurJo7JgSlixOkfTrKjbBTEHtFwPo+ZKKGn8Iy4fk6XwlgHQan6m7XMvxsRV3qQEvKLREb0ilZrOd3bTIGpJMwmIOFlQLU4JOLS7xDnDlw2rFwTT+Nmn7TktgU1MLlFcPfVBI68oqskoqGoYuWRbO+dMism0ZYZEHqJdYw+pCyUwbWqVhFwUK8eqQuMg6mwgXqzodA1ExGVkhzm0+46JyAS77K9zp2e+A4nsJvXsG/C7lt97nDnqdsd5flfaO2HI//9q+4PC28Ay92H44wuWJJOqx9Q/+k/g//rvYQizrcdU9/ITxORrUyYPGW9FaHAO+lrwDVN6dyrYr3grxKy+2nZ0UYIwRYUmit48cSZv9UjIsoU0iiaJRiUGSMEoneIacK3VrEyRlCKuOiDnTBiupqIHOGX1yRnuaWVa20PAJTF7mawGJCnheoe6YJmpleAqIfuiteI92Q/bzNUpCQobwPen9VqM22FLe3KCd5UFCmNEksE1FOEsSRmJiTgEtIukPjPEXXnFsdizc/PC1nZc57CBpq6gdfiqgqZCK0iacKqIrxHNZC9QCfXihJCFzcXn1IXGKJ5tApB3OwBBBizxKRUDHkDt+aaYSrm4wFjsOCY1Zk1Mdt3FeKcoaB/IfSb2SuxNU4aUkaBosmShOHcusFnIgx8+YfARod0Gg/XtjOM3GfE717/DI/+73N5JQ36nsZx55dM6jB4PU3bdvfu75Um/ncHebjN6uDqRyebnack6uXB/oXr8EauPHnDzN8+NAzyySkYjpDOcPzpUhBAVGYIxKzpIzpX0fKb0dVdVpnPtuoLhltMrbto0sIwKd9mwdMlF+yQDiSld31LZsXJsaZQ4Ba0debAMRFKwYN3QIX4iGuNq5eyH79F8sAAyYcRiY0JiId+JDSwJnXjc6hzilegy4hwiCecxq+l1StF3zu0Y8i0zJ7N8ckZ7dop6Z6JYMaAhIjGT44CkUnnpMnL9+pocIxIKzFVl6ro2US6/PdYt70/N43WApgECxFogVLimRhY1iQGfFbQBtQHCVUuagxOEivXnP6ZKyQy5SFGldGb0J49ze+zR67bZTzKJ4hEGUzPKKZmBzlGn+AJB0UG32jKDK8+YQgHdDvIm0iW4UhD74MMjmqcrBp9tNjCyVqRkDjMGOe2mmCdeOvPsfbrlQRc9FFvO9POmd+7uL/JsQ9l5PvcNLN+1AeKdMeTzG79POZugEW5DK/ufi5Y/YLUdxjYZ0vF7UbKYl7K/DoWJMv4ZZ8d1hVHmRAxzHZdnKydgxrlkNj5oOK2PufzsGt0EUtSSmbifCTgGhizbUVK5XrEX1I6dijcXywsGI4a59cz3siELU8KOsaulsq04nyeIOmqGkglalUIUMQ3G/vEtub8Gifi6wh0opz96RHO2tABmH4nrDfkyzsq1FUw/jfe+sHyczUIsXX8bZDQK5G7QcUroKXS7VCsHHzykfv8xWZPJuMaEDNGquocEQ6K/6rj+Yk26TrhKoYa6triDNCbzO5f2nc51rz+hahWbKGwldZYtGhWSUi8FrdWgcxEilm3pqyX10SHL7gPWf/UXBg5VnuStkpH47TWOuPz+s1PVog9ugmdTnkG0Ih4ppEn4LJcKdBOzKY601JJYNoMSRwhOgOa9AxY/OgafqQZlXY/MpsIF2zHO4McENd01mCPDZA5c7sIps/4uMn0/f9ZQskr3DPTOce75/q7P36X2zhjyX6ZNnu23Wl93RvQ3ZXnu4+zz5eNMYeyckxHINd1l5MgLh++v6F91xjXuBY2J+xJ0TMxpVEakwCMz6CdqMYD7nTcj202n/Y+nK+pnhmo7erm8XS5VA3ULWBBPcsZJBb6CtMF5QVawfNZy9OwIWdTETU/ujNbGdU+8Clbxhy3+ui9dasE9eyHHxaYvkyeNlXHpvEWU1cePOPz+EwQz4jkYrJCLnvrwYmDzoqO/2uAzVAuhOjJmh699ee4ysVb2221mkpknEUGy4dRJA5WrQRMxD7hlwZ0FhIYsxv8Wt6Q5P6e7XLP5s7+weI+vCrUx3ZoJ7DfzwnUacG1WVYSxZoab4nXv5EDkKWx86z4mB27hOHj/AQc/OEYqyJuA9gFdBDhmugdj2TaRUg/oDuNrff/N2Zj3ffdN6479/q72XTXad7W/E4b8LgO7b1y/ySDft76ITqTe/W3v+rxjQMcPZbnXsai5kpOHi4ENl1THLYtz+wnPe7pLo/Gpbl++bUX4rccuRUI3y3wWq3u/59c4JqLAVp7vdtsxqja/MOGoujEus/dWui1tEG+zBHfgOHrvlMWTFc3Spu1p3ZE2A7oZyOvE5krIXcJLhVSBQT2ZiMuO+cA1N6b7A1LKuwZ2hP6Ty5z98H0OPnlK8gHpE5IimoLV1eyVq5+/pn+xIUehqmBx7qnaupRJ41afuKuPzFvOmaEbLM29bYy5AVbkOkULrOaME/N6RwleBLIEnLOiF0cff8TmqwvSz75GJRYBtNtxlv02nd8sgWoqCzcz3G6mOSM7PvHO1QDgfMafLTn6wTmLswWZTNhYlqeue2LuDMpyu4qCO6DkGzzgXSP87Tznb8LO75oJ3HXs72J7pw35XR7w/R7z7jr7ne8+j9opltHoIKe7B4X7uscIs6gTo/FhollW9bxF+5oQBU0Bf5hxy5rls2PaR4n119fkGyYJVi3elYz46PYoby/Er7df37talplRBZCKyltxBXUOyYrUDndQQ5U4/OCIg6fHiDNsNnWB2EW0G+g3Eb0eiDcDuW8ZUsvl0fdYpEsON5/jUkNykSTBxL+EMstwWzna8VxUd6bnUIw7iaMPHrL40VOyi7ghkGPG9RmXM2ETeflXL0ivIw5leVazOjIjNWrSjwFSO9CYq7t3/NGKFNgKMl9/9pzD4wMenBeqZN4CvU6FtImElGnwZJdwxCkpS8WSZ3LlefzP/gE///p/Rq+NwrkDHe6rHs6vf/bsnbrZjGvs8yPpdN+gblUjje3kkVZZfv+csw8ekQkMw0AeEnndG7983aEatga83P9RX2UOl7D/+Q6MfG7Ib3nkentft/Y5fn6DgX5XDPo7bcjnTeT+5KDxe3g7j3xcb2fbN3jhd+1jZwpelhkSoogotfyYnG7IAdMCj4Jf98RVpFo2HD97QFLobjriJpE7q4tZhS22rapkKiZvSt0bdUretonzUNVo6PHOQ72AFBES7VGLW9U0Ry3VUUV1AqlScujJG0sSssSSntQpeZMIXUYHT86RkCv+/YP/kpvlU867f8tx92ccdc857T+njVfkXIotZ53ez9vXtFdZ/vyI1e99gK8y9KGISAVCCMTLDa/+5jX5OtG2nuXpAr9wRTOE7bPeMeSz5Xc0JyDiGLrA5nLN2cPTW+tvMVvIIRJuNoVcKFbh3WWct+IQSISq5ej3P+Hy//h3lvQ0Z43o3domc7ZOKjhUYlTNvNuh2erlYGXmaqE9WdGeL2jeO6RuHMOwIQ+BvLaC2vFmIKwDqYNU9zv7G0/BIzuQ3reFVvaXf5NH/m3bNx37N739nTHkY9t/UG9KELrPg59/N//tfKHe7Rn7W4abccAA2B0gHCD6gtXwv9GlnpgSMVkdSu3A95C6nm4RqBYNy8OafFqbNRuOyDeR7ibQrTvD0tWwUUkmPuW5O439bZs6wbUVCUd2Na6pqY9W1CtYHFfUqwaWNdTBklZimvBTSgHfuEmkdYQeQkhoUnpN+KRkd4h6T6hP+bz6Y75Y/hMqveIwvuJw+IpF/IzT7ies+s+p0zVVDHjydH0WMs6oJhye4BwP/+Bj2sOGHPtCoQwQEnEduPjxK3QdWa5a2rMG18hEuxyf02jIp2d6x+0zjNu+aKoGVeX5l1+zWLW0q6XZXdldH0rgG8hDIAC+riwwWQVcNNaHyw1JA4v3HrE+OyJ+fTFThdR75SP2Mab5c7/bEJrAVnaCHFQcPjykOV9SH9ZWwCNH8s1A2AzQJ9L1VmsldhlNHul7XBqDsVsjrcXDHo+9Y8St+jezFe713OHutPpxEBJn92TCxu/z6N+x9k4a8n3vevo8wiej8SzsErDXAXG7RrW8fcr44m01Ve5sWsSj9oz/nAkz7suJK8WPjYebNBV9ac9i+L+p9SsGxDSzwQJTJfU8hQRdxi86qq6iXi5wC0EWFfVRw6I5QcQTh8Dw6pp4NbC+3pCi4jM0pQDy3YPU3JvNk1eXXEYrQWuoTxoOTh9TH65YHDaIH8A5Uh4gBnIaYB3QLljG5xDIm0zqB0KXLL17yLgy21BVKs30ekj2C2J9XIpme3LlCHrG6+qUy/a3IHmGs4hTaNOG4+Fzjjc/Zxm/oslfswgXNKmjSWucVjz44QPqp8focDPVGyUoeR14/e++JIXM8qjm4LwlO5MGLoA4lIDqnIIkBfoSESLZilwvatqqtkzN3FvlpC5ydHREc9qW2pkWKHWuQDXCrA8WPfU+0V/d0Fae7B1JAj5XZB3Q7KhXS5oPnpC/utgJOM+lee8yVFOVpElTx0+zU2NolsLIjad6csDq2THtSWNlBMmW0bm2Gp+6MfVDXSuhCwybZHVdE/gMhIRgHvj0bzK0SjXnmsZWAAAgAElEQVTCcro18uN7M7+G8Tr8XevP9j8+E0HuNNpbB+l+g/4uGPnvtCH/Jh73fcv2PektPdGy0e6jJs4Tf8b93Q6A3j7u2wZBpXTPavi3+GUiLgXZlCAV9lIJyWooJgdByH0krDuqVqjbmlwHWAxoU1FVjvbRgsWzA07dYwu+RdP6tkSeBKXi/I7zNnpEpcq89x7XVoZ7V2JlvKoFSYUUr5DQWSm27EhdRx56y/bslDREUsgMXShFi9VKmWUpYlAj3OPxonx98rvk5VkpKjEOo4BmEzWrlCo7FGWoVjyvfosvV98HthQ2nwUh8Kj9jP/44/8dn5+TFAh23XkTeP0Xz8kDLA5a2vMa9VbwgRlqMWdxTL8F3KKhPj7g4GiJ90KMkRQiGoMVpc4KHg5Pjws3OxskpIp3Nb4VXDUXqTWT5AR03aOLHmm8FWbOAc0el01G4cH33+dnf/rXVJtZUtIMIr/LFomIZbyW51o1Fdp6fCvQ1jSHC5qTBfVxC97ONWVLgIpDIA8J1kW+dpPJm0Tqxa4rOshSBMsgt6upUtP+z/zduAvf/qbl36a9Lfb9XTbe8/adNuTf1L4JJrmFYasFjkZjPl/nbTB0YQe6nJbPt5t/nnchVyh1Imvq4TOqpmL53gHXL17tdDYL+CmiSsqKBA9VJHUQfcY3pXJ8W5Ea06j2tSPVHvEeqRxN5ciNA19NqnNjoeKdY83xAKnJMRBDxqUBp73NDlCIvWlzRCUOPXkIyGBqjTpkUsRobyUoawwbV7zK4hmq52pxztfP/gStFvhxQJ3up6ca2RdOCuYrReskGae/QA3O2XT9ew9fUfkejR5JnRnmnLn+7ILuqmOxqFmcNuBNP0VmcMW8jUFUAH/+gOXTU6qmIoRAd7Ph5quX9C8vqWrH8aMj0pC5+OICnz2LxQrBozEToxJih26Uo/N265WP/angLP3NhnbV2izHJ6Sye+ddwh8sqT98QnP5ipxC4YGbdz7S+9Qb+2XU3aEWqkVlxZwXDVJ7cu3xdYWvQcjkHEwgrMvkPiLJsllzSIQuQKfELuF6Txwo5fGsv7sy4Kmr8Gef4qrmrQOMY1Dz7uUyeeI7y2Drje8d5z5jLbx5UPiuG/R32pDD/d7vfUFItPCRS+LCncFJbnv0+8cc29sMCDuBr6w04RVUcPzxGf1nG+LL0fsyMSS0QouAE5ImVb4kCekEqQTqgNSKb0yf2lWjhz3qgBgWiqMYcYeI353iKuSJGRIgmdeZVAt1D1RbNDqG/oYcIwxK6hWJRYBpxlGWbLVFDYLe6og4BeeE4Yf/EZvD36XGvNfx39T8lj43O0vAF8jL9pvEceYCHx58gdeMVSAWiBl9Hbj6/AqHcPhkaQmQasqGVu1+9qwVNCtejanjHh7z4JNPSXkNcaB7cclXP/4ZXHfoEHn00RNEHOk68vrHXxKDKbucnJ9ycnZu4lJBiSGQWdgM4lbfcgZl9AFpa3LOVDGDSxMr6eTj96nSkrbeauOMAd+xRkX5ayer1ek4yxB8eSax74vSYW+DbJ9s5hQiOkDoA6GPaO8sMzUFVEump4rNlMYnsXqCfvAfWN7AjFWyY4i5bZTn78yblu+3W9u8AVq5b3/fdQM+tnfekMNbQCp7vwUMHxzrYL7BAM+/Eyjltu5nvOwY9tmAoGI4XqWe/uqGeim4uuL8j57x9Z9+SfrypghQTTn1jDEikmGUY4UXjYKGZHLrPhOdyZd6P+qthJJUolBvhY2890W3w6G+IavgXGVXpgGNBZ+PfeFBZ3JYo8mKFqgqEsWqxo9e2pgQY+pVU4bgaGy8ZPyy4vjDQ35ycmic8+y2eiizezli0/ttXMdjmbKOiveO/5KT9oUVGU4BTaaj8uqnzyFnDs9axJWamCUOsT3nAqOUGUAC9LDl9Ee/S9ZETkK+7Lj66RcsgqNaHtKct9QPVmTNvPzyOYcPzzh99JhhiNxcvObVq1csl0s0K6vD1TRQ3b4YEBxh09Ecr6YYgqSBytVEzZw8esiX/+dfIOctqQInfreY8bzPlevK5UeyZXJKtOUpRIjBkqKiWjB6iGgU0kBh+Bh8QsqMGv55xnzJArnKVL//r/CPfsuegbPvZ/bVPuu2v22N6T1e957h3/n9DR75Le/+Gzzy73r7ThjyN2Hhv0y7z5jDLsxye7vtec23cVitShGsjFbBWuyFumM/s2uz41kaebjpcDEjqwW+qXn06SOumor1Z1eWYp3Yq/G4zcJUHT1JeyHyGODqFZWEc1YgVx0zgSdFnJKKN6441GeoarPhKUEYcFKREoWNYvopJFdmB3YfnJYBUFMxSrNI4Yxi5pyiXmnPWpaPlmjjqELPohJykT/YDo8lQDxxn7eFOMbrHu+DE8WnzA9OPsflkqKuJhy1fnnD9atLlsuWelXPgthzHPz2S55QVs+egnPkbNyPV18/xwXwvrGzbGukdgyXPdcX15w/embedON58OSMlBLDMBC6iF/aM7qPtO+AsOmptaTH54TXugwyCa0bYnAMrzZW9KLAYo5dD3Q+MJkHXQb8rBCUlMyQ55iLIqXRXEkUXR2DT8biKblIDsPWGGbJ0CjH33uCfvonRFftfH8b8x71fIxRcstwzz7fX/TBntkclmE2yN+Hs++3d8mgfycM+bdpb/vg7oNbdrYvMMt+APQuNgtQRFFlMjqwJTxYMeI9fvPoUSOW0YmSqgouBNd26JDIqwa/WHD8O49oHx1z9adfEsY6jzNNknkzbHk0gGVZBCQTZEzfz3e8IGUb8SYvuxBib+nilYOk0QxJxgo5sDXi47Q9mURUuSd3TIcVtFF86zl+74T6uCb2A5vXPXo04I7Mm8uzuo85bzVpRi/WC3fQ7jKiFQfLF5y1V1YUQdV4IVl5/fMX+FzRLMV0ucc9zp5DsRFlUHJ2bCdUy1WBKZQqm7xtlaFST5DE4mSFojz/my+opaVt29I3DKbz3rNcLlmtLE9gzPJE1fTJSy77eMdcElIIeLcoRjiBBrxW5AR1tWL91RdQZ8Q7Ku435NPnpFNd0ElfpTgGmoskrxpQPxl8XIFO7u5rroHTjx8iRw1rqQs86fBjCT7mOHe+ZWynH91d9y52ynY/eqexftN+5uu9i+2dM+Rv2/ahknnbh0vyHcb8ru3e1E2czeHJe2vNp8CCGYb12sFNRA+xYg29wjLTPmhw//gZ15+/Qr8aiDc9KUfL1su+eOmZHTpa3hpAVUGkAraG3r7b++1AfMYNmdxtwDlcc0hKCedqJGY0VlPa+pihetcdKIgKOMVXUC8q6lPP8uwQ1UR3syZfD+Qbj28TvkqouIm1YkG07T2f3uk7Zmmqpkb48fFXwJpEmmCFdN2RrgZ8peaNS56DybN9bD3YXITByJC7ASfjhTrOP3yPF+kLwsWAb2v8wtNfbbh5cc35ySNEvA0Os3J5IwYOW8gJEVMXdMUAlVNyWdEu4VqZRmNX8GjRhGuXpIuA84noIO55t/vXg7pSQKJAeRk7hzyHwGAsnGxG/B4YywNVpj1sOXx6hGsdNzdrmwFJgdLuwMJlTyFyx/veg0Kmde7yyu+41jfh4vPv9z+/K+2dMuS/yAOaQyP3LXsTm+VN53GnsZftyzT/zpddeTwp1+SbUs6r97BM5D4gq5ZqUXH64SnpUWR42bF5ecNwscGlLTbtdH5uey92FpBdQ77zvROc82T15ATe1ajzxBina44hTLKm7g23XERwTpHW0xzXtA+W+AMQycR+Q7pRhnWHdkruFOmjlXpDi9TAePbj9cwMevGed5+BwUSPVz9DshZmi30/XGzQVFGtFFftz8ze3G9cVtZ/8wWL8xNynUEyua04+f4TwsUaHxNZLMt2uVxSrZptYZGZ4pfIKD9sMgb4+WBaZjKqiNpwryFO56iap+tRVXzTEodELUUcjW1C0t1NtwJqs6AnjLRN8765NcsZW0ZKZaH6ZMHqfEl7WJNiZLjoCOuKOg/lOudeONtle7DM/uf535NB1vvXuXObvyMe+H57Zwz538ZDu2XA53CL7rJZ7tye+/H8cV8OsUDqntAWmDE3NvuK1Cejqw2Jpov4LlGtE3K8QNuA1p7Fe4ccvP+AcB1Yf/Ga4as1JIXophR9SzrS4q0ryP1iWGPLMeGckpNQ+5qQE85cRvKwQXOYXhe944UVEfAgR5728Yr2bGk87T6Tu460TuR1ZNhEtC8Bteyp+kSNM9hkvs9iayfvcvxuBwWz+976Dct6AwmEjEowiYOLAY2B9nC11SXn9vb7bTxmvrrm+b/+Mw4+fER7WHBx5/AHLa63wO/x6TEP/mBF6Ae6q47QByR7Sm66OQMyVu6Z6dXItu+I5OmexpxpVIsSoeJKlR8EoxjqtgTg27Vyw7JOPrMFXbcw0/gM5y1LRGqojiuOn5xSHxh3ft2Z7HBem6NB3BpyYdfAjr/nMrI7EMg9xv1u+E/fuM1d2921zrvU3glD/m0f0H3r73vJb2KzfFtoZTzuCEXgjNo3LlOS2acsUK3QWAaPnAkRdAjQJitwsKiQtqZZRmgb9MBz8OlDDn9L/r/2zi3WkuvM679vrVVVe+9z69Pdbnfbjt2xk05CEofEo1yEJoRAEmYS0ICGEUICcZXyNm88IvEKD7zwPiOBEAIBEhoJJHgAKSPQwCQhmTjgJLYT37rd7tu57V271oWHVVW7au/ap093u+0+9vpL3XufqtpVq27/+ur/3ZjdOWJ2ax8OHUx9rK9dd/aJHV5qLXuNRd6wm3cKcZ6qbiIMsdSrd3NUmwoNKINksUkEhUKNDMX2mGJnjBkp5q7CzWao/VDXWLHYI4ebO5yLDzSxKkarqDqyJjTW4SIrcWE5L6r2dXdB6umTYh+DA3G1FOGxVSyMJXpOlk/qY76wEHvne+lzIbVY/I19DvYOuJNrzFgz2pyQT/I6rj+mNlpTIcpTiEHPFNWRw7v+ddTdXpNzGOf1T8PQKVo8hBw+CB7FsYb4ILrk5leOA0TLmyJgxhn5ZMTo3CajcU5lLeVRGd8YZxZ34MFJfBhX81o+CW39lx7hiqfJ9Fyet1YmuVdpJVnk7z/uJzrlYZ6s7s23Es0ii5uvndf5/27ae1x/c1c2pURjT06Krbiso3XE2boZAFWFKix6ZGGq0cUMKWLHmZAbRjs5xbnHYuj03OEPY6GoalpiZ2Uk07lD1Y0NpGPNddO+Y55e7Sirj4XKAnpsIJNYn3tk0OMMM87RGeg8dq+x3uGrOfaOw5dzwpFjXoItLcwEF41kXIhZmD6A14Gwcylmj9YZlgCqicjpko0M14sJITDJLaiqjraomzHbgC3n5HlsfxYbyK2XxuLehx4pxIkeV3k4mFMF4Wi0x+6VxylMwduvvIG3jp3dbbK8jl7SCp25xZuE1237Ny/NleJj+GO7qTpXgNiwudkv47t0G2L7tVp6OAnWvnHUpz+2qYOQC9lmjtnK0ZuabJTF7NVZyWz/ML5NzRxuZgmlgBWciz4FZ6cxGauWuNqxtqQra4m8QX9eLQV1rPDF5yrudjy6sugHDY8UkR+Hh03Y9/aDxdfBaJawIIEQ+rVZug8G1Vk24GPzZTGMH/sc9pXvASGmsvvo5KsCUVudg5oG3KhC5YIpFD6PafQYjSqymPyTZ5izBqVyCtkg+FjzHB/X66pYMdFZGzVY15ddRARjYjcck8fwOpXFAki27g+J8yhXW9hVhZ+6GC0yC7iZw848vnSEuiNN8IL4Ol4dhQsKJSVzc5Gjp/9MrMWh+8Tdk1OaY7is/dfL5Mqhve90UjKIjTVf9ETXefCBdVEYtH4Q6ZzoAEEITWccL4iHje0tivEI9ufcfPk6Ohiu/eI6z332GYpCY1spxaGDbkkzXgNNen59rGsTXDrmdVbk7fWiJIZeNhEk9mjanqOTGEDLBBn7fwaCBjUxFDsTRuc20Fs5QWx0tpYVblYynzvc1GOnFjetCHMfSzY72kbUATCjSdwjFWIRs66VvCShLN9zTanbVhOvT/k6y3u5048s/f1hw6kh8vcaQ6/CDRqSGZw3oBmHWqdemd6z9mvPfVBsX/km1178t+jDq/gQyTcuEqMNcIKvHLYS0IIvApXx6MLFxJ9sjuSCZAayDKdV7DCvVRvdELQGI+jNcUykOQYhBGwIMQLDB7A+dlqv44+Zx0bMfh4tVltWhJm0dVW8J3akr/mzUWXjQ85Tmg3mV36bUl/EiK0jIxbJWN1xrBtfc2aMqtBRSW7nSYhx0TG5qZES1unKxx+LxmKem8D24zsohDdffouMEdubZ9gxUcYpiqxdV1mWjLOYWNV9izuOdIJANirwPiBmQfoqxOiVcFQiKqA3s7oZRWjfqFop0Ic2JFEphc9idUVdGPQkI9sqMJMRwcS4fD8vYT5DSkc1r/DzCjcV7DyWHg7zgLcSnfXe1xJj7FZVbj3NmXPPUYmgg2pLPwxr3Jzoe0Pkg78Pw+v8sCIReQfrnJ3Ly7R22pLs0synM395GgO/jfN17cTyzHceY/P5v0L1R7/P3MYejkFFi6MuSIdITE4RiVIFIngTEOORAsQIJnPYrGqLX4mOTjL0ott7m+E5gGb8sXFFTA8PLjbwDZXEMrnW4eq+j7by+IrYW9RFq8zXscni6WQDdlrVicZ95KuUl/88m9ozRy2Rd+/o98bVzFscX8dIqnqabl/pfW2BK5VRB+2sQZxhRBEuPgFHJfbWdcQtZLUmnHCyOyLfGlHuHXLz6k3O5DuxiqVybGxNaB4WzjmqWck421h/DdTdmLoOUIxGaR3LHqiYZ6BF18dAYfcOkUyx+/xTsWGHt4Q63LKxYj0gKvoeRCnE6Paa897XUtEUDi3extR8W8VSw750VGWFnxuowFsItYQSgqp9DHUEj+RsvfC3Yo2coOuytOtJePUznp8ugTfz23aKzbluftdZpn8NfDiRiHwJ68i8uVAaCw8WDraG2mMgivRupujcXEgu3U+3rPc161IF5jN/FXfnHfRP/33d67FvRUZybNq4RS3R28j0MhVEC14HxAhiqvipQbQgWqOa5r1KEfR6IldhQeTUZXRxvm0e7D04WxO2i9pt1IMF7U2UhYBFpPzC4vVKsM/8WQ4/8w8I2TaBqJn3ZJUBh2TnTl9MA5CAwdZBIjrKByjIdN11qVnX8VEeogsmn/8ySmcc/PRHzF/6GcqV9XiiA3bn8kXQsHftJmI9ajMW7xrvjlFjqWUk2Ns7QIKJ0ohqzveyTLS0fdGozQ28c/F3IlHBUKDrN5X5rX2UDoRCYkciDLJ0O5tQv934gLMWynl8wIZYaCtYh3cOV3lCCW5u8ZWPhc6cw1lBfBW1fRfzE7qhrQIEH8g+/ucYf+Ib9ZtePNfKDxN3DHXsOya7t8DJyX/Ymv+wIhH5AGSJIHrOzmMumvbyXKNbLssp69akMTC6yNbXfpf9cYZ96T/B0TWCLXoWqq8tlXiDEe8I52MxLOvxdaWkheUt8ZVXu3Y8SkMQOziO+NCqw9y8r/Xt+ti4WOCrjUcOhuAtrYM0eHxNJDEpqKmxUX+OdnFXfouDK7+DUKBCHTuu+uJGY62uxMWHrvQii1lio+8B8K2jFEyeY60lP/aSr/ft0tPk24+Dtex8+nn85ac4+NWrVK9fJRwckU8MamvEfDZlemefczvb5KOM0c4IcyavqxIKB9duM709ZXd3N74JHdMHtQtLYLI5prKWzBiaSA0fOZu9a++gXQDlcTfvEAZ2qcm0pXG01qUVxNZtAW1MzY/ld0NM2bdCcDFSKtRSWggG8a42MlTdwSpev5VS5E9+kcmXvwv5JqJMm487JIs03/sRKH54entGHpzI7yeI4rThkSDyR/VA96zwATIfmt6os40OGr3sxEQc+mS+LNF0EUJA9BZbX/5d5o9/numf/GvCmz/GB4v3Hu0bK7f/G2JIR/ybRVaklziOtskATc3oQGh7cPql9S3ii32bBVnLIj7KQYtzt7DY4n4GkLr6XggoDEjAF5uES19g9txfxp39DIY8WsvSkVG6FppX7bThzkbN8a/DFIlSRLB1SVrJkLwiK3Lm8z1gFJc75t5X53ZQsxnoWB6X0ZiNj15GP/k4bn8vFgrDgRJ2nrrISAwqM4Rg8fOKoxtH3HzzBvP9OTs7O+RF0VHtPSIqxsRIE3K4GIwnoEdF1LS7ER8iSF3H5M7PX6NJMp3f2I+lattz1nmbrKsUhjoN39d1Z0Odnh9cnUHq6lh518k5aMKl6L5N1WMU8NmY4mNfY/uFv43sfrS9hlo5RA0RbV1/qBOB0v5mHUEfI9Es41HlkfcCjwSRL+NRe1U6TuNemtiLVhE69VgG4s91WJBv17JcSC4a1IT82W+QXfo81Sv/mYMf/xvU3hv4yqK9HNO2rb6xutwsi+okUn+PUkEzvKEHw+L74u9I5k0jh3b1vR9H554CTBB8lnH01Avw8b9EdeaTKLMZf1GnjnclEyWdbStpJZHlB2hEs08q7qyPiTcog3iN04LkoDZy7F5A5oJkx0V6BKa/+BEbzPEbOdYYTDaKoYAqIOMMbTKc9WiTs3HhLDKrCEcld167wY1fXWW6N4vFzh57jHySx4xIiQS+UIU6ZSDCggBRQrY1AUCrhT/DiyBo/JGjev0dMolyVnkrJm+1o19qxBzc4ty1vorG4vbxjatxPDfGxqIZc/eMNiGRBj/eZfvX/j75ld/ETjbacrzdSJJmSD0y7hB293y2v42Hf7HMCXT2k+JR45R3G48kkT+qGCKS46IPuvOi4dWvtbLut/0pPnLU5nmKT/8dNp75Jocv/QemL/8BZv86lPOoT3tp0+b7Y+i2BIOW4Jc266GjIQ/sO/3052HErjdS68HKAMUW08c+jbvy11Bnn8ejyTqZhI3EtMyr3b/D4r5uR7P4ptrpAcAWCA5ROU5ptNeQabJzI/TVnPnhnOJM0VaqXG6TJgjZtOTWiz/CbI7QRcHBPDpxLYHx+W12LmzhK8ebP/45Ye+I2Y19ZnsHMRxPNFtndjhzdgedGUKtcUv7j1q775JvtGA9EAqD2ZoQrEOpGJcfo1JyRAy3X3ktNtjW0WdSzeyCBKGfFyC+lceaYxozQZtjKAsZyi9CIhfnEmKtc4uIxox3qJ78Ame/9PfIznwGJwojzdM8Si/N9TxUO6VL5CufDCx/zPeEPh4JIl/WpE8TVqSVNREsi2kLy3yov+eqXKNZZG2UVFuPk7/wXYpP/SbTN36EXP0+7uqf4O68idij2gJrSD1Ga/cRlj5hnfOvW1OqG9jShJxBTUpS1zwUwesCs3UBde4T2POfwZ9/nrD9DEEUjsb52+nU3pB05yGz/IBro1SWB7gSUaTwKo+RNEaDVygxoBSTc5scjt/BzoTcgegYcUEdb76QwmpicR57a0rlD1sCxgWKyxfQQfH6i7+k+uVNtNZkWUF2riDPc/LRKGaoSqhLGktbTdI3+9wbcxOe6sFoJpfO41wVVSFNLNSlBCcKdzRn7/XrKG9RWkWCdtIr6dvV4ftvUM15VEj9EAPaRh2IhU7FSasgI+BFoXeewjz9RfLL3+TMEy/gdVE7lKMeNkjOA9b0EJF3l19ZB6x8H/o74SET+d2I+YNyQo6zzpet97Zm+TGRE71mzR1y8WTtK3gYX2b0sScJz3ydML2BHLxC+cb/xr7+v7A3X8W7Cu1qO6d+vXYsSJROWd0uYTdWvQTaSl7RYbm4yUWpNmsSY7Fmi7DzFPri5ygufIH59kdR4wnWnAUnCL4triV+ocdI5/roUXVL7v2/V7vA18elLZmq8HqX8ihQ7MQs2aA1OEO2NWb85C7lazdw5Rw1WTgR+xZ+/RCsicjXD1XtIdvdJj+zS3lrj5uvvcXu1hbjYtQ2vGjDGqWuUigSa4VTPwjqB0LcbrcSoCdoxfjxswTxOOvIijz+ViuC0ijJuPXmVaobe4xE0BJwwdcP7TX3Uef2a4yDpplJW89eGsdm0eraIjHaiQufZevKb6Ce+hJh8wmybEQIKr4FtaS8SMVfSepZwkkdlonE7x3vq0V+t6SIRxXHjXnZITpksWtqK6yRIbqRLLJevxWJdUiam1HIIc8h3yJsf4TxE18jfBHk4G3Kqz/EvvNDjt75Cf7gGoVzqHkJ3qGrJm3cQnAdOwyCUq12rrDxrUHlMdLFjHCqwBkFkyfxj30Czn2KyflP4UcXqFROFeLtbCVq30IFLJygoavnDuzn8Q//oXmq90Co1CX8DMTOQGcE71EqJ5iKM89d4NqNG0zLOSrPYg9TWd3m4vwuLMhKw9mPPY0KcOvqdUYoNjbHcamweEg3Y2rXoyJ5+2ZdtfHZLqkUogV9fhOZGPx0js4NQSuUVqAMQRVkc8XBD14mqzzKxAJosSztqiwVsVw+d106vJCpCldotNmg3LjE5KlfY+fj30adv4xXY4LK4lhD8xBeGCENecvS+gcdmLJaA79d/gTSSsJ6PBLSygcJQzLREJkPRbgsSGVRQEk66+qo7UNbJt4OHr95nuy5b5A9+y02wxQ338MdXMeVtwmzmzC7RSinhPkR2AofKsTNEMCJAtGIaCQrwGzgsy1UsUsYbVEU26jRRfxoQqUUIWiqEDVf8YsCTCbEBCIvqhchEndvQEprre9VSWWxh6uRQzGOvrMaOUOZX6KYvoxsnkW0QVxGUAUqgzMfe5K9l9+inFmKSbai+wepW7AJ4H2UwhDGO9uo3U2q/Rk33r7O7mSr/oXvSETLbwxNpFCTV1CTeIfkghLy3U3U1phQ2uhUrbNwUYqgNaEK/PJ//DFu/4A8z2Nil2iCsoSQId3Y/HZ3OoYEAC7KdKJxIki+STY+j2xdQp15An3uMtm5T7KzexmbbyHUyVMSiE2mfEca6VjubeRJ79T1/pbOmNY6K5eklcFlmkVPoQT7sPFIEflpf/quk1jWOUfbWF/oqArSkzr6y9e2XOfB0Hy6jpWkajEt3dYAAA7aSURBVIs/OlcLGD2GHj2GCm6lhncTB67qeDQvkcy1VzjVH0ej7bdusJ5zVGicZSrUMkj9ut3t5BP9bNLd5ebgrWRcriQDdaznZo7urA/AChzk32Tj6J+hbYVoTdAK8YqgFfn5HTYry+y1d/CHMTJFRc5d/zYkgvOeOz97k/LwENmbYja28eJ7jsb+TxYPmi5xq/q7JuBGhuLxXfTIYGfT2jrPCMqgxKB0TsDw9k9+zvTVq2gjBO3w2qNVjoSCYOpz3/bCLIlZOWOCNqi8QI02UZPHYfsievtZ9PbTyOZ5JN8gjM6gizPoTjMPExqHbKxWSC2h6E5USnOG1kkorQ+UzmdXO1+SfVq57QE54LRzyP3ikSLyDwqGLqZ1CUXDjt6wYsF3fjG8zfabbq375XmhLgPQtxzBBY/VBjBt4o7zoRcFI03vz45V3BT9apNzOhp3l4Sb8LZ2Xqsl9/fhRFJLI8PWXLA8XyvB+89yZK6wNXsLtbWDN2NirzvwwTO6dBasY/b2HaRyqEz3LMXGASiqToTCY/fusH/1Kra0TPKMoB0G4a5Zol0iV/VbFwE/ydm+eJYyOGYH+7E4WWbAxJh0bTIg4/YvrrH/4msoTUzmMoG52mbj2/+UYucKyh0ilQMf0MHjtYNMo2WCKrYgG+GVwaJpQwjRdRVPUB1hrft2Eh9QekUyaY5RPD5qdVrngdX9+7jvQ38n3BsSkb9HWCe5DC7b+d4LYexKNM285vO4DJc1Y1lsY5WOgupbwM2oht8uVguMrduHuP3F9KFxnejVuTHilh50KgiSHVGFr1Me/h5ZeYjOR4gUBCVoPScQKJ44j4xyynduxwxKrRelF5akMAGM1pzZ3IDJYlu+08ZtZXjNOUOBSFu2Vk1yRlsbZJOceVXhrSXLsjpOXcWG18bglWbvV9d4449+Eps8FwZUwIXA+NIX2Dj/ApWZxKzcerytg7V2RsZxxPFmdfcKFep59TnQS2d+0BGplq/ZzrHpvEkCg9EqJyXzhPtHIvL3GMdZ6+0yYXFj9Oz0Acml+dSdmcuShevceMuSDNSW9cA91Uo0nW0PJwn1rbYQQm2t1suv07074+lFzsiqFr4Mz/EPRJs/Q5h+BH3wU/zORYzK8cEiKpaGNQb07hYmN8xu7cFRubLt5u9GAot1cE5WNrZdlwRsBvnmhNHmBiZTWGupjmbR8Z2bWP8mM4Qsw+caQXHnxV9x7QcvoaqA5AUoCDpDZefY+sp38XqEjqFFtfwRj4qIbhtIowRpQz2jhR1E9WukLR33oc8ucS8f77XOy2NI+qQEnrTwkyMR+XuAuzltTnrRu+B75N2zdNVC4lhGUxOrlz26tMmVEYjgwyLKYFETY7EuEQhB9bZ7t2SpsFJvpCZGYWX8x93IK28Q3QeMQGCbsnieif0p7uAWZvMs2oxwOJR4vI/ORxNgUmT4wxmHt/dQ1qOVJgQXC4WFAKJQogm+IfH6vCnf2b5vtx1lFIUUGeNJQba9AVpxVM6opiWZJza0ruvGS24IRkNWoIPmnR++zJs/eIlcNDrLUEbQ2hCUYXLlN+DMFaKqsSx7dEm9NgbqsNFuZUXVe5auJ+WoXfv2aA8S+YAF3sU6wyVZ4+8uEpG/jzjJRT4kxQxJEP3vy+ts19CxyPvke7fx9QpZ9R4k/XVId5ml38T5q9ttnV1BDe7vEI6VZQSQCjf+LEflfyOfv005u0NebKJ0jgd8oQgVQAALqILJaBd/OMNNS5RVEGKbPFCgilivJFi0LgiUeN8pPqYgmFj3XRlDlmVQa+zV0QxvLUYktrIzCmsUIdOozCBZlFLmtw5468evsPfS6+RikCJWsdRaoxDUzmXGn/gOWhexxdtdiHOdlax6UknvqLafyxJKdx3rJLS7jWHddZYs7wfHQyXy9NQ9OZYt7CFrfblseHvbhdCPAugStgyfh64U05U4VpNuGg2+49hqt9+XSdpxdeSUhZMz/u0Zvml1s+YV/T6sudHXXFu1Hh0oQF/Ab34Lf+dfIfM9Kj/HFFuIKtAhI6iANzFkUpQjKA2qQI3yWOK1slCFus5JhlGG4Eq0KmISkth4XOqa345Yr8QTKMsyxtEHEK0QHUsFBKXwSqGyOpomi7fgrZd+xVs/epXq5hGFNkhN8ioz5Crq2vmf+m3MhU/GOjKd66NX16R38LpavSyukTWHrpfqf9z37vaW3+zu0Tq/GxKHnAzJIn+EcKwkcQzJr0a2LH7TC/3rrnfNDTJUmjywKsV0t98d03HTF2tjeP6ANHQ/VpwWiW8cAm70Vfz0/6LL/4m4imr/FtloB5UbnMrRTuFlTnCCknn0KYhHGcFnHoLB+AxrLYhC/AQXhBA2CaGKES6+BGtR9b43IYbo2KOziQsPRsWEKxULYRmtcftzfvaHP+bg5evkWqJTMzOowpBlOVorvArML3+Lc5//G3iVYUK/Lopacy7Xat6dxJwulAw7Ptet97hlEt5bJCJ/BDFEhMc5ANfJMU3ExeA2OumcXRmkHwW5qNa4HNM9tK3laUMPpOXx9B5CQ6171hH2sa/jjeTjCSjczncIt6+SVb8kCwG7fxNf5OjRJqIKlI6FrVAKkYpMQXCW3McKg94JmSli0wwHWunYkcdLXUddt1JV01oNJXgliKprwWsVu/4og/eeo5v77L16lev/7038tMTkCmUURinEGIwxKCUonSPP/DpP/sV/jFIFClc7pzvJNStZnIvjEKfR/6xjN+/FIXk38k6E/v5CQhKoTgVOFGM9MH0oSgVWJY51y7XTjtHUh36zXF73bmO9m0P4pNNXl1GIKpHZ/8Hc/j1G81tUzuIqjw8GGY0oRpMojbgK50uUjw0YvPc455G6WXUQITi3qPs7n/YeKE3kTeNY9Frq7vSKoCOBH7x1g9svX+Xw6h3K/UMEhSjQOja6NkahRhMky8gwmKe/wmNf/UeoC88SQh3lH5b0celGpnQmr3Fkdp+XJ9HUh+bdbfq94LhzmR4QJ0Mi8lOKk5Bpd/rdiLxZ5n6IfGj6SYm8O/8koZknXd8CUcMOlGRH38fd+OdklSNUM6z1OBconWM03mJzZ7uO1pnHHpZ1nRblFX5e4e0RShdgK5o6Nc0xa3wRQ//m1nLrF29w4ydvUO7N2vEH0/RO9eTG1JUUNTqbgAjV7rM8/Vv/AnNuA+9jz08V+hEkQC/Ou4t1RNzTwk9gXR+ne78bSET+4EhEfopwXNjWvVjnwEpM+rr1tBbzSiRMnLDugbCcKtNf7/HZkMu/e9BLNAg4HNplmKP/grr17wjTq1hrcS7gpxXYugHyaEQ2HqHyDEyB1hnex3rc+DneldG56OLyzf43pQ+Cq5jPKuy0pLy9z97bNzh86xauDLXzs7amReqmETGKRWtB6zrUMNshf/brPPYX/iEUT6KlbuQxkEnZHKN7iWDpJj6tW/64ae82EpE/OBKRf0BxUinmXi35k1r2x66/59RsQg6HsyTfjcvT4UAshBxhhjn6IdWNfwn7r+Mqi68CVBXeOayNHeW1zlD5FgpwMicvNtDZiCAHi3E5TzUvsbOK6nCKPSjx05LqcMrR0QxfVmhX9zTtdjlStbWuM5TSaK3QWiNKo/Jdtr70d9l6/ndQk8dRneNyEkv6JMR3nEzyfhBnIvIHRyLyDzju1VLvRsbclZB5cCJfODrXp7uHdfW21y2/vM26PngDFRQqXGX6+u/D7T+EucfbimBjR3lxYD0Er0ACtpxD0Lj5lFAeEqo53nu8B+diN3qqECNY6trvcb5H+b4fIEop8TNTkcjRgmBQFz7Fhe/8E8zusyhlCKpTN5w+kbe7dowMss7/8DD17vtBIvIHRyLyDylOYp0vE/zQb+5G5Ou2dZJ5J5l/v8uHEBA/p7r5H3HX/it2/5fRKhcDVuF9wM3nOFciLseVM3x5SHCe4FztCHX13x6siw2NQ1MnPKwcv/afVhgURgzBjNBnP8r4k9/m7J/+66jxmbZwWfzdIrxoiMiXZZX3ykGZ8GghEXnCPUkuQ/MfhIzXvjHIydZ9L9vqL9hUbKwI01exN75Hee2/E6bXsdUc8Q5feYKtqCqH9joSeWuNL4jce4+yviVyiF6ApsJgVxwxCFoAnaEvfpbtK99hfPnXyc99rNXAu+TdxXIewfL0474nfLCRiDxhEPdiVZ90mXvS6E/AQQ9y6QYvIL6uBOjxvsKUtylv/IDpq39AdedFTKgo5xZn54jXMJ+jO9Z4043eORe1cN8pgRtCS+QSwHiP0xnTvKC4/BUe/9zfZHLpi6h8hNQt/LoNjxs8qOad8OFAIvKEe8K7Qej3smwT2vegWGfFNo5WCeAUKBeAGfbOzzh86/tU177HvHwHjg4IR3fQbo73NpK4izo5TZx5CNi6j6YhQ5kxqthCF2fgzKfILr/AzjOfo9h6DqRApCkgNlw3pTvO5e8JCV0kIk9413E/sd8P+zJcF6I3pPFHLdqDOGx1SHX4FvbgOuHwbZjdwE7fwc1uQ1XiXBUTdZQhyAZkG5jRWcx4Bz25gNq4iDlznnxyAUT3GjmsQyLvhHtFIvKEh4KHpm3f5/InXdcKcYptliIEEDQVFpzvt+ojhoaLCiCCiCbUHYSk/hv8PRN5QsJJkIg84ZHGu3V5HpdYtD48bzkkUrXOy0YDP3abdb2Xflbl3Yk8IeFekYg84UOBe73MV8n85NmoCQnvNVL1w4SEGsOSRiLwhEcficjfA5zEGky66LuDlCWY8GFEMjcSEhISTjkSkSckJCScciQiT0hISDjlSESekJCQcMqRiDwhISHhlCNFrbyLSCH5CQkJ7wcSkb9HSKFvCQkJDwtJWklISEg45UgWecIHCunNJ+HDiETkCQkJCY8AHiQrOUkrCQkJCaccySK/D6TolISEhEcJicjfZSSNNiEh4b1GklYSEhISTjkSkSckJCScciQiT0hISDjlSESekJCQcMqRiDwhISHhlCNFrQwgtWZLSEh4WHgY7QiTRZ6QkJBwypGIPCEhIeGUIxF5QkJCwilHIvKEhISEU45E5AkJCQmnHClqZQCN5zgVx0pISLhfPIzolHX4/1xjQjqFIytLAAAAAElFTkSuQmCC;" vertex="1" parent="1">
          <mxGeometry x="630" y="10" width="150" height="132.16" as="geometry" />
        </mxCell>
        <mxCell id="tZRy6jMqT5xdFO_vJThM-105" style="edgeStyle=orthogonalEdgeStyle;rounded=0;orthogonalLoop=1;jettySize=auto;html=1;entryX=0.57;entryY=-0.006;entryDx=0;entryDy=0;entryPerimeter=0;" edge="1" parent="1" source="tZRy6jMqT5xdFO_vJThM-11" target="tZRy6jMqT5xdFO_vJThM-73">
          <mxGeometry relative="1" as="geometry" />
        </mxCell>
        <mxCell id="tZRy6jMqT5xdFO_vJThM-11" value="VariaciÃ³n:&lt;br&gt;AdministraciÃ³n" style="rounded=1;whiteSpace=wrap;html=1;" vertex="1" parent="1">
          <mxGeometry x="90" y="160" width="120" height="60" as="geometry" />
        </mxCell>
        <mxCell id="tZRy6jMqT5xdFO_vJThM-106" style="edgeStyle=orthogonalEdgeStyle;rounded=0;orthogonalLoop=1;jettySize=auto;html=1;entryX=0.5;entryY=0;entryDx=0;entryDy=0;" edge="1" parent="1" source="tZRy6jMqT5xdFO_vJThM-12" target="tZRy6jMqT5xdFO_vJThM-83">
          <mxGeometry relative="1" as="geometry" />
        </mxCell>
        <mxCell id="tZRy6jMqT5xdFO_vJThM-12" value="VariaciÃ³n:&lt;br&gt;AmortizaciÃ³n" style="rounded=1;whiteSpace=wrap;html=1;" vertex="1" parent="1">
          <mxGeometry x="285" y="160" width="120" height="60" as="geometry" />
        </mxCell>
        <mxCell id="tZRy6jMqT5xdFO_vJThM-107" style="edgeStyle=orthogonalEdgeStyle;rounded=0;orthogonalLoop=1;jettySize=auto;html=1;entryX=0.5;entryY=0;entryDx=0;entryDy=0;" edge="1" parent="1" source="tZRy6jMqT5xdFO_vJThM-13" target="tZRy6jMqT5xdFO_vJThM-93">
          <mxGeometry relative="1" as="geometry" />
        </mxCell>
        <mxCell id="tZRy6jMqT5xdFO_vJThM-13" value="VariaciÃ³n:&lt;br&gt;Personal" style="rounded=1;whiteSpace=wrap;html=1;" vertex="1" parent="1">
          <mxGeometry x="450" y="160" width="120" height="60" as="geometry" />
        </mxCell>
        <mxCell id="tZRy6jMqT5xdFO_vJThM-112" style="edgeStyle=orthogonalEdgeStyle;rounded=0;orthogonalLoop=1;jettySize=auto;html=1;entryX=0.5;entryY=0;entryDx=0;entryDy=0;entryPerimeter=0;" edge="1" parent="1" source="tZRy6jMqT5xdFO_vJThM-73" target="tZRy6jMqT5xdFO_vJThM-109">
          <mxGeometry relative="1" as="geometry" />
        </mxCell>
        <mxCell id="tZRy6jMqT5xdFO_vJThM-73" value="Top nÂ " style="shape=table;startSize=30;container=1;collapsible=0;childLayout=tableLayout;fixedRows=1;rowLines=0;fontStyle=0;strokeColor=default;fontSize=16;" vertex="1" parent="1">
          <mxGeometry x="87" y="250" width="110" height="120" as="geometry" />
        </mxCell>
        <mxCell id="tZRy6jMqT5xdFO_vJThM-74" value="" style="shape=tableRow;horizontal=0;startSize=0;swimlaneHead=0;swimlaneBody=0;top=0;left=0;bottom=0;right=0;collapsible=0;dropTarget=0;fillColor=none;points=[[0,0.5],[1,0.5]];portConstraint=eastwest;strokeColor=inherit;fontSize=16;" vertex="1" parent="tZRy6jMqT5xdFO_vJThM-73">
          <mxGeometry y="30" width="110" height="30" as="geometry" />
        </mxCell>
        <mxCell id="tZRy6jMqT5xdFO_vJThM-75" value="1" style="shape=partialRectangle;html=1;whiteSpace=wrap;connectable=0;fillColor=none;top=0;left=0;bottom=0;right=0;overflow=hidden;pointerEvents=1;strokeColor=inherit;fontSize=16;" vertex="1" parent="tZRy6jMqT5xdFO_vJThM-74">
          <mxGeometry width="24" height="30" as="geometry">
            <mxRectangle width="24" height="30" as="alternateBounds" />
          </mxGeometry>
        </mxCell>
        <mxCell id="tZRy6jMqT5xdFO_vJThM-76" value="Cuenta 1" style="shape=partialRectangle;html=1;whiteSpace=wrap;connectable=0;fillColor=none;top=0;left=0;bottom=0;right=0;align=left;spacingLeft=6;overflow=hidden;strokeColor=inherit;fontSize=16;" vertex="1" parent="tZRy6jMqT5xdFO_vJThM-74">
          <mxGeometry x="24" width="86" height="30" as="geometry">
            <mxRectangle width="86" height="30" as="alternateBounds" />
          </mxGeometry>
        </mxCell>
        <mxCell id="tZRy6jMqT5xdFO_vJThM-77" value="" style="shape=tableRow;horizontal=0;startSize=0;swimlaneHead=0;swimlaneBody=0;top=0;left=0;bottom=0;right=0;collapsible=0;dropTarget=0;fillColor=none;points=[[0,0.5],[1,0.5]];portConstraint=eastwest;strokeColor=inherit;fontSize=16;" vertex="1" parent="tZRy6jMqT5xdFO_vJThM-73">
          <mxGeometry y="60" width="110" height="30" as="geometry" />
        </mxCell>
        <mxCell id="tZRy6jMqT5xdFO_vJThM-78" value="..." style="shape=partialRectangle;html=1;whiteSpace=wrap;connectable=0;fillColor=none;top=0;left=0;bottom=0;right=0;overflow=hidden;strokeColor=inherit;fontSize=16;" vertex="1" parent="tZRy6jMqT5xdFO_vJThM-77">
          <mxGeometry width="24" height="30" as="geometry">
            <mxRectangle width="24" height="30" as="alternateBounds" />
          </mxGeometry>
        </mxCell>
        <mxCell id="tZRy6jMqT5xdFO_vJThM-79" value="&amp;nbsp; . . ." style="shape=partialRectangle;html=1;whiteSpace=wrap;connectable=0;fillColor=none;top=0;left=0;bottom=0;right=0;align=left;spacingLeft=6;overflow=hidden;strokeColor=inherit;fontSize=16;" vertex="1" parent="tZRy6jMqT5xdFO_vJThM-77">
          <mxGeometry x="24" width="86" height="30" as="geometry">
            <mxRectangle width="86" height="30" as="alternateBounds" />
          </mxGeometry>
        </mxCell>
        <mxCell id="tZRy6jMqT5xdFO_vJThM-80" value="" style="shape=tableRow;horizontal=0;startSize=0;swimlaneHead=0;swimlaneBody=0;top=0;left=0;bottom=0;right=0;collapsible=0;dropTarget=0;fillColor=none;points=[[0,0.5],[1,0.5]];portConstraint=eastwest;strokeColor=inherit;fontSize=16;" vertex="1" parent="tZRy6jMqT5xdFO_vJThM-73">
          <mxGeometry y="90" width="110" height="30" as="geometry" />
        </mxCell>
        <mxCell id="tZRy6jMqT5xdFO_vJThM-81" value="n" style="shape=partialRectangle;html=1;whiteSpace=wrap;connectable=0;fillColor=none;top=0;left=0;bottom=0;right=0;overflow=hidden;strokeColor=inherit;fontSize=16;" vertex="1" parent="tZRy6jMqT5xdFO_vJThM-80">
          <mxGeometry width="24" height="30" as="geometry">
            <mxRectangle width="24" height="30" as="alternateBounds" />
          </mxGeometry>
        </mxCell>
        <mxCell id="tZRy6jMqT5xdFO_vJThM-82" value="Cuenta n" style="shape=partialRectangle;html=1;whiteSpace=wrap;connectable=0;fillColor=none;top=0;left=0;bottom=0;right=0;align=left;spacingLeft=6;overflow=hidden;strokeColor=inherit;fontSize=16;" vertex="1" parent="tZRy6jMqT5xdFO_vJThM-80">
          <mxGeometry x="24" width="86" height="30" as="geometry">
            <mxRectangle width="86" height="30" as="alternateBounds" />
          </mxGeometry>
        </mxCell>
        <mxCell id="tZRy6jMqT5xdFO_vJThM-115" style="edgeStyle=orthogonalEdgeStyle;rounded=0;orthogonalLoop=1;jettySize=auto;html=1;entryX=0.5;entryY=0;entryDx=0;entryDy=0;entryPerimeter=0;" edge="1" parent="1" source="tZRy6jMqT5xdFO_vJThM-83" target="tZRy6jMqT5xdFO_vJThM-113">
          <mxGeometry relative="1" as="geometry" />
        </mxCell>
        <mxCell id="tZRy6jMqT5xdFO_vJThM-83" value="Top nÂ " style="shape=table;startSize=30;container=1;collapsible=0;childLayout=tableLayout;fixedRows=1;rowLines=0;fontStyle=0;strokeColor=default;fontSize=16;" vertex="1" parent="1">
          <mxGeometry x="290" y="250" width="110" height="120" as="geometry" />
        </mxCell>
        <mxCell id="tZRy6jMqT5xdFO_vJThM-84" value="" style="shape=tableRow;horizontal=0;startSize=0;swimlaneHead=0;swimlaneBody=0;top=0;left=0;bottom=0;right=0;collapsible=0;dropTarget=0;fillColor=none;points=[[0,0.5],[1,0.5]];portConstraint=eastwest;strokeColor=inherit;fontSize=16;" vertex="1" parent="tZRy6jMqT5xdFO_vJThM-83">
          <mxGeometry y="30" width="110" height="30" as="geometry" />
        </mxCell>
        <mxCell id="tZRy6jMqT5xdFO_vJThM-85" value="1" style="shape=partialRectangle;html=1;whiteSpace=wrap;connectable=0;fillColor=none;top=0;left=0;bottom=0;right=0;overflow=hidden;pointerEvents=1;strokeColor=inherit;fontSize=16;" vertex="1" parent="tZRy6jMqT5xdFO_vJThM-84">
          <mxGeometry width="24" height="30" as="geometry">
            <mxRectangle width="24" height="30" as="alternateBounds" />
          </mxGeometry>
        </mxCell>
        <mxCell id="tZRy6jMqT5xdFO_vJThM-86" value="Cuenta 1" style="shape=partialRectangle;html=1;whiteSpace=wrap;connectable=0;fillColor=none;top=0;left=0;bottom=0;right=0;align=left;spacingLeft=6;overflow=hidden;strokeColor=inherit;fontSize=16;" vertex="1" parent="tZRy6jMqT5xdFO_vJThM-84">
          <mxGeometry x="24" width="86" height="30" as="geometry">
            <mxRectangle width="86" height="30" as="alternateBounds" />
          </mxGeometry>
        </mxCell>
        <mxCell id="tZRy6jMqT5xdFO_vJThM-87" value="" style="shape=tableRow;horizontal=0;startSize=0;swimlaneHead=0;swimlaneBody=0;top=0;left=0;bottom=0;right=0;collapsible=0;dropTarget=0;fillColor=none;points=[[0,0.5],[1,0.5]];portConstraint=eastwest;strokeColor=inherit;fontSize=16;" vertex="1" parent="tZRy6jMqT5xdFO_vJThM-83">
          <mxGeometry y="60" width="110" height="30" as="geometry" />
        </mxCell>
        <mxCell id="tZRy6jMqT5xdFO_vJThM-88" value="..." style="shape=partialRectangle;html=1;whiteSpace=wrap;connectable=0;fillColor=none;top=0;left=0;bottom=0;right=0;overflow=hidden;strokeColor=inherit;fontSize=16;" vertex="1" parent="tZRy6jMqT5xdFO_vJThM-87">
          <mxGeometry width="24" height="30" as="geometry">
            <mxRectangle width="24" height="30" as="alternateBounds" />
          </mxGeometry>
        </mxCell>
        <mxCell id="tZRy6jMqT5xdFO_vJThM-89" value="&amp;nbsp; . . ." style="shape=partialRectangle;html=1;whiteSpace=wrap;connectable=0;fillColor=none;top=0;left=0;bottom=0;right=0;align=left;spacingLeft=6;overflow=hidden;strokeColor=inherit;fontSize=16;" vertex="1" parent="tZRy6jMqT5xdFO_vJThM-87">
          <mxGeometry x="24" width="86" height="30" as="geometry">
            <mxRectangle width="86" height="30" as="alternateBounds" />
          </mxGeometry>
        </mxCell>
        <mxCell id="tZRy6jMqT5xdFO_vJThM-90" value="" style="shape=tableRow;horizontal=0;startSize=0;swimlaneHead=0;swimlaneBody=0;top=0;left=0;bottom=0;right=0;collapsible=0;dropTarget=0;fillColor=none;points=[[0,0.5],[1,0.5]];portConstraint=eastwest;strokeColor=inherit;fontSize=16;" vertex="1" parent="tZRy6jMqT5xdFO_vJThM-83">
          <mxGeometry y="90" width="110" height="30" as="geometry" />
        </mxCell>
        <mxCell id="tZRy6jMqT5xdFO_vJThM-91" value="n" style="shape=partialRectangle;html=1;whiteSpace=wrap;connectable=0;fillColor=none;top=0;left=0;bottom=0;right=0;overflow=hidden;strokeColor=inherit;fontSize=16;" vertex="1" parent="tZRy6jMqT5xdFO_vJThM-90">
          <mxGeometry width="24" height="30" as="geometry">
            <mxRectangle width="24" height="30" as="alternateBounds" />
          </mxGeometry>
        </mxCell>
        <mxCell id="tZRy6jMqT5xdFO_vJThM-92" value="Cuenta n" style="shape=partialRectangle;html=1;whiteSpace=wrap;connectable=0;fillColor=none;top=0;left=0;bottom=0;right=0;align=left;spacingLeft=6;overflow=hidden;strokeColor=inherit;fontSize=16;" vertex="1" parent="tZRy6jMqT5xdFO_vJThM-90">
          <mxGeometry x="24" width="86" height="30" as="geometry">
            <mxRectangle width="86" height="30" as="alternateBounds" />
          </mxGeometry>
        </mxCell>
        <mxCell id="tZRy6jMqT5xdFO_vJThM-116" style="edgeStyle=orthogonalEdgeStyle;rounded=0;orthogonalLoop=1;jettySize=auto;html=1;entryX=0.431;entryY=0.067;entryDx=0;entryDy=0;entryPerimeter=0;" edge="1" parent="1" source="tZRy6jMqT5xdFO_vJThM-93" target="tZRy6jMqT5xdFO_vJThM-114">
          <mxGeometry relative="1" as="geometry" />
        </mxCell>
        <mxCell id="tZRy6jMqT5xdFO_vJThM-93" value="Top nÂ " style="shape=table;startSize=30;container=1;collapsible=0;childLayout=tableLayout;fixedRows=1;rowLines=0;fontStyle=0;strokeColor=default;fontSize=16;" vertex="1" parent="1">
          <mxGeometry x="455" y="250" width="110" height="120" as="geometry" />
        </mxCell>
        <mxCell id="tZRy6jMqT5xdFO_vJThM-94" value="" style="shape=tableRow;horizontal=0;startSize=0;swimlaneHead=0;swimlaneBody=0;top=0;left=0;bottom=0;right=0;collapsible=0;dropTarget=0;fillColor=none;points=[[0,0.5],[1,0.5]];portConstraint=eastwest;strokeColor=inherit;fontSize=16;" vertex="1" parent="tZRy6jMqT5xdFO_vJThM-93">
          <mxGeometry y="30" width="110" height="30" as="geometry" />
        </mxCell>
        <mxCell id="tZRy6jMqT5xdFO_vJThM-95" value="1" style="shape=partialRectangle;html=1;whiteSpace=wrap;connectable=0;fillColor=none;top=0;left=0;bottom=0;right=0;overflow=hidden;pointerEvents=1;strokeColor=inherit;fontSize=16;" vertex="1" parent="tZRy6jMqT5xdFO_vJThM-94">
          <mxGeometry width="24" height="30" as="geometry">
            <mxRectangle width="24" height="30" as="alternateBounds" />
          </mxGeometry>
        </mxCell>
        <mxCell id="tZRy6jMqT5xdFO_vJThM-96" value="Cuenta 1" style="shape=partialRectangle;html=1;whiteSpace=wrap;connectable=0;fillColor=none;top=0;left=0;bottom=0;right=0;align=left;spacingLeft=6;overflow=hidden;strokeColor=inherit;fontSize=16;" vertex="1" parent="tZRy6jMqT5xdFO_vJThM-94">
          <mxGeometry x="24" width="86" height="30" as="geometry">
            <mxRectangle width="86" height="30" as="alternateBounds" />
          </mxGeometry>
        </mxCell>
        <mxCell id="tZRy6jMqT5xdFO_vJThM-97" value="" style="shape=tableRow;horizontal=0;startSize=0;swimlaneHead=0;swimlaneBody=0;top=0;left=0;bottom=0;right=0;collapsible=0;dropTarget=0;fillColor=none;points=[[0,0.5],[1,0.5]];portConstraint=eastwest;strokeColor=inherit;fontSize=16;" vertex="1" parent="tZRy6jMqT5xdFO_vJThM-93">
          <mxGeometry y="60" width="110" height="30" as="geometry" />
        </mxCell>
        <mxCell id="tZRy6jMqT5xdFO_vJThM-98" value="..." style="shape=partialRectangle;html=1;whiteSpace=wrap;connectable=0;fillColor=none;top=0;left=0;bottom=0;right=0;overflow=hidden;strokeColor=inherit;fontSize=16;" vertex="1" parent="tZRy6jMqT5xdFO_vJThM-97">
          <mxGeometry width="24" height="30" as="geometry">
            <mxRectangle width="24" height="30" as="alternateBounds" />
          </mxGeometry>
        </mxCell>
        <mxCell id="tZRy6jMqT5xdFO_vJThM-99" value="&amp;nbsp; . . ." style="shape=partialRectangle;html=1;whiteSpace=wrap;connectable=0;fillColor=none;top=0;left=0;bottom=0;right=0;align=left;spacingLeft=6;overflow=hidden;strokeColor=inherit;fontSize=16;" vertex="1" parent="tZRy6jMqT5xdFO_vJThM-97">
          <mxGeometry x="24" width="86" height="30" as="geometry">
            <mxRectangle width="86" height="30" as="alternateBounds" />
          </mxGeometry>
        </mxCell>
        <mxCell id="tZRy6jMqT5xdFO_vJThM-100" value="" style="shape=tableRow;horizontal=0;startSize=0;swimlaneHead=0;swimlaneBody=0;top=0;left=0;bottom=0;right=0;collapsible=0;dropTarget=0;fillColor=none;points=[[0,0.5],[1,0.5]];portConstraint=eastwest;strokeColor=inherit;fontSize=16;" vertex="1" parent="tZRy6jMqT5xdFO_vJThM-93">
          <mxGeometry y="90" width="110" height="30" as="geometry" />
        </mxCell>
        <mxCell id="tZRy6jMqT5xdFO_vJThM-101" value="n" style="shape=partialRectangle;html=1;whiteSpace=wrap;connectable=0;fillColor=none;top=0;left=0;bottom=0;right=0;overflow=hidden;strokeColor=inherit;fontSize=16;" vertex="1" parent="tZRy6jMqT5xdFO_vJThM-100">
          <mxGeometry width="24" height="30" as="geometry">
            <mxRectangle width="24" height="30" as="alternateBounds" />
          </mxGeometry>
        </mxCell>
        <mxCell id="tZRy6jMqT5xdFO_vJThM-102" value="Cuenta n" style="shape=partialRectangle;html=1;whiteSpace=wrap;connectable=0;fillColor=none;top=0;left=0;bottom=0;right=0;align=left;spacingLeft=6;overflow=hidden;strokeColor=inherit;fontSize=16;" vertex="1" parent="tZRy6jMqT5xdFO_vJThM-100">
          <mxGeometry x="24" width="86" height="30" as="geometry">
            <mxRectangle width="86" height="30" as="alternateBounds" />
          </mxGeometry>
        </mxCell>
        <mxCell id="tZRy6jMqT5xdFO_vJThM-109" value="&lt;font style=&quot;font-size: 13px;&quot;&gt;GrÃ¡ficos histÃ³ricos &lt;br&gt;n cuentas&lt;br&gt;&lt;/font&gt;" style="strokeWidth=2;html=1;shape=mxgraph.flowchart.multi-document;whiteSpace=wrap;" vertex="1" parent="1">
          <mxGeometry x="68.5" y="410" width="147" height="70" as="geometry" />
        </mxCell>
        <mxCell id="tZRy6jMqT5xdFO_vJThM-113" value="&lt;font style=&quot;font-size: 13px;&quot;&gt;GrÃ¡ficos histÃ³ricos &lt;br&gt;n cuentas&lt;br&gt;&lt;/font&gt;" style="strokeWidth=2;html=1;shape=mxgraph.flowchart.multi-document;whiteSpace=wrap;" vertex="1" parent="1">
          <mxGeometry x="271.5" y="409" width="147" height="70" as="geometry" />
        </mxCell>
        <mxCell id="tZRy6jMqT5xdFO_vJThM-114" value="&lt;font style=&quot;font-size: 13px;&quot;&gt;GrÃ¡ficos histÃ³ricos &lt;br&gt;n cuentas&lt;br&gt;&lt;/font&gt;" style="strokeWidth=2;html=1;shape=mxgraph.flowchart.multi-document;whiteSpace=wrap;" vertex="1" parent="1">
          <mxGeometry x="447" y="405" width="147" height="70" as="geometry" />
        </mxCell>
        <mxCell id="tZRy6jMqT5xdFO_vJThM-117" value="" style="strokeWidth=2;html=1;shape=mxgraph.flowchart.annotation_2;align=left;labelPosition=right;pointerEvents=1;rotation=-180;" vertex="1" parent="1">
          <mxGeometry x="580" y="245" width="70" height="130" as="geometry" />
        </mxCell>
        <mxCell id="tZRy6jMqT5xdFO_vJThM-118" value="&lt;font style=&quot;font-size: 29px;&quot;&gt;&lt;b&gt;&lt;i&gt;Root &lt;br&gt;Causes&lt;/i&gt;&lt;/b&gt;&lt;/font&gt;" style="text;html=1;align=center;verticalAlign=middle;resizable=0;points=[];autosize=1;strokeColor=none;fillColor=none;" vertex="1" parent="1">
          <mxGeometry x="645" y="270" width="130" height="80" as="geometry" />
        </mxCell>
      </root>
    </mxGraphModel>
  </diagram>
</mxfile>
